<?xml version="1.0" encoding="UTF-8" standalone="no"?>
<!DOCTYPE svg PUBLIC "-//W3C//DTD SVG 1.1//EN" "http://www.w3.org/Graphics/SVG/1.1/DTD/svg11.dtd">
<svg width="100%" height="100%" viewBox="0 0 30 45" version="1.1" xmlns="http://www.w3.org/2000/svg" xmlns:xlink="http://www.w3.org/1999/xlink" xml:space="preserve" xmlns:serif="http://www.serif.com/" style="fill-rule:evenodd;clip-rule:evenodd;stroke-linejoin:round;stroke-miterlimit:2;">
    <g transform="matrix(1,0,0,1,-653,-158)">
        <path d="M678,180L678,181L683,185L683,198L678,203L658,203L653,198L653,185L658,181L658,180L653,176L653,163L658,158L678,158L683,163L683,176L678,180ZM663,181L663,198L673,198L673,190L663,181ZM663,163L663,171L673,180L673,163L663,163Z"/>
    </g>
</svg>
