<?xml version="1.0" encoding="UTF-8" standalone="no"?>
<!DOCTYPE svg PUBLIC "-//W3C//DTD SVG 1.1//EN" "http://www.w3.org/Graphics/SVG/1.1/DTD/svg11.dtd">
<svg width="100%" height="100%" viewBox="0 0 35 45" version="1.1" xmlns="http://www.w3.org/2000/svg" xmlns:xlink="http://www.w3.org/1999/xlink" xml:space="preserve" xmlns:serif="http://www.serif.com/" style="fill-rule:evenodd;clip-rule:evenodd;stroke-linejoin:round;stroke-miterlimit:2;">
    <g transform="matrix(1,0,0,1,-413,-233)">
        <path d="M418,233L413,238L413,248L416,250L416,251L413,253L413,273L418,278L431,278L435,273L436,273L440,278L448,278L448,273L443,273L443,263L448,263L448,258L428,258L428,263L433,263L433,273L423,273L423,253L433,253L438,248L438,238L433,233L418,233ZM423,238L423,248L428,248L428,238L423,238Z"/>
    </g>
</svg>
