<?xml version="1.0" encoding="UTF-8" standalone="no"?>
<!DOCTYPE svg PUBLIC "-//W3C//DTD SVG 1.1//EN" "http://www.w3.org/Graphics/SVG/1.1/DTD/svg11.dtd">
<svg width="100%" height="100%" viewBox="0 0 35 25" version="1.1" xmlns="http://www.w3.org/2000/svg" xmlns:xlink="http://www.w3.org/1999/xlink" xml:space="preserve" xmlns:serif="http://www.serif.com/" style="fill-rule:evenodd;clip-rule:evenodd;stroke-linejoin:round;stroke-miterlimit:2;">
    <g transform="matrix(1,0,0,1,-733,-243)">
        <path d="M738,243L748,243L748,248L753,248L753,243L763,243L763,248L758,248L758,253L768,253L768,258L758,258L758,263L763,263L763,268L753,268L753,263L748,263L748,268L738,268L738,263L743,263L743,258L733,258L733,253L743,253L743,248L738,248L738,243Z"/>
    </g>
</svg>
