<?xml version="1.0" encoding="UTF-8" standalone="no"?>
<!DOCTYPE svg PUBLIC "-//W3C//DTD SVG 1.1//EN" "http://www.w3.org/Graphics/SVG/1.1/DTD/svg11.dtd">
<svg width="100%" height="100%" viewBox="0 0 25 55" version="1.1" xmlns="http://www.w3.org/2000/svg" xmlns:xlink="http://www.w3.org/1999/xlink" xml:space="preserve" xmlns:serif="http://www.serif.com/" style="fill-rule:evenodd;clip-rule:evenodd;stroke-linejoin:round;stroke-miterlimit:2;">
    <g transform="matrix(1,0,0,1,-1098,-308)">
        <g transform="matrix(0.0620243,2.05663e-33,2.05663e-33,-0.0620243,1097.94,362.768)">
            <path d="M1.01,79.01C47.01,79.01 45.677,79.677 64.01,81.01C82.343,82.343 95.843,86.01 104.51,92.01C113.177,98.01 117.51,108.343 117.51,123.01L117.51,339.01C117.51,361.677 121.51,378.677 129.51,390.01C137.51,401.343 149.51,409.677 165.51,415.01C181.51,420.343 206.177,425.677 239.51,431.01L239.51,453.01C206.177,458.343 181.51,463.677 165.51,469.01C149.51,474.343 137.51,482.677 129.51,494.01C121.51,505.343 117.51,522.343 117.51,545.01L117.51,761.01C117.51,775.677 113.177,786.01 104.51,792.01C95.843,798.01 82.343,801.677 64.01,803.01C45.677,804.343 47.01,805.01 1.01,805.01L1.01,883.01C66.343,883.01 114.01,881.343 144.01,878.01C174.01,874.677 195.677,866.51 209.01,853.51C222.343,840.51 229.01,819.677 229.01,791.01C229.01,773.677 229.01,571.677 229.01,563.01C229.01,549.677 232.51,539.343 239.51,532.01C246.51,524.677 258.177,518.51 274.51,513.51C290.843,508.51 368.744,502.677 404.078,496.01L404.078,388.01C368.744,380.677 290.843,374.51 274.51,369.51C258.177,364.51 246.51,358.343 239.51,351.01C232.51,343.677 229.01,333.343 229.01,320.01C229.01,310.677 229.01,110.343 229.01,93.01C229.01,64.343 222.343,43.51 209.01,30.51C195.677,17.51 174.01,9.343 144.01,6.01C114.01,2.677 66.343,1.01 1.01,1.01L1.01,79.01Z" style="fill-rule:nonzero;"/>
        </g>
    </g>
</svg>
