<?xml version="1.0" encoding="UTF-8" standalone="no"?>
<!DOCTYPE svg PUBLIC "-//W3C//DTD SVG 1.1//EN" "http://www.w3.org/Graphics/SVG/1.1/DTD/svg11.dtd">
<svg width="100%" height="100%" viewBox="0 0 35 45" version="1.1" xmlns="http://www.w3.org/2000/svg" xmlns:xlink="http://www.w3.org/1999/xlink" xml:space="preserve" xmlns:serif="http://www.serif.com/" style="fill-rule:evenodd;clip-rule:evenodd;stroke-linejoin:round;stroke-miterlimit:2;">
    <g transform="matrix(1,0,0,1,-173,-233)">
        <path d="M173,243L173,248L178,248L178,263L173,263L173,268L178,268L178,278L188,278L188,268L193,268L193,278L203,278L203,268L208,268L208,263L203,263L203,248L208,248L208,243L203,243L203,233L193,233L193,243L188,243L188,233L178,233L178,243L173,243ZM188,248L188,263L193,263L193,248L188,248Z"/>
    </g>
</svg>
