<?xml version="1.0" encoding="UTF-8" standalone="no"?>
<!DOCTYPE svg PUBLIC "-//W3C//DTD SVG 1.1//EN" "http://www.w3.org/Graphics/SVG/1.1/DTD/svg11.dtd">
<svg width="100%" height="100%" viewBox="0 0 20 55" version="1.1" xmlns="http://www.w3.org/2000/svg" xmlns:xlink="http://www.w3.org/1999/xlink" xml:space="preserve" xmlns:serif="http://www.serif.com/" style="fill-rule:evenodd;clip-rule:evenodd;stroke-linejoin:round;stroke-miterlimit:2;">
    <g transform="matrix(1,0,0,1,-658,-233)">
        <g transform="matrix(0.0775194,1.8567e-18,-1.8567e-18,-0.0623583,657.922,288.063)">
            <path d="M2.01,87.01C91.31,113.265 121.51,202.222 129.51,241.555C136.177,279.555 136.177,591.555 129.51,629.555C122.177,668.889 91.31,770.755 2.01,797.01L1.01,883.01C49.01,879.677 87.677,870.843 117.01,856.51C146.343,842.177 170.177,819.677 188.51,789.01C206.843,758.343 222.677,715.343 236.01,660.01C244.677,622.677 250.677,588.677 254.01,558.01C257.343,527.343 259.01,488.677 259.01,442.01C259.01,395.343 257.343,356.677 254.01,326.01C250.677,295.343 244.677,261.343 236.01,224.01C222.677,168.677 206.843,125.677 188.51,95.01C170.177,64.343 146.343,41.843 117.01,27.51C87.677,13.177 49.01,4.343 1.01,1.01L2.01,87.01Z" style="fill-rule:nonzero;"/>
        </g>
    </g>
</svg>
