<?xml version="1.0" encoding="UTF-8" standalone="no"?>
<!DOCTYPE svg PUBLIC "-//W3C//DTD SVG 1.1//EN" "http://www.w3.org/Graphics/SVG/1.1/DTD/svg11.dtd">
<svg width="100%" height="100%" viewBox="0 0 40 55" version="1.1" xmlns="http://www.w3.org/2000/svg" xmlns:xlink="http://www.w3.org/1999/xlink" xml:space="preserve" xmlns:serif="http://www.serif.com/" style="fill-rule:evenodd;clip-rule:evenodd;stroke-linejoin:round;stroke-miterlimit:2;">
    <g transform="matrix(1,0,0,1,-328,-228)">
        <path d="M328,233L333,228L348,228L353,233L353,243L348,248L333,248L328,243L328,233ZM343,233L343,243L338,243L338,233L343,233Z"/>
        <g transform="matrix(1,0,0,1,15,35)">
            <path d="M328,233L333,228L348,228L353,233L353,243L348,248L333,248L328,243L328,233ZM343,233L343,243L338,243L338,233L343,233Z"/>
        </g>
        <path d="M333,263L333,277L363,248L363,234L333,263Z"/>
    </g>
</svg>
