<?xml version="1.0" encoding="UTF-8" standalone="no"?><!DOCTYPE svg PUBLIC "-//W3C//DTD SVG 1.1//EN" "http://www.w3.org/Graphics/SVG/1.1/DTD/svg11.dtd"><svg width="100%" height="100%" viewBox="0 0 34 113" version="1.1" xmlns="http://www.w3.org/2000/svg" xmlns:xlink="http://www.w3.org/1999/xlink" xml:space="preserve" xmlns:serif="http://www.serif.com/" style="fill-rule:evenodd;clip-rule:evenodd;stroke-linejoin:round;stroke-miterlimit:2;"><path d="M4.167,108.333c-0,1.105 0.439,2.165 1.22,2.947c0.781,0.781 1.841,1.22 2.946,1.22c4.624,0 12.043,0 16.667,0c1.105,0 2.165,-0.439 2.946,-1.22c0.782,-0.782 1.221,-1.842 1.221,-2.947c-0,-4.624 -0,-12.042 -0,-16.666c-0,-1.105 -0.439,-2.165 -1.221,-2.947c-0.781,-0.781 -1.841,-1.22 -2.946,-1.22c-4.624,0 -12.043,0 -16.667,-0c-1.105,-0 -2.165,0.439 -2.946,1.22c-0.781,0.782 -1.22,1.842 -1.22,2.947l-0,16.666Z" style="fill:#fff;"/><path d="M4.167,70.833c-0,2.302 1.865,4.167 4.166,4.167c4.624,0 12.043,0 16.667,-0c2.301,0 4.167,-1.865 4.167,-4.167c-0,-1.609 -0,-3.426 -0,-4.952c-0,-2.239 0.361,-4.464 1.069,-6.588c0.623,-1.869 1.405,-4.217 2.028,-6.086c0.708,-2.124 1.069,-4.349 1.069,-6.588c0,-9.22 0,-34.119 0,-34.119c0,0 -0.122,-0.366 -0.324,-0.972c-2.295,-6.882 -8.735,-11.524 -15.989,-11.526c-0.228,0 -0.455,0 -0.682,0c-7.268,-0.001 -13.722,4.649 -16.02,11.545c-0.199,0.595 -0.318,0.953 -0.318,0.953l-0,34.119c-0,2.239 0.361,4.464 1.069,6.588c0.623,1.869 1.406,4.217 2.029,6.086c0.708,2.124 1.069,4.349 1.069,6.588c-0,1.526 -0,3.343 -0,4.952Z" style="fill:#fff;"/></svg>