<?xml version="1.0" encoding="UTF-8" standalone="no"?><!DOCTYPE svg PUBLIC "-//W3C//DTD SVG 1.1//EN" "http://www.w3.org/Graphics/SVG/1.1/DTD/svg11.dtd"><svg width="100%" height="100%" viewBox="0 0 88 113" version="1.1" xmlns="http://www.w3.org/2000/svg" xmlns:xlink="http://www.w3.org/1999/xlink" xml:space="preserve" xmlns:serif="http://www.serif.com/" style="fill-rule:evenodd;clip-rule:evenodd;stroke-linejoin:round;stroke-miterlimit:2;"><path d="M21.13,0c-5.526,-0 -10.825,2.195 -14.732,6.102c-0.099,0.099 -0.197,0.197 -0.296,0.296c-3.907,3.907 -6.102,9.206 -6.102,14.731c0,1.444 0,2.964 0,4.472c-0,7.106 4.547,13.415 11.288,15.662c0.748,0.249 1.212,0.404 1.212,0.404l0,4.166c0,0 -0.464,0.155 -1.212,0.404c-6.741,2.247 -11.288,8.556 -11.288,15.662c0,9.065 0,21.333 0,29.472c0,5.525 2.195,10.824 6.102,14.731c0.099,0.099 0.197,0.197 0.296,0.296c3.907,3.907 9.206,6.102 14.732,6.102c5.035,0 11.461,0 16.971,0c7.106,0 13.415,0.64 15.662,-6.101c-0,-0 -0,-0 0,-0.001c0.241,-0.723 1.873,-1.211 2.635,-1.211c1.225,0 2.09,0.464 2.339,1.212c2.247,6.741 8.556,6.101 15.662,6.101c3.207,0 6.468,0 8.934,0c2.301,0 4.167,-1.865 4.167,-4.167c0,-1.34 0,-2.826 0,-4.166c-0,-2.302 -1.865,-4.167 -4.167,-4.167c-1.34,0 -2.826,0 -4.166,0c-2.302,-0 -4.167,-1.866 -4.167,-4.167c0,-4.624 0,-12.042 0,-16.666c-0,-2.301 1.865,-4.167 4.167,-4.167c1.34,0 2.826,0 4.166,0c2.302,-0 4.167,-1.865 4.167,-4.167c0,-1.34 0,-2.826 0,-4.166c-0,-2.302 -1.866,-4.167 -4.167,-4.167c-9.416,0 -32.25,0 -41.666,0c-2.301,-0 -4.167,1.865 -4.167,4.167c0,1.34 0,2.826 0,4.166c0,2.302 1.865,4.167 4.167,4.167c1.34,0 2.826,0 4.166,0c2.302,0 4.167,1.866 4.167,4.167c0,4.624 0,12.042 0,16.666c0,1.105 -0.439,2.165 -1.22,2.947c-0.782,0.781 -1.842,1.22 -2.947,1.22c-4.624,0 -12.042,0 -16.666,0c-1.105,0 -2.165,-0.439 -2.947,-1.22c-0.781,-0.782 -1.22,-1.842 -1.22,-2.947c0,-9.416 0,-32.25 0,-41.666c-0,-1.105 0.439,-2.165 1.22,-2.947c0.782,-0.781 1.842,-1.22 2.947,-1.22c3.317,0 8.073,0 12.204,0c5.525,-0 10.824,-2.195 14.731,-6.102c0.099,-0.099 0.197,-0.197 0.296,-0.296c3.907,-3.907 6.102,-9.206 6.102,-14.731c0,-2.504 0,-5.238 0,-7.742c-0,-5.525 -2.195,-10.824 -6.102,-14.731c-0.099,-0.099 -0.197,-0.197 -0.296,-0.296c-3.907,-3.907 -9.206,-6.102 -14.732,-6.102c-6.072,0 -14.168,0 -20.24,0Zm8.037,37.5c-2.302,-0 -4.167,-1.866 -4.167,-4.167c0,-4.624 0,-12.042 0,-16.666c-0,-2.301 1.865,-4.167 4.167,-4.167c1.34,0 2.826,0 4.166,0c2.302,0 4.167,1.866 4.167,4.167c0,4.624 0,12.042 0,16.666c0,2.301 -1.865,4.167 -4.167,4.167c-1.34,0 -2.826,0 -4.166,0Z" style="fill:#fff;"/></svg>