<?xml version="1.0" encoding="UTF-8" standalone="no"?><!DOCTYPE svg PUBLIC "-//W3C//DTD SVG 1.1//EN" "http://www.w3.org/Graphics/SVG/1.1/DTD/svg11.dtd"><svg width="100%" height="100%" viewBox="0 0 75 38" version="1.1" xmlns="http://www.w3.org/2000/svg" xmlns:xlink="http://www.w3.org/1999/xlink" xml:space="preserve" xmlns:serif="http://www.serif.com/" style="fill-rule:evenodd;clip-rule:evenodd;stroke-linejoin:round;stroke-miterlimit:2;"><path id="_-" serif:id="=" d="M75,33.333c-0,2.302 -1.866,4.167 -4.167,4.167c-13.128,0 -53.538,0 -66.666,-0c-1.105,0 -2.165,-0.439 -2.947,-1.22c-0.781,-0.782 -1.22,-1.842 -1.22,-2.947l-0,-4.166c0,-2.302 1.866,-4.167 4.167,-4.167c13.128,0 53.538,0 66.666,0c2.301,-0 4.167,1.865 4.167,4.167c0,1.34 0,2.826 0,4.166Zm-75,-29.166c0,-2.302 1.866,-4.167 4.167,-4.167c13.128,0 53.538,-0 66.666,0c1.105,-0 2.165,0.439 2.947,1.22c0.781,0.782 1.22,1.842 1.22,2.947c0,3.635 0,8.333 0,8.333l-75,0l0,-8.333Z" style="fill:#fff;"/></svg>