<?xml version="1.0" encoding="UTF-8" standalone="no"?><!DOCTYPE svg PUBLIC "-//W3C//DTD SVG 1.1//EN" "http://www.w3.org/Graphics/SVG/1.1/DTD/svg11.dtd"><svg width="100%" height="100%" viewBox="0 0 100 13" version="1.1" xmlns="http://www.w3.org/2000/svg" xmlns:xlink="http://www.w3.org/1999/xlink" xml:space="preserve" xmlns:serif="http://www.serif.com/" style="fill-rule:evenodd;clip-rule:evenodd;stroke-linejoin:round;stroke-miterlimit:2;"><path id="_" d="M4.167,0c-2.302,-0 -4.167,1.865 -4.167,4.167c0,1.34 0,2.825 0,4.165c0,1.106 0.439,2.166 1.221,2.947c0.781,0.781 1.841,1.22 2.947,1.22c16.269,-0.004 75.401,-0.019 91.666,-0.023c2.301,-0.001 4.166,-1.866 4.166,-4.167c0,-1.333 0,-2.809 0,-4.142c0,-1.105 -0.439,-2.165 -1.22,-2.947c-0.782,-0.781 -1.842,-1.22 -2.947,-1.22c-16.267,-0 -75.399,-0 -91.666,-0Z" style="fill:#fff;"/></svg>