<?xml version="1.0" encoding="UTF-8" standalone="no"?><!DOCTYPE svg PUBLIC "-//W3C//DTD SVG 1.1//EN" "http://www.w3.org/Graphics/SVG/1.1/DTD/svg11.dtd"><svg width="100%" height="100%" viewBox="0 0 50 38" version="1.1" xmlns="http://www.w3.org/2000/svg" xmlns:xlink="http://www.w3.org/1999/xlink" xml:space="preserve" xmlns:serif="http://www.serif.com/" style="fill-rule:evenodd;clip-rule:evenodd;stroke-linejoin:round;stroke-miterlimit:2;"><path d="M27.23,37.5c-1.393,0 -2.694,-0.696 -3.467,-1.855c-3.5,-5.251 -13.6,-20.4 -19.444,-29.167c-0.853,-1.279 -0.932,-2.923 -0.207,-4.277c0.725,-1.355 2.137,-2.201 3.673,-2.201c8.285,-0 20.973,-0 26.712,0c1.793,-0 3.386,1.148 3.953,2.849c2.071,6.213 7.024,21.072 9.722,29.167c0.423,1.27 0.21,2.667 -0.573,3.754c-0.783,1.086 -2.041,1.73 -3.38,1.73c-5.408,0 -13.204,0 -16.989,0Z" style="fill:#fff;"/></svg>