<?xml version="1.0" encoding="UTF-8" standalone="no"?><!DOCTYPE svg PUBLIC "-//W3C//DTD SVG 1.1//EN" "http://www.w3.org/Graphics/SVG/1.1/DTD/svg11.dtd"><svg width="100%" height="100%" viewBox="0 0 100 113" version="1.1" xmlns="http://www.w3.org/2000/svg" xmlns:xlink="http://www.w3.org/1999/xlink" xml:space="preserve" xmlns:serif="http://www.serif.com/" style="fill-rule:evenodd;clip-rule:evenodd;stroke-linejoin:round;stroke-miterlimit:2;"><path d="M100,108.333c-0,2.302 -1.865,4.167 -4.167,4.167c-13.502,0 -56.243,0 -74.704,0c-5.525,-0 -10.824,-2.195 -14.731,-6.102c-0.099,-0.099 -0.197,-0.197 -0.296,-0.296c-3.907,-3.907 -6.102,-9.206 -6.102,-14.731c0,-16.751 0,-53.491 0,-70.242c0,-5.525 2.195,-10.824 6.102,-14.731c0.099,-0.099 0.197,-0.197 0.296,-0.296c3.907,-3.907 9.206,-6.102 14.731,-6.102c14.434,0 43.308,0 57.742,0c5.525,0 10.824,2.195 14.731,6.102c0.099,0.099 0.197,0.197 0.296,0.296c3.907,3.907 6.102,9.206 6.102,14.731c0,16.139 0,50.33 0,62.204c0,1.105 -0.439,2.165 -1.22,2.947c-0.782,0.781 -1.842,1.22 -2.947,1.22c-8.15,0 -26.35,0 -37.204,0c-5.525,-0 -10.824,-2.195 -14.731,-6.102c-0.099,-0.099 -0.197,-0.197 -0.296,-0.296c-3.907,-3.907 -6.102,-9.206 -6.102,-14.731c0,-2.504 0,-5.238 0,-7.742c0,-5.525 2.195,-10.824 6.102,-14.731c0.099,-0.099 0.197,-0.197 0.296,-0.296c3.907,-3.907 9.206,-6.102 14.731,-6.102c4.131,0 8.887,0 12.204,0c1.105,0 2.165,-0.439 2.947,-1.22c0.781,-0.782 1.22,-1.842 1.22,-2.947c0,-4.624 0,-12.042 0,-16.666c0,-1.105 -0.439,-2.165 -1.22,-2.947c-0.782,-0.781 -1.842,-1.22 -2.947,-1.22c-9.416,0 -32.25,0 -41.666,0c-1.105,-0 -2.165,0.439 -2.947,1.22c-0.781,0.782 -1.22,1.842 -1.22,2.947c0,14.753 0,64.413 0,79.166c0,1.105 0.439,2.165 1.22,2.947c0.782,0.781 1.842,1.22 2.947,1.22c13.128,0 53.538,0 66.666,0c2.301,-0 4.167,1.865 4.167,4.167c0,1.34 0,2.826 0,4.166Zm-33.333,-33.333c-2.302,-0 -4.167,-1.866 -4.167,-4.167c0,-4.624 0,-12.042 0,-16.666c-0,-2.301 1.865,-4.167 4.167,-4.167c1.34,0 2.826,0 4.166,0c2.302,0 4.167,1.866 4.167,4.167c0,4.624 0,12.042 0,16.666c0,2.301 -1.865,4.167 -4.167,4.167c-1.34,0 -2.826,0 -4.166,0Z" style="fill:#fff;"/></svg>