<?xml version="1.0" encoding="UTF-8" standalone="no"?><!DOCTYPE svg PUBLIC "-//W3C//DTD SVG 1.1//EN" "http://www.w3.org/Graphics/SVG/1.1/DTD/svg11.dtd"><svg width="100%" height="100%" viewBox="0 0 50 38" version="1.1" xmlns="http://www.w3.org/2000/svg" xmlns:xlink="http://www.w3.org/1999/xlink" xml:space="preserve" xmlns:serif="http://www.serif.com/" style="fill-rule:evenodd;clip-rule:evenodd;stroke-linejoin:round;stroke-miterlimit:2;"><path d="M4.167,0c-2.301,-0 -4.167,1.865 -4.167,4.167c0,1.391 0,2.937 0,4.316c-0,1.066 0.423,2.087 1.176,2.841c0.754,0.753 1.775,1.176 2.841,1.176c0,-0 0.001,-0 0.002,-0c5.43,-0 10.638,2.157 14.478,5.997c0.169,0.169 0.337,0.337 0.506,0.506c3.84,3.84 5.997,9.048 5.997,14.478l0,0.002c-0,1.066 0.423,2.087 1.176,2.841c0.754,0.753 1.775,1.176 2.841,1.176c4.612,-0 12.142,-0 16.816,-0c2.301,0 4.167,-1.865 4.167,-4.167c0,-1.34 0,-2.826 0,-4.166c-0,-2.302 -1.865,-4.167 -4.167,-4.167c-1.34,-0 -2.826,-0 -4.166,-0c-2.302,-0 -4.167,-1.866 -4.167,-4.167c0,-4.624 0,-12.042 0,-16.666c0,-1.105 -0.439,-2.165 -1.22,-2.947c-0.782,-0.781 -1.842,-1.22 -2.947,-1.22c-7.214,-0 -21.952,-0 -29.166,-0Z" style="fill:#fff;"/></svg>