<?xml version="1.0" encoding="UTF-8" standalone="no"?><!DOCTYPE svg PUBLIC "-//W3C//DTD SVG 1.1//EN" "http://www.w3.org/Graphics/SVG/1.1/DTD/svg11.dtd"><svg width="100%" height="100%" viewBox="0 0 75 113" version="1.1" xmlns="http://www.w3.org/2000/svg" xmlns:xlink="http://www.w3.org/1999/xlink" xml:space="preserve" xmlns:serif="http://www.serif.com/" style="fill-rule:evenodd;clip-rule:evenodd;stroke-linejoin:round;stroke-miterlimit:2;"><path id="_-" serif:id="&lt;" d="M70.833,0c2.302,0 4.167,1.865 4.167,4.167l-0,6.25c0,1.311 -0.617,2.546 -1.667,3.333c-7.614,5.711 -39.052,29.289 -46.666,35c-1.05,0.787 -1.667,2.022 -1.667,3.333c-0,2.312 -0,6.022 -0,8.334c-0,1.311 0.617,2.546 1.667,3.333c7.614,5.711 39.052,29.289 46.666,35c1.05,0.787 1.667,2.022 1.667,3.333c-0,1.699 -0,4.152 0,6.25c-0,2.302 -1.865,4.167 -4.167,4.167c-2.371,0 -5.195,0 -6.871,-0c-0.947,0 -1.865,-0.322 -2.603,-0.913c-7.611,-6.089 -50.979,-40.783 -59.795,-47.836c-0.989,-0.791 -1.564,-1.988 -1.564,-3.254c-0,-2.332 -0,-6.162 0,-8.494c0,-1.266 0.575,-2.463 1.564,-3.254c8.816,-7.053 52.184,-41.747 59.795,-47.836c0.738,-0.591 1.656,-0.913 2.603,-0.913c1.676,-0 4.5,-0 6.871,-0Z" style="fill:#fff;"/></svg>