<?xml version="1.0" encoding="UTF-8" standalone="no"?><!DOCTYPE svg PUBLIC "-//W3C//DTD SVG 1.1//EN" "http://www.w3.org/Graphics/SVG/1.1/DTD/svg11.dtd"><svg width="100%" height="100%" viewBox="0 0 96 113" version="1.1" xmlns="http://www.w3.org/2000/svg" xmlns:xlink="http://www.w3.org/1999/xlink" xml:space="preserve" xmlns:serif="http://www.serif.com/" style="fill-rule:evenodd;clip-rule:evenodd;stroke-linejoin:round;stroke-miterlimit:2;"><path d="M0,79.167c0,-2.302 1.865,-4.167 4.167,-4.167c1.34,0 2.826,0 4.166,0c2.302,-0 4.167,-1.866 4.167,-4.167c0,-7.214 -0,-21.952 0,-29.166c0,-2.301 -1.865,-4.167 -4.167,-4.167c-1.34,0 -2.826,0 -4.166,0c-2.302,-0 -4.167,-1.865 -4.167,-4.167c0,-1.34 0,-2.826 0,-4.166c0,-2.302 1.865,-4.167 4.167,-4.167c1.34,0 2.826,0 4.166,0c2.302,-0 4.167,-1.866 4.167,-4.167c0,-4.624 0,-12.042 0,-16.666c-0,-1.105 0.439,-2.165 1.22,-2.947c0.782,-0.781 1.842,-1.22 2.947,-1.22c4.624,0 12.042,0 16.666,-0c1.105,-0 2.165,0.439 2.947,1.22c0.781,0.782 1.22,1.842 1.22,2.947c0,4.624 0,12.042 -0,16.666c-0,1.105 0.439,2.165 1.22,2.947c0.782,0.781 1.842,1.22 2.947,1.22c3.631,0 8.869,0 12.5,0c1.105,0 2.165,-0.439 2.946,-1.22c0.781,-0.782 1.22,-1.842 1.22,-2.947c0,-4.624 0,-12.042 0,-16.666c0,-1.105 0.439,-2.165 1.221,-2.947c0.781,-0.781 1.841,-1.22 2.946,-1.22c4.624,0 12.043,0 16.667,-0c1.105,-0 2.165,0.439 2.946,1.22c0.781,0.782 1.22,1.842 1.22,2.947c0,4.624 0,12.042 0,16.666c0,2.301 1.866,4.167 4.167,4.167c1.341,0 2.826,0 4.167,0c2.301,0 4.166,1.865 4.166,4.167c0,1.34 0,2.826 0,4.166c0,2.302 -1.865,4.167 -4.166,4.167c-1.341,0 -2.826,0 -4.167,0c-2.301,0 -4.167,1.866 -4.167,4.167c0,7.214 0,21.952 0,29.166c0,2.301 1.866,4.167 4.167,4.167c1.341,0 2.826,0 4.167,0c2.301,0 4.166,1.865 4.166,4.167c0,1.34 0,2.826 0,4.166c0,2.302 -1.865,4.167 -4.166,4.167c-1.341,0 -2.826,0 -4.167,0c-2.301,0 -4.167,1.866 -4.167,4.167c0,4.624 0,12.042 0,16.666c0,1.105 -0.439,2.165 -1.22,2.947c-0.781,0.781 -1.841,1.22 -2.946,1.22c-4.624,0 -12.043,0 -16.667,-0c-1.105,0 -2.165,-0.439 -2.946,-1.22c-0.782,-0.782 -1.221,-1.842 -1.221,-2.947c0,-4.624 0,-12.042 0,-16.666c0,-1.105 -0.439,-2.165 -1.22,-2.947c-0.781,-0.781 -1.841,-1.22 -2.946,-1.22c-3.631,0 -8.869,0 -12.5,-0c-1.105,-0 -2.165,0.439 -2.947,1.22c-0.781,0.782 -1.22,1.842 -1.22,2.947c0,4.624 0,12.042 -0,16.666c0,1.105 -0.439,2.165 -1.22,2.947c-0.782,0.781 -1.842,1.22 -2.947,1.22c-4.624,0 -12.042,0 -16.666,-0c-1.105,0 -2.165,-0.439 -2.947,-1.22c-0.781,-0.782 -1.22,-1.842 -1.22,-2.947c0,-4.624 0,-12.042 0,-16.666c0,-2.301 -1.865,-4.167 -4.167,-4.167c-1.34,0 -2.826,0 -4.166,0c-2.302,-0 -4.167,-1.865 -4.167,-4.167l0,-4.166Zm37.5,-37.5c-0,-1.105 0.439,-2.165 1.22,-2.947c0.782,-0.781 1.842,-1.22 2.947,-1.22c3.631,0 8.869,0 12.5,0c1.105,-0 2.165,0.439 2.946,1.22c0.781,0.782 1.22,1.842 1.22,2.947c0,7.214 0,21.952 0,29.166c0,1.105 -0.439,2.165 -1.22,2.947c-0.781,0.781 -1.841,1.22 -2.946,1.22c-3.631,0 -8.869,0 -12.5,0c-1.105,0 -2.165,-0.439 -2.947,-1.22c-0.781,-0.782 -1.22,-1.842 -1.22,-2.947c0,-7.214 0,-21.952 0,-29.166Z" style="fill:#fff;"/></svg>