<?xml version="1.0" encoding="UTF-8" standalone="no"?><!DOCTYPE svg PUBLIC "-//W3C//DTD SVG 1.1//EN" "http://www.w3.org/Graphics/SVG/1.1/DTD/svg11.dtd"><svg width="100%" height="100%" viewBox="0 0 67 138" version="1.1" xmlns="http://www.w3.org/2000/svg" xmlns:xlink="http://www.w3.org/1999/xlink" xml:space="preserve" xmlns:serif="http://www.serif.com/" style="fill-rule:evenodd;clip-rule:evenodd;stroke-linejoin:round;stroke-miterlimit:2;"><path d="M62.503,0c2.3,0 4.165,1.864 4.166,4.164c0.001,1.341 0.002,2.826 0.003,4.167c0,1.105 -0.438,2.166 -1.22,2.948c-0.781,0.782 -1.841,1.221 -2.947,1.221c-2.785,0 -6.429,0 -9.182,0c-2.241,0 -4.081,1.773 -4.164,4.013c-0.228,6.176 -0.67,18.116 -0.959,25.942c-0.181,4.875 -2.066,9.532 -5.327,13.159c-0.945,1.051 -1.92,2.136 -2.827,3.145c-2.565,2.852 -3.979,6.554 -3.97,10.389c0,0.003 0,0.005 0,0.007c0.011,4.246 1.713,8.314 4.73,11.301c0.392,0.388 0.792,0.784 1.191,1.179c3.791,3.753 5.923,8.866 5.923,14.201c0,7.753 0,18.986 0,24.997c0,1.105 0.439,2.165 1.221,2.947c0.781,0.781 1.841,1.22 2.946,1.22c3.1,-0 7.313,-0 10.413,-0c2.301,-0 4.167,1.865 4.167,4.167c-0,1.34 -0,2.826 -0,4.166c-0,2.302 -1.866,4.167 -4.167,4.167c-5.119,0 -13.934,0 -20.537,0c-5.526,0 -10.825,-2.195 -14.732,-6.102c-0.098,-0.099 -0.197,-0.197 -0.296,-0.296c-3.907,-3.907 -6.102,-9.206 -6.102,-14.732c0,-5.066 0,-11.541 0,-17.074c0,-7.318 -3.839,-14.1 -10.114,-17.865c-1.853,-1.111 -3.719,-2.231 -5.362,-3.217c-3.324,-1.994 -5.357,-5.585 -5.357,-9.461c-0,-0.002 -0,-0.004 -0,-0.006c0,-3.876 2.033,-7.467 5.357,-9.461c1.643,-0.986 3.509,-2.106 5.362,-3.217c6.275,-3.765 10.114,-10.547 10.114,-17.865c0,-5.533 0,-12.008 0,-17.074c0,-5.526 2.195,-10.825 6.102,-14.732c0.099,-0.099 0.198,-0.197 0.296,-0.296c3.907,-3.907 9.206,-6.102 14.732,-6.102c6.604,-0 15.421,-0 20.54,-0Z" style="fill:#fff;"/></svg>