<?xml version="1.0" encoding="UTF-8" standalone="no"?><!DOCTYPE svg PUBLIC "-//W3C//DTD SVG 1.1//EN" "http://www.w3.org/Graphics/SVG/1.1/DTD/svg11.dtd"><svg width="100%" height="100%" viewBox="0 0 25 150" version="1.1" xmlns="http://www.w3.org/2000/svg" xmlns:xlink="http://www.w3.org/1999/xlink" xml:space="preserve" xmlns:serif="http://www.serif.com/" style="fill-rule:evenodd;clip-rule:evenodd;stroke-linejoin:round;stroke-miterlimit:2;"><path d="M-0,4.167c0,-1.105 0.439,-2.165 1.22,-2.947c0.782,-0.781 1.842,-1.22 2.947,-1.22c4.624,0 12.042,0 16.666,0c1.105,-0 2.165,0.439 2.947,1.22c0.781,0.782 1.22,1.842 1.22,2.947c0,21.543 0,120.123 0,141.666c-0,1.105 -0.439,2.165 -1.22,2.947c-0.782,0.781 -1.842,1.22 -2.947,1.22c-4.624,-0 -12.042,-0 -16.666,-0c-1.105,0 -2.165,-0.439 -2.947,-1.22c-0.781,-0.782 -1.22,-1.842 -1.22,-2.947c0,-21.543 0,-120.123 -0,-141.666Z" style="fill:#fff;"/></svg>