<?xml version="1.0" encoding="UTF-8" standalone="no"?><!DOCTYPE svg PUBLIC "-//W3C//DTD SVG 1.1//EN" "http://www.w3.org/Graphics/SVG/1.1/DTD/svg11.dtd"><svg width="100%" height="100%" viewBox="0 0 75 113" version="1.1" xmlns="http://www.w3.org/2000/svg" xmlns:xlink="http://www.w3.org/1999/xlink" xml:space="preserve" xmlns:serif="http://www.serif.com/" style="fill-rule:evenodd;clip-rule:evenodd;stroke-linejoin:round;stroke-miterlimit:2;"><path d="M25,108.333c-0,1.105 0.439,2.165 1.22,2.947c0.782,0.781 1.842,1.22 2.947,1.22c4.624,0 12.042,0 16.666,0c1.105,0 2.165,-0.439 2.947,-1.22c0.781,-0.782 1.22,-1.842 1.22,-2.947c0,-4.624 0,-12.042 -0,-16.666c0,-1.105 -0.439,-2.165 -1.22,-2.947c-0.782,-0.781 -1.842,-1.22 -2.947,-1.22c-4.624,0 -12.042,0 -16.666,0c-1.105,-0 -2.165,0.439 -2.947,1.22c-0.781,0.782 -1.22,1.842 -1.22,2.947l0,16.666Z" style="fill:#fff;"/><path d="M50,70.833c0,1.105 -0.439,2.165 -1.22,2.947c-0.782,0.781 -1.842,1.22 -2.947,1.22c-4.624,0 -12.042,0 -16.666,0c-1.105,0 -2.165,-0.439 -2.947,-1.22c-0.781,-0.782 -1.22,-1.842 -1.22,-2.947c0,-2.216 0,-5.073 0,-7.957c0,-7.891 4.458,-15.105 11.516,-18.634c4.225,-2.113 8.601,-4.3 11.181,-5.59c1.411,-0.706 2.303,-2.149 2.303,-3.727c0,-4.318 0,-13.056 0,-18.258c0,-1.105 -0.439,-2.165 -1.22,-2.947c-0.782,-0.781 -1.842,-1.22 -2.947,-1.22c-4.624,0 -12.042,0 -16.666,0c-1.105,-0 -2.165,0.439 -2.947,1.22c-0.781,0.782 -1.22,1.842 -1.22,2.947c0,4.624 -0,12.042 0,16.666c0,1.105 -0.439,2.165 -1.22,2.947c-0.782,0.781 -1.842,1.22 -2.947,1.22c-4.624,0 -12.042,0 -16.666,0c-1.105,0 -2.165,-0.439 -2.947,-1.22c-0.781,-0.782 -1.22,-1.842 -1.22,-2.947c0,-3.317 0,-8.073 0,-12.204c0,-5.525 2.195,-10.824 6.102,-14.731c0.099,-0.099 0.197,-0.197 0.296,-0.296c3.907,-3.907 9.206,-6.102 14.731,-6.102c9.167,0 23.575,0 32.742,0c5.525,0 10.824,2.195 14.731,6.102c0.099,0.099 0.197,0.197 0.296,0.296c3.907,3.907 6.102,9.206 6.102,14.731c0,1.133 0,2.312 0,3.495c-0,7.891 -4.458,15.105 -11.516,18.634c-0.655,0.327 -1.313,0.657 -1.968,0.984c-7.058,3.529 -11.516,10.743 -11.516,18.634c-0,2.884 -0,5.741 0,7.957Z" style="fill:#fff;"/></svg>