<?xml version="1.0" encoding="UTF-8" standalone="no"?><!DOCTYPE svg PUBLIC "-//W3C//DTD SVG 1.1//EN" "http://www.w3.org/Graphics/SVG/1.1/DTD/svg11.dtd"><svg width="100%" height="100%" viewBox="0 0 38 113" version="1.1" xmlns="http://www.w3.org/2000/svg" xmlns:xlink="http://www.w3.org/1999/xlink" xml:space="preserve" xmlns:serif="http://www.serif.com/" style="fill-rule:evenodd;clip-rule:evenodd;stroke-linejoin:round;stroke-miterlimit:2;"><path id="_-" serif:id=";" d="M4.167,0c-1.105,-0 -2.165,0.439 -2.947,1.22c-0.781,0.782 -1.22,1.842 -1.22,2.947c0,4.624 0,12.042 -0,16.666c-0,1.105 0.439,2.165 1.22,2.947c0.782,0.781 1.842,1.22 2.947,1.22c7.214,0 21.952,0 29.166,0c1.105,0 2.165,-0.439 2.947,-1.22c0.781,-0.782 1.22,-1.842 1.22,-2.947c0,-4.624 0,-12.042 0,-16.666c0,-1.105 -0.439,-2.165 -1.22,-2.947c-0.782,-0.781 -1.842,-1.22 -2.947,-1.22c-7.214,0 -21.952,0 -29.166,0Z" style="fill:#fff;"/><path d="M37.5,91.37c0,5.526 -2.195,10.825 -6.102,14.732c-0.099,0.099 -0.197,0.197 -0.296,0.296c-3.907,3.907 -9.206,6.102 -14.731,6.102c-5.627,0 -12.416,0 -15.146,0c-0.325,-0 -0.637,-0.129 -0.866,-0.359c-0.23,-0.23 -0.359,-0.541 -0.359,-0.866c-0,-1.17 -0,-3.028 -0,-4.9c0,-3.521 2.854,-6.375 6.375,-6.375c0.003,0 0.006,0 0.008,0c1.623,0 3.178,-0.644 4.325,-1.792c1.148,-1.147 1.792,-2.702 1.792,-4.325c-0,-0.089 -0,-0.177 -0,-0.266c0,-1.623 -0.644,-3.178 -1.792,-4.325c-1.147,-1.148 -2.702,-1.792 -4.325,-1.792l-0.008,0c-1.691,-0 -3.312,-0.672 -4.508,-1.867c-1.195,-1.196 -1.867,-2.817 -1.867,-4.508c-0,-4.541 -0,-10.516 -0,-14.458c-0,-1.105 0.439,-2.165 1.22,-2.947c0.782,-0.781 1.842,-1.22 2.947,-1.22c7.214,0 21.952,0 29.166,0c1.105,-0 2.165,0.439 2.947,1.22c0.781,0.782 1.22,1.842 1.22,2.947c0,5.935 0,16.962 0,24.703Z" style="fill:#fff;"/></svg>