<?xml version="1.0" encoding="UTF-8" standalone="no"?><!DOCTYPE svg PUBLIC "-//W3C//DTD SVG 1.1//EN" "http://www.w3.org/Graphics/SVG/1.1/DTD/svg11.dtd"><svg width="100%" height="100%" viewBox="0 0 46 138" version="1.1" xmlns="http://www.w3.org/2000/svg" xmlns:xlink="http://www.w3.org/1999/xlink" xml:space="preserve" xmlns:serif="http://www.serif.com/" style="fill-rule:evenodd;clip-rule:evenodd;stroke-linejoin:round;stroke-miterlimit:2;"><path id="_-" serif:id="{" d="M41.667,0c2.301,-0 4.166,1.865 4.166,4.167c0,1.34 0,2.826 0,4.166c0,2.302 -1.865,4.167 -4.166,4.167c-0.307,0 -0.614,0 -0.914,0c-1.912,0 -3.578,1.301 -4.042,3.156c-2.293,9.17 -8.925,35.699 -11.048,44.194c-0.403,1.609 -1.721,2.826 -3.358,3.099c-1.85,0.309 -4.324,0.721 -6.323,1.054c-2.009,0.335 -3.482,2.073 -3.482,4.11c0,0.422 0,0.852 0,1.274c0,2.037 1.473,3.775 3.482,4.11c1.999,0.333 4.473,0.745 6.323,1.054c1.637,0.273 2.955,1.49 3.358,3.099c2.123,8.495 8.755,35.024 11.048,44.194c0.464,1.855 2.13,3.156 4.042,3.156c0.3,-0 0.607,-0 0.914,-0c2.301,-0 4.166,1.865 4.166,4.167c0,1.34 0,2.826 0,4.166c0,2.302 -1.865,4.167 -4.166,4.167c-3.989,0 -9.918,0 -13.524,0c-1.86,0 -3.495,-1.233 -4.006,-3.022c-2.964,-10.371 -12.676,-44.364 -15.2,-53.198c-0.378,-1.323 -1.384,-2.373 -2.689,-2.808c-0.823,-0.275 -1.754,-0.585 -2.527,-0.843c-1.049,-0.349 -1.915,-1.101 -2.41,-2.089c-0.294,-0.588 -0.618,-1.238 -0.871,-1.744c-0.289,-0.578 -0.44,-1.216 -0.44,-1.863c0,-1.603 -0,-4.763 0,-6.366c0,-0.647 0.151,-1.285 0.44,-1.863c0.253,-0.506 0.577,-1.156 0.871,-1.744c0.495,-0.988 1.361,-1.74 2.41,-2.089c0.773,-0.258 1.704,-0.568 2.527,-0.843c1.305,-0.435 2.311,-1.485 2.689,-2.808c2.524,-8.834 12.236,-42.827 15.2,-53.198c0.511,-1.789 2.146,-3.022 4.006,-3.022c3.606,0 9.535,0 13.524,0Z" style="fill:#fff;"/></svg>