<?xml version="1.0" encoding="UTF-8" standalone="no"?><!DOCTYPE svg PUBLIC "-//W3C//DTD SVG 1.1//EN" "http://www.w3.org/Graphics/SVG/1.1/DTD/svg11.dtd"><svg width="100%" height="100%" viewBox="0 0 46 138" version="1.1" xmlns="http://www.w3.org/2000/svg" xmlns:xlink="http://www.w3.org/1999/xlink" xml:space="preserve" xmlns:serif="http://www.serif.com/" style="fill-rule:evenodd;clip-rule:evenodd;stroke-linejoin:round;stroke-miterlimit:2;"><path id="_-" serif:id="}" d="M4.167,0c-2.301,-0 -4.167,1.865 -4.167,4.167c0,1.34 0,2.826 0,4.166c0,2.302 1.865,4.167 4.167,4.167c0.306,0 0.613,0 0.913,0c1.912,0 3.579,1.301 4.042,3.156c2.293,9.17 8.925,35.699 11.049,44.194c0.402,1.609 1.721,2.826 3.357,3.099c1.851,0.309 4.324,0.721 6.324,1.054c2.009,0.335 3.481,2.073 3.481,4.11c0,0.422 0,0.852 0,1.274c0,2.037 -1.472,3.775 -3.481,4.11c-2,0.333 -4.473,0.745 -6.324,1.054c-1.636,0.273 -2.955,1.49 -3.357,3.099c-2.124,8.495 -8.756,35.024 -11.049,44.194c-0.463,1.855 -2.13,3.156 -4.042,3.156c-0.3,-0 -0.607,-0 -0.913,-0c-2.302,-0 -4.167,1.865 -4.167,4.167c0,1.34 0,2.826 0,4.166c0,2.302 1.866,4.167 4.167,4.167c3.988,0 9.917,0 13.523,0c1.861,0 3.496,-1.233 4.007,-3.022c2.963,-10.371 12.675,-44.364 15.199,-53.198c0.378,-1.323 1.384,-2.373 2.689,-2.808c0.823,-0.275 1.755,-0.585 2.528,-0.843c1.048,-0.349 1.915,-1.101 2.409,-2.089c0.294,-0.588 0.619,-1.238 0.871,-1.744c0.29,-0.578 0.44,-1.216 0.44,-1.863c0,-1.603 0,-4.763 0,-6.366c0,-0.647 -0.15,-1.285 -0.44,-1.863c-0.252,-0.506 -0.577,-1.156 -0.871,-1.744c-0.494,-0.988 -1.361,-1.74 -2.409,-2.089c-0.773,-0.258 -1.705,-0.568 -2.528,-0.843c-1.305,-0.435 -2.311,-1.485 -2.689,-2.808c-2.524,-8.834 -12.236,-42.827 -15.199,-53.198c-0.511,-1.789 -2.146,-3.022 -4.007,-3.022c-3.606,0 -9.535,0 -13.523,0Z" style="fill:#fff;"/></svg>