<?xml version="1.0" encoding="UTF-8" standalone="no"?><!DOCTYPE svg PUBLIC "-//W3C//DTD SVG 1.1//EN" "http://www.w3.org/Graphics/SVG/1.1/DTD/svg11.dtd"><svg width="100%" height="100%" viewBox="0 0 125 39" version="1.1" xmlns="http://www.w3.org/2000/svg" xmlns:xlink="http://www.w3.org/1999/xlink" xml:space="preserve" xmlns:serif="http://www.serif.com/" style="fill-rule:evenodd;clip-rule:evenodd;stroke-linejoin:round;stroke-miterlimit:2;"><path d="M0.068,36.235c0.053,1.291 1.199,2.312 2.595,2.312c3.65,-0 10.365,-0 13.698,-0c1.171,-0 2.198,-0.726 2.506,-1.772c0.513,-1.741 1.353,-4.591 2.283,-7.746c1.208,-4.102 4.372,-7.469 8.593,-9.145c4.222,-1.676 9.038,-1.478 13.082,0.537c7.92,3.947 17.894,8.918 28.19,14.049c11.57,5.766 25.592,5.352 36.742,-1.083c11.15,-6.436 17.72,-17.908 17.216,-30.061c-0.015,-0.365 -0.029,-0.704 -0.042,-1.014c-0.054,-1.291 -1.2,-2.312 -2.596,-2.312c-3.65,0 -10.365,0 -13.697,0c-1.172,-0 -2.198,0.726 -2.506,1.771c-0.514,1.744 -1.355,4.599 -2.287,7.759c-1.208,4.1 -4.37,7.466 -8.589,9.143c-4.218,1.677 -9.033,1.481 -13.077,-0.531c-7.926,-3.943 -17.911,-8.91 -28.217,-14.038c-11.571,-5.756 -25.587,-5.336 -36.731,1.102c-11.144,6.437 -17.709,17.906 -17.204,30.055c0.015,0.35 0.028,0.675 0.041,0.974Z" style="fill:#fff;"/></svg>