<?xml version="1.0" encoding="UTF-8" standalone="no"?><!DOCTYPE svg PUBLIC "-//W3C//DTD SVG 1.1//EN" "http://www.w3.org/Graphics/SVG/1.1/DTD/svg11.dtd"><svg width="100%" height="100%" viewBox="0 0 100 38" version="1.1" xmlns="http://www.w3.org/2000/svg" xmlns:xlink="http://www.w3.org/1999/xlink" xml:space="preserve" xmlns:serif="http://www.serif.com/" style="fill-rule:evenodd;clip-rule:evenodd;stroke-linejoin:round;stroke-miterlimit:2;"><path d="M0,33.333c-0,2.301 1.865,4.167 4.167,4.167c1.34,0 2.826,0 4.166,0c2.302,-0 4.167,-1.866 4.167,-4.167c0,-4.624 0,-12.042 0,-16.666c-0,-1.105 0.439,-2.165 1.22,-2.947c0.782,-0.781 1.842,-1.22 2.947,-1.22c6.404,0 18.596,0 25,0c1.105,0 2.165,0.439 2.946,1.22c0.781,0.782 1.22,1.842 1.22,2.947c0,11.506 9.328,20.833 20.834,20.833c4.302,0 8.602,0 12.163,0c5.503,-0 10.783,-2.177 14.686,-6.056c0.112,-0.111 0.224,-0.223 0.336,-0.334c3.935,-3.911 6.148,-9.23 6.148,-14.778c0,-4.121 0,-8.858 0,-12.165c0,-2.301 -1.865,-4.167 -4.167,-4.167c-1.34,0 -2.826,0 -4.166,0c-2.302,0 -4.167,1.866 -4.167,4.167c0,4.624 0,12.042 -0,16.666c0,1.105 -0.439,2.165 -1.22,2.947c-0.782,0.781 -1.842,1.22 -2.947,1.22c-5.544,0 -15.289,0 -20.833,0c-1.105,0 -2.165,-0.439 -2.946,-1.22c-0.782,-0.782 -1.221,-1.842 -1.221,-2.947c0,-2.312 0,-5.322 0,-8.333c0,-6.904 -5.596,-12.5 -12.5,-12.5l-24.704,0c-5.525,-0 -10.824,2.195 -14.731,6.102c-0.099,0.099 -0.197,0.197 -0.296,0.296c-3.907,3.907 -6.102,9.206 -6.102,14.731c0,4.131 0,8.887 0,12.204Z" style="fill:#fff;"/></svg>