<?xml version="1.0" encoding="UTF-8" standalone="no"?><!DOCTYPE svg PUBLIC "-//W3C//DTD SVG 1.1//EN" "http://www.w3.org/Graphics/SVG/1.1/DTD/svg11.dtd"><svg width="100%" height="100%" viewBox="0 0 75 113" version="1.1" xmlns="http://www.w3.org/2000/svg" xmlns:xlink="http://www.w3.org/1999/xlink" xml:space="preserve" xmlns:serif="http://www.serif.com/" style="fill-rule:evenodd;clip-rule:evenodd;stroke-linejoin:round;stroke-miterlimit:2;"><path d="M4.167,112.5c-2.302,0 -4.167,-1.865 -4.167,-4.167c0,-17.69 0,-86.476 0,-104.166c0,-2.302 1.865,-4.167 4.167,-4.167c10.104,0 36.081,0 49.704,0c5.525,0 10.824,2.195 14.731,6.102c0.099,0.099 0.197,0.197 0.296,0.296c3.907,3.907 6.102,9.206 6.102,14.732c-0,8.28 -0,20.32 0,25.867c0,1.793 -1.148,3.386 -2.849,3.953c-2.346,0.782 -5.61,1.87 -7.677,2.559c-1.179,0.393 -1.974,1.496 -1.974,2.739c-0,0.001 -0,0.003 -0,0.004c-0,1.243 0.795,2.346 1.974,2.739c2.067,0.689 5.331,1.777 7.677,2.559c1.701,0.567 2.849,2.16 2.849,3.953c-0,5.547 -0,17.587 -0,25.867c0,5.526 -2.195,10.825 -6.102,14.732c-0.099,0.099 -0.197,0.197 -0.296,0.296c-3.907,3.907 -9.206,6.102 -14.731,6.102c-13.623,0 -39.6,0 -49.704,0Zm20.833,-16.667c-0,1.105 0.439,2.165 1.22,2.947c0.782,0.781 1.842,1.22 2.947,1.22c4.624,0 12.042,0 16.666,0c1.105,0 2.165,-0.439 2.947,-1.22c0.781,-0.782 1.22,-1.842 1.22,-2.947c0,-7.214 0,-21.952 -0,-29.166c0,-1.105 -0.439,-2.165 -1.22,-2.947c-0.782,-0.781 -1.842,-1.22 -2.947,-1.22c-4.624,0 -12.042,0 -16.666,0c-1.105,-0 -2.165,0.439 -2.947,1.22c-0.781,0.782 -1.22,1.842 -1.22,2.947c0,7.214 0,21.952 -0,29.166Zm-0,-50c-0,1.105 0.439,2.165 1.22,2.947c0.782,0.781 1.842,1.22 2.947,1.22c4.624,0 12.042,0 16.666,0c1.105,0 2.165,-0.439 2.947,-1.22c0.781,-0.782 1.22,-1.842 1.22,-2.947c0,-7.214 0,-21.952 -0,-29.166c0,-1.105 -0.439,-2.165 -1.22,-2.947c-0.782,-0.781 -1.842,-1.22 -2.947,-1.22c-4.624,0 -12.042,0 -16.666,0c-1.105,-0 -2.165,0.439 -2.947,1.22c-0.781,0.782 -1.22,1.842 -1.22,2.947c0,7.214 0,21.952 -0,29.166Z" style="fill:#fff;"/></svg>