<?xml version="1.0" encoding="UTF-8" standalone="no"?><!DOCTYPE svg PUBLIC "-//W3C//DTD SVG 1.1//EN" "http://www.w3.org/Graphics/SVG/1.1/DTD/svg11.dtd"><svg width="100%" height="100%" viewBox="0 0 77 113" version="1.1" xmlns="http://www.w3.org/2000/svg" xmlns:xlink="http://www.w3.org/1999/xlink" xml:space="preserve" xmlns:serif="http://www.serif.com/" style="fill-rule:evenodd;clip-rule:evenodd;stroke-linejoin:round;stroke-miterlimit:2;"><path d="M6.137,6.279c3.92,-4.015 9.294,-6.279 14.906,-6.279c9.644,0 25.037,0 34.622,0c5.526,0 10.825,2.195 14.732,6.102c0.12,0.12 0.239,0.24 0.359,0.359c3.907,3.907 6.102,9.206 6.102,14.732c0,5.106 0,11.168 0,14.287c0,1.15 -0.933,2.083 -2.083,2.083c-4.076,0 -13.175,0 -18.533,0c-1.105,0 -2.165,-0.439 -2.946,-1.22c-0.782,-0.782 -1.221,-1.841 -1.221,-2.946c0,-4.625 0,-12.043 0,-16.667c0,-1.105 -0.439,-2.165 -1.22,-2.946c-0.781,-0.782 -1.841,-1.221 -2.946,-1.221c-5.12,0 -13.754,0 -18.874,0c-1.105,0 -2.164,0.439 -2.946,1.221c-0.781,0.781 -1.22,1.841 -1.22,2.946c-0,14.728 -0,64.238 -0,78.966c-0,1.105 0.439,2.165 1.22,2.946c0.782,0.782 1.841,1.221 2.946,1.221c5.12,-0 13.754,-0 18.874,-0c1.105,-0 2.165,-0.439 2.946,-1.221c0.781,-0.781 1.22,-1.841 1.22,-2.946c0,-4.578 0,-11.888 0,-16.466c0,-1.105 0.439,-2.165 1.221,-2.946c0.781,-0.782 1.841,-1.221 2.946,-1.221c5.358,0 14.457,0 18.533,0c1.15,0 2.083,0.933 2.083,2.084c0,3.084 0,9.045 0,14.086c0,5.526 -2.195,10.825 -6.102,14.732c-0.088,0.088 -0.176,0.176 -0.264,0.264c-3.907,3.907 -9.206,6.102 -14.731,6.102c-9.656,-0 -25.208,-0 -34.864,-0c-5.526,-0 -10.825,-2.195 -14.732,-6.102c-0.021,-0.022 -0.042,-0.043 -0.063,-0.064c-3.907,-3.907 -6.102,-9.206 -6.102,-14.731c0,-16.799 0,-53.704 -0,-70.386c-0,-5.44 2.127,-10.663 5.927,-14.555c0.07,-0.072 0.14,-0.143 0.21,-0.214Z" style="fill:#fff;"/></svg>