<?xml version="1.0" encoding="UTF-8" standalone="no"?><!DOCTYPE svg PUBLIC "-//W3C//DTD SVG 1.1//EN" "http://www.w3.org/Graphics/SVG/1.1/DTD/svg11.dtd"><svg width="100%" height="100%" viewBox="0 0 76 113" version="1.1" xmlns="http://www.w3.org/2000/svg" xmlns:xlink="http://www.w3.org/1999/xlink" xml:space="preserve" xmlns:serif="http://www.serif.com/" style="fill-rule:evenodd;clip-rule:evenodd;stroke-linejoin:round;stroke-miterlimit:2;"><path d="M4.238,112.55c-1.107,0.004 -2.169,-0.433 -2.954,-1.215c-0.784,-0.781 -1.225,-1.842 -1.225,-2.949c-0.01,-17.708 -0.047,-86.473 -0.057,-104.157c-0.001,-2.301 1.863,-4.167 4.163,-4.169c13.135,-0.011 53.585,-0.045 66.726,-0.056c1.105,-0.001 2.166,0.437 2.948,1.219c0.782,0.781 1.222,1.841 1.222,2.947c-0,1.359 -0,2.868 -0,4.227c-0,1.105 -0.439,2.164 -1.22,2.946c-0.782,0.781 -1.842,1.22 -2.947,1.22c-9.416,0 -32.25,0 -41.666,0c-1.105,0 -2.165,0.439 -2.947,1.221c-0.781,0.781 -1.22,1.841 -1.22,2.946c-0,7.215 -0,21.952 -0,29.167c-0,1.105 0.439,2.164 1.22,2.946c0.782,0.781 1.842,1.22 2.947,1.22l29.166,0c2.301,0 4.167,1.866 4.167,4.167c-0,1.341 -0,2.826 -0,4.167c-0,2.301 -1.866,4.166 -4.167,4.166c-7.215,0 -21.952,0 -29.166,0c-1.105,0 -2.165,0.439 -2.947,1.221c-0.781,0.781 -1.22,1.841 -1.22,2.946l-0,29.167c-0,1.105 0.439,2.164 1.22,2.946c0.782,0.781 1.842,1.22 2.947,1.22c9.416,0 32.25,0 41.666,0c1.105,0 2.165,0.439 2.947,1.221c0.781,0.781 1.22,1.841 1.22,2.946c-0,1.274 -0,2.674 -0,3.947c-0,2.296 -1.858,4.159 -4.154,4.166c-13.111,0.041 -53.525,0.166 -66.669,0.207Z" style="fill:#fff;"/></svg>