<?xml version="1.0" encoding="UTF-8" standalone="no"?><!DOCTYPE svg PUBLIC "-//W3C//DTD SVG 1.1//EN" "http://www.w3.org/Graphics/SVG/1.1/DTD/svg11.dtd"><svg width="100%" height="100%" viewBox="0 0 75 113" version="1.1" xmlns="http://www.w3.org/2000/svg" xmlns:xlink="http://www.w3.org/1999/xlink" xml:space="preserve" xmlns:serif="http://www.serif.com/" style="fill-rule:evenodd;clip-rule:evenodd;stroke-linejoin:round;stroke-miterlimit:2;"><path d="M4.163,0.06c-2.3,0.002 -4.163,1.867 -4.163,4.167c0,17.659 0.002,86.272 0.002,103.937c0,2.301 1.866,4.167 4.167,4.167c4.623,-0 12.041,-0 16.664,-0c2.301,-0 4.167,-1.866 4.167,-4.167c0,-9.409 0,-32.207 0,-41.527c0,-2.265 1.809,-4.115 4.073,-4.166c7.211,-0.163 22.143,-0.5 29.354,-0.663c2.264,-0.051 4.073,-1.901 4.073,-4.165c0,-1.105 0,-2.303 0,-3.413c-0,-2.301 -1.866,-4.167 -4.167,-4.167c-7.214,0 -21.952,0 -29.166,0c-1.105,0 -2.165,-0.439 -2.947,-1.22c-0.781,-0.782 -1.22,-1.841 -1.22,-2.946l0,-29.167c-0,-1.105 0.439,-2.165 1.22,-2.946c0.782,-0.782 1.842,-1.221 2.947,-1.221c9.416,0 32.25,0 41.666,0c1.105,0 2.165,-0.439 2.947,-1.22c0.781,-0.782 1.22,-1.841 1.22,-2.946c0,-1.359 0,-2.868 0,-4.227c-0,-1.106 -0.439,-2.166 -1.222,-2.947c-0.782,-0.782 -1.843,-1.22 -2.948,-1.219c-13.133,0.011 -53.543,0.045 -66.667,0.056Z" style="fill:#fff;"/></svg>