<?xml version="1.0" encoding="UTF-8" standalone="no"?><!DOCTYPE svg PUBLIC "-//W3C//DTD SVG 1.1//EN" "http://www.w3.org/Graphics/SVG/1.1/DTD/svg11.dtd"><svg width="100%" height="100%" viewBox="0 0 75 113" version="1.1" xmlns="http://www.w3.org/2000/svg" xmlns:xlink="http://www.w3.org/1999/xlink" xml:space="preserve" xmlns:serif="http://www.serif.com/" style="fill-rule:evenodd;clip-rule:evenodd;stroke-linejoin:round;stroke-miterlimit:2;"><path d="M0,4.167c-0,-1.105 0.439,-2.165 1.22,-2.947c0.782,-0.781 1.842,-1.22 2.947,-1.22c4.624,0 12.042,0 16.666,0c1.105,-0 2.165,0.439 2.947,1.22c0.781,0.782 1.22,1.842 1.22,2.947c0,16.264 0,75.382 -0,91.647c-0,1.105 0.439,2.165 1.22,2.946c0.782,0.782 1.842,1.221 2.947,1.221c9.416,-0 32.25,-0 41.666,-0c2.301,-0.001 4.167,1.865 4.167,4.166c-0,1.334 -0,2.81 -0,4.146c-0,1.108 -0.442,2.171 -1.228,2.953c-0.786,0.782 -1.851,1.219 -2.96,1.213c-13.158,-0.067 -53.568,-0.273 -66.667,-0.34c-2.292,-0.011 -4.145,-1.873 -4.145,-4.166c-0,-17.612 -0,-86.134 -0,-103.786Z" style="fill:#fff;"/></svg>