<?xml version="1.0" encoding="UTF-8" standalone="no"?><!DOCTYPE svg PUBLIC "-//W3C//DTD SVG 1.1//EN" "http://www.w3.org/Graphics/SVG/1.1/DTD/svg11.dtd"><svg width="100%" height="100%" viewBox="0 0 88 113" version="1.1" xmlns="http://www.w3.org/2000/svg" xmlns:xlink="http://www.w3.org/1999/xlink" xml:space="preserve" xmlns:serif="http://www.serif.com/" style="fill-rule:evenodd;clip-rule:evenodd;stroke-linejoin:round;stroke-miterlimit:2;"><path d="M-0,4.17c0,-1.106 0.439,-2.166 1.222,-2.948c0.782,-0.781 1.842,-1.22 2.948,-1.219c4.625,0.004 12.044,0.01 16.667,0.013c2.3,0.002 4.163,1.867 4.163,4.167c-0,0.445 -0,0.906 -0,1.373c0,4.507 1.462,8.893 4.167,12.5c3.389,4.518 8.108,10.81 11.25,15c0.787,1.049 2.022,1.666 3.333,1.666c1.311,0 2.546,-0.617 3.333,-1.666c3.142,-4.19 7.861,-10.482 11.25,-15c2.705,-3.607 4.167,-7.993 4.167,-12.501c0,-0.47 0,-0.936 0,-1.385c0,-1.106 0.439,-2.166 1.222,-2.948c0.782,-0.781 1.842,-1.22 2.948,-1.219c4.625,0.004 12.044,0.01 16.667,0.013c2.3,0.002 4.163,1.867 4.163,4.167c0,17.683 -0,86.461 0,104.15c-0,1.105 -0.439,2.165 -1.22,2.947c-0.782,0.781 -1.842,1.22 -2.947,1.22c-4.624,0 -12.042,0 -16.666,0c-1.105,0 -2.165,-0.439 -2.947,-1.22c-0.781,-0.782 -1.22,-1.842 -1.22,-2.947c0,-11.167 -0,-42.255 0,-61.987c-0,-2.139 -1.427,-4.015 -3.488,-4.586c-2.061,-0.571 -4.25,0.304 -5.351,2.138c-0,0 -0,0.001 -0.001,0.002c-2.395,3.991 -3.66,8.559 -3.66,13.214c0,4.434 0,9.987 0,13.719c0,2.301 -1.865,4.167 -4.167,4.167c-1.34,0 -2.826,0 -4.166,0c-2.302,-0 -4.167,-1.866 -4.167,-4.167c0,-3.732 0,-9.285 0,-13.719c0,-4.655 -1.265,-9.223 -3.66,-13.214c-0.001,-0.001 -0.001,-0.002 -0.001,-0.002c-1.101,-1.834 -3.29,-2.709 -5.351,-2.138c-2.061,0.571 -3.488,2.447 -3.488,4.586c-0,19.726 -0,50.802 -0,61.966c0,1.105 -0.439,2.165 -1.22,2.946c-0.782,0.782 -1.842,1.221 -2.947,1.221c-4.624,-0 -12.042,-0 -16.666,-0c-1.105,-0 -2.165,-0.439 -2.947,-1.221c-0.781,-0.781 -1.22,-1.841 -1.22,-2.946c-0,-17.687 -0,-86.449 -0,-104.142Z" style="fill:#fff;"/></svg>