<?xml version="1.0" encoding="UTF-8" standalone="no"?><!DOCTYPE svg PUBLIC "-//W3C//DTD SVG 1.1//EN" "http://www.w3.org/Graphics/SVG/1.1/DTD/svg11.dtd"><svg width="100%" height="100%" viewBox="0 0 88 113" version="1.1" xmlns="http://www.w3.org/2000/svg" xmlns:xlink="http://www.w3.org/1999/xlink" xml:space="preserve" xmlns:serif="http://www.serif.com/" style="fill-rule:evenodd;clip-rule:evenodd;stroke-linejoin:round;stroke-miterlimit:2;"><path d="M4.167,112.459c-1.105,0 -2.165,-0.439 -2.947,-1.22c-0.781,-0.782 -1.22,-1.841 -1.22,-2.947c0,-17.685 0,-86.44 0,-104.125c-0,-1.105 0.439,-2.165 1.22,-2.947c0.782,-0.781 1.842,-1.22 2.947,-1.22c5.202,0 13.94,0 18.258,0c1.578,-0 3.021,0.891 3.727,2.303c4.886,9.77 24.036,48.059 32.401,64.786c0.433,0.864 1.402,1.318 2.342,1.096c0.941,-0.222 1.605,-1.061 1.605,-2.028c0,-16.213 0,-50.166 0,-61.99c-0,-1.105 0.439,-2.165 1.22,-2.947c0.782,-0.781 1.842,-1.22 2.947,-1.22c4.624,0 12.042,0 16.666,0c1.105,-0 2.165,0.439 2.947,1.22c0.781,0.782 1.22,1.842 1.22,2.947c0,17.686 0,86.449 0,104.129c0,2.3 -1.863,4.165 -4.163,4.167c-5.201,0.004 -13.939,0.012 -18.259,0.015c-1.58,0.002 -3.024,-0.89 -3.731,-2.303c-4.888,-9.776 -24.035,-48.071 -32.4,-64.801c-0.432,-0.864 -1.402,-1.318 -2.342,-1.096c-0.941,0.222 -1.605,1.061 -1.605,2.028c0,16.213 0,50.163 0,61.987c-0,1.105 -0.439,2.164 -1.22,2.946c-0.782,0.781 -1.842,1.22 -2.947,1.22c-4.624,0 -12.042,0 -16.666,0Z" style="fill:#fff;"/></svg>