<?xml version="1.0" encoding="UTF-8" standalone="no"?><!DOCTYPE svg PUBLIC "-//W3C//DTD SVG 1.1//EN" "http://www.w3.org/Graphics/SVG/1.1/DTD/svg11.dtd"><svg width="100%" height="100%" viewBox="0 0 75 113" version="1.1" xmlns="http://www.w3.org/2000/svg" xmlns:xlink="http://www.w3.org/1999/xlink" xml:space="preserve" xmlns:serif="http://www.serif.com/" style="fill-rule:evenodd;clip-rule:evenodd;stroke-linejoin:round;stroke-miterlimit:2;"><path d="M0,23.26c0,-4.619 1.535,-9.108 4.364,-12.759c0.606,-0.782 1.237,-1.597 1.869,-2.412c3.953,-5.102 10.046,-8.083 16.499,-8.074c8.583,0.012 20.785,0.03 29.405,0.043c6.527,0.009 12.673,3.077 16.603,8.289c0.578,0.766 1.154,1.53 1.706,2.263c2.705,3.586 4.178,7.951 4.2,12.443c0.073,15.089 0.245,50.829 0.319,66.178c0.023,4.669 -1.524,9.211 -4.392,12.896c-0.589,0.757 -1.201,1.543 -1.813,2.33c-3.95,5.075 -10.021,8.041 -16.452,8.038c-8.649,-0.004 -20.996,-0.011 -29.639,-0.015c-6.418,-0.003 -12.475,-2.964 -16.421,-8.025c-0.623,-0.8 -1.247,-1.6 -1.846,-2.369c-2.853,-3.66 -4.402,-8.167 -4.402,-12.808c0,-15.253 0,-50.796 0,-66.018Zm25,-2.959c-0,-1.106 0.439,-2.165 1.22,-2.947c0.782,-0.781 1.842,-1.22 2.947,-1.22c4.624,-0 12.042,-0 16.666,-0c1.105,-0 2.165,0.439 2.947,1.22c0.781,0.782 1.22,1.841 1.22,2.947c0,13.833 0,58.138 0,71.971c0,1.105 -0.439,2.165 -1.22,2.947c-0.782,0.781 -1.842,1.22 -2.947,1.22c-4.624,-0 -12.042,-0 -16.666,-0c-1.105,-0 -2.165,-0.439 -2.947,-1.22c-0.781,-0.782 -1.22,-1.842 -1.22,-2.947c0,-13.833 0,-58.138 0,-71.971Z" style="fill:#fff;"/></svg>