<?xml version="1.0" encoding="UTF-8" standalone="no"?><!DOCTYPE svg PUBLIC "-//W3C//DTD SVG 1.1//EN" "http://www.w3.org/Graphics/SVG/1.1/DTD/svg11.dtd"><svg width="100%" height="100%" viewBox="0 0 75 113" version="1.1" xmlns="http://www.w3.org/2000/svg" xmlns:xlink="http://www.w3.org/1999/xlink" xml:space="preserve" xmlns:serif="http://www.serif.com/" style="fill-rule:evenodd;clip-rule:evenodd;stroke-linejoin:round;stroke-miterlimit:2;"><path d="M0,108.411c0,2.301 1.866,4.167 4.167,4.167c4.624,-0 12.042,-0 16.666,-0c1.105,-0 2.165,-0.439 2.947,-1.221c0.781,-0.781 1.22,-1.841 1.22,-2.946c0,-9.432 0,-32.331 0,-41.764c0,-2.301 1.866,-4.167 4.167,-4.166c5.938,-0 16.972,-0 24.713,-0c5.52,-0 10.814,-2.191 14.72,-6.091c0.095,-0.095 0.191,-0.191 0.287,-0.286c3.914,-3.908 6.113,-9.212 6.113,-14.743c0,-6.072 0,-14.162 0,-20.231c0,-5.526 -2.195,-10.825 -6.102,-14.732c-0.099,-0.099 -0.197,-0.197 -0.296,-0.296c-3.907,-3.907 -9.206,-6.102 -14.731,-6.102c-13.623,0 -39.6,0 -49.704,0c-2.301,-0 -4.167,1.865 -4.167,4.167c0,17.698 0,86.545 0,104.244Zm25,-91.744c-0,-1.105 0.439,-2.165 1.22,-2.947c0.782,-0.781 1.842,-1.22 2.947,-1.22c4.624,0 12.042,0 16.666,0c1.105,-0 2.165,0.439 2.947,1.22c0.781,0.782 1.22,1.842 1.22,2.947c0,7.214 0,21.952 0,29.166c0,1.105 -0.439,2.165 -1.22,2.947c-0.782,0.781 -1.842,1.22 -2.947,1.22c-4.624,-0 -12.042,-0 -16.666,-0c-1.105,0 -2.165,-0.439 -2.947,-1.22c-0.781,-0.782 -1.22,-1.842 -1.22,-2.947c0,-7.214 0,-21.952 0,-29.166Z" style="fill:#fff;"/></svg>