<?xml version="1.0" encoding="UTF-8" standalone="no"?><!DOCTYPE svg PUBLIC "-//W3C//DTD SVG 1.1//EN" "http://www.w3.org/Graphics/SVG/1.1/DTD/svg11.dtd"><svg width="100%" height="100%" viewBox="0 0 75 113" version="1.1" xmlns="http://www.w3.org/2000/svg" xmlns:xlink="http://www.w3.org/1999/xlink" xml:space="preserve" xmlns:serif="http://www.serif.com/" style="fill-rule:evenodd;clip-rule:evenodd;stroke-linejoin:round;stroke-miterlimit:2;"><path d="M4.2,112.481c-2.301,-0.001 -4.166,-1.865 -4.167,-4.166c-0.005,-17.685 -0.026,-86.457 -0.032,-104.147c-0,-1.105 0.439,-2.165 1.22,-2.947c0.782,-0.782 1.842,-1.221 2.947,-1.221c10.108,-0 36.093,-0 49.712,-0c5.52,-0 10.814,2.19 14.72,6.09c0.095,0.096 0.191,0.191 0.287,0.287c3.914,3.908 6.113,9.212 6.113,14.743c-0,8.689 -0,21.511 -0,26.63c0,1.394 -0.696,2.695 -1.855,3.467c-2.321,1.548 -6.278,4.185 -8.658,5.772c-1.241,0.828 -1.987,2.221 -1.987,3.713c-0,1.169 -0,2.568 -0,3.715c-0,1.393 0.696,2.694 1.855,3.467c2.364,1.576 6.426,4.284 8.79,5.86c1.159,0.772 1.855,2.073 1.855,3.466c-0,6.114 -0,23.216 -0,31.184c0,1.108 -0.441,2.17 -1.226,2.952c-0.785,0.782 -1.85,1.219 -2.958,1.215c-4.631,-0.019 -12.049,-0.05 -16.666,-0.069c-2.295,-0.009 -4.15,-1.872 -4.15,-4.166c-0,-7.789 -0,-24.387 -0,-30.77c0,-1.579 -0.892,-3.021 -2.303,-3.727c-3.753,-1.877 -11.306,-5.653 -16.667,-8.333c-1.292,-0.646 -2.825,-0.577 -4.054,0.182c-1.228,0.759 -1.976,2.1 -1.976,3.544c-0,10.5 -0,30.448 -0,39.092c0,1.105 -0.439,2.165 -1.22,2.946c-0.782,0.782 -1.842,1.22 -2.947,1.221c-4.616,-0 -12.017,-0 -16.633,-0Zm24.967,-62.5c-1.105,-0 -2.165,-0.439 -2.947,-1.221c-0.781,-0.781 -1.22,-1.841 -1.22,-2.946c-0,-7.215 -0,-21.952 -0,-29.167c-0,-1.105 0.439,-2.165 1.22,-2.946c0.782,-0.782 1.842,-1.221 2.947,-1.22c4.624,-0 12.042,-0 16.666,-0c1.105,-0.001 2.165,0.438 2.947,1.22c0.781,0.781 1.22,1.841 1.22,2.946c-0,7.215 -0,21.952 -0,29.167c0,1.105 -0.439,2.165 -1.22,2.946c-0.782,0.782 -1.842,1.221 -2.947,1.221c-4.624,-0 -12.042,-0 -16.666,-0Z" style="fill:#fff;"/></svg>