<?xml version="1.0" encoding="UTF-8" standalone="no"?><!DOCTYPE svg PUBLIC "-//W3C//DTD SVG 1.1//EN" "http://www.w3.org/Graphics/SVG/1.1/DTD/svg11.dtd"><svg width="100%" height="100%" viewBox="0 0 75 113" version="1.1" xmlns="http://www.w3.org/2000/svg" xmlns:xlink="http://www.w3.org/1999/xlink" xml:space="preserve" xmlns:serif="http://www.serif.com/" style="fill-rule:evenodd;clip-rule:evenodd;stroke-linejoin:round;stroke-miterlimit:2;"><path d="M24.988,108.327c0,1.105 0.439,2.165 1.221,2.946c0.781,0.782 1.841,1.221 2.946,1.221c4.624,-0 12.043,-0 16.667,-0c1.105,-0 2.165,-0.439 2.946,-1.221c0.781,-0.781 1.22,-1.841 1.22,-2.946c0,-16.266 0,-75.395 0,-91.661c0,-1.105 0.439,-2.165 1.221,-2.947c0.781,-0.781 1.841,-1.22 2.946,-1.22c4.624,-0 12.043,-0 16.667,-0c2.301,-0 4.166,-1.866 4.166,-4.167c0,-1.34 0,-2.825 0,-4.165c0,-1.106 -0.439,-2.166 -1.22,-2.947c-0.782,-0.781 -1.842,-1.22 -2.947,-1.22c-13.126,0.003 -53.516,0.014 -66.655,0.017c-1.107,0.001 -2.169,0.441 -2.95,1.225c-0.782,0.784 -1.219,1.847 -1.216,2.953c0.004,1.336 0.008,2.814 0.012,4.149c0.006,2.296 1.869,4.155 4.166,4.155c4.616,-0 12.024,-0 16.644,-0c2.301,-0 4.166,1.865 4.166,4.167c0,16.266 0,75.395 0,91.661Z" style="fill:#fff;"/></svg>