<?xml version="1.0" encoding="UTF-8" standalone="no"?><!DOCTYPE svg PUBLIC "-//W3C//DTD SVG 1.1//EN" "http://www.w3.org/Graphics/SVG/1.1/DTD/svg11.dtd"><svg width="100%" height="100%" viewBox="0 0 75 113" version="1.1" xmlns="http://www.w3.org/2000/svg" xmlns:xlink="http://www.w3.org/1999/xlink" xml:space="preserve" xmlns:serif="http://www.serif.com/" style="fill-rule:evenodd;clip-rule:evenodd;stroke-linejoin:round;stroke-miterlimit:2;"><path d="M0,4.167c-0,-1.105 0.439,-2.165 1.22,-2.947c0.782,-0.781 1.842,-1.22 2.947,-1.22c4.624,0 12.042,0 16.666,0c1.105,-0 2.165,0.439 2.947,1.22c0.781,0.782 1.22,1.842 1.22,2.947c0,9.416 0,32.25 0,41.666c-0,1.105 0.439,2.165 1.22,2.947c0.782,0.781 1.842,1.22 2.947,1.22c4.624,-0 12.042,-0 16.666,-0c2.301,0 4.167,-1.865 4.167,-4.167c-0,-9.416 0,-32.248 -0,-41.664c-0,-2.3 1.865,-4.166 4.166,-4.166c4.624,-0.001 12.042,-0.002 16.667,-0.002c1.105,-0.001 2.165,0.438 2.946,1.22c0.782,0.781 1.221,1.841 1.221,2.946c0,10.002 -0,35.135 -0,43.258c-0,1.578 -0.892,3.021 -2.303,3.727c-4.76,2.38 -15.634,7.816 -20.394,10.196c-1.411,0.706 -2.303,2.149 -2.303,3.727c0,8.133 0,33.322 0,43.355c0,1.108 -0.442,2.171 -1.227,2.953c-0.786,0.782 -1.851,1.219 -2.959,1.214c-4.632,-0.022 -12.05,-0.056 -16.667,-0.078c-2.293,-0.01 -4.147,-1.873 -4.147,-4.166c0,-9.988 0,-35.15 0,-43.278c-0,-1.578 -0.892,-3.021 -2.303,-3.727c-4.76,-2.38 -15.634,-7.816 -20.394,-10.196c-1.411,-0.706 -2.303,-2.149 -2.303,-3.727c0,-8.123 0,-33.257 0,-43.258Z" style="fill:#fff;"/></svg>