<?xml version="1.0" encoding="UTF-8" standalone="no"?><!DOCTYPE svg PUBLIC "-//W3C//DTD SVG 1.1//EN" "http://www.w3.org/Graphics/SVG/1.1/DTD/svg11.dtd"><svg width="100%" height="100%" viewBox="0 0 76 113" version="1.1" xmlns="http://www.w3.org/2000/svg" xmlns:xlink="http://www.w3.org/1999/xlink" xml:space="preserve" xmlns:serif="http://www.serif.com/" style="fill-rule:evenodd;clip-rule:evenodd;stroke-linejoin:round;stroke-miterlimit:2;"><path d="M0.606,94.844c-0.389,0.647 -0.594,1.388 -0.594,2.143c0,2.307 0,7.588 0,11.346c0,1.105 0.439,2.165 1.221,2.947c0.781,0.781 1.841,1.22 2.946,1.22c13.128,-0 53.538,-0 66.667,-0c1.105,0 2.164,-0.439 2.946,-1.22c0.781,-0.782 1.22,-1.842 1.22,-2.947c0,-1.34 0,-2.826 0,-4.166c0,-2.302 -1.865,-4.167 -4.166,-4.167c-9.584,-0 -33.064,-0 -42.155,-0c-0.75,-0 -1.443,-0.404 -1.813,-1.057c-0.369,-0.653 -0.359,-1.454 0.027,-2.098c8.455,-14.096 42.576,-70.978 47.501,-79.189c0.389,-0.647 0.594,-1.388 0.594,-2.143c-0,-2.302 -0,-7.565 0,-11.321c-0,-1.11 -0.442,-2.173 -1.229,-2.955c-0.787,-0.783 -1.853,-1.219 -2.963,-1.212c-13.162,0.079 -53.573,0.32 -66.666,0.398c-2.292,0.014 -4.142,1.876 -4.142,4.167c-0,1.21 0,2.532 0,3.743c0,1.105 0.439,2.165 1.22,2.947c0.782,0.781 1.842,1.22 2.947,1.22c9.583,-0 33.063,-0 42.154,-0c0.75,0 1.443,0.404 1.813,1.057c0.37,0.653 0.36,1.454 -0.027,2.098c-8.455,14.096 -42.576,70.978 -47.501,79.189Z" style="fill:#fff;"/></svg>