<?xml version="1.0" encoding="UTF-8" standalone="no"?><!DOCTYPE svg PUBLIC "-//W3C//DTD SVG 1.1//EN" "http://www.w3.org/Graphics/SVG/1.1/DTD/svg11.dtd"><svg width="100%" height="100%" viewBox="0 0 75 113" version="1.1" xmlns="http://www.w3.org/2000/svg" xmlns:xlink="http://www.w3.org/1999/xlink" xml:space="preserve" xmlns:serif="http://www.serif.com/" style="fill-rule:evenodd;clip-rule:evenodd;stroke-linejoin:round;stroke-miterlimit:2;"><path d="M4.146,112.29c-2.293,-0.012 -4.145,-1.875 -4.144,-4.169c0.01,-17.631 0.049,-86.289 0.059,-103.957c0.001,-2.3 1.866,-4.164 4.167,-4.164c7.139,0 21.787,0 30.494,0c4.508,0 8.894,1.462 12.5,4.167c5.306,3.979 13.37,10.027 19.445,14.583c5.246,3.934 8.333,10.109 8.333,16.667c0,11.56 0,30.106 0,41.666c-0,6.558 -3.087,12.733 -8.333,16.667c-6.056,4.542 -14.087,10.565 -19.393,14.545c-3.638,2.728 -8.069,4.191 -12.616,4.166c-8.737,-0.049 -23.386,-0.131 -30.512,-0.171Zm45.854,-74.414c0,-7.891 -4.458,-15.105 -11.516,-18.634c-2.576,-1.288 -5.207,-2.604 -7.454,-3.727c-1.292,-0.646 -2.825,-0.577 -4.054,0.182c-1.228,0.76 -1.976,2.101 -1.976,3.545c0,16.302 0,57.714 0,74.016c0,1.444 0.748,2.785 1.976,3.545c1.229,0.759 2.762,0.828 4.054,0.182c2.247,-1.123 4.878,-2.439 7.454,-3.727c7.058,-3.529 11.516,-10.743 11.516,-18.634c0,-10.75 0,-25.998 0,-36.748Z" style="fill:#fff;"/></svg>