<?xml version="1.0" encoding="UTF-8" standalone="no"?><!DOCTYPE svg PUBLIC "-//W3C//DTD SVG 1.1//EN" "http://www.w3.org/Graphics/SVG/1.1/DTD/svg11.dtd"><svg width="100%" height="100%" viewBox="0 0 75 113" version="1.1" xmlns="http://www.w3.org/2000/svg" xmlns:xlink="http://www.w3.org/1999/xlink" xml:space="preserve" xmlns:serif="http://www.serif.com/" style="fill-rule:evenodd;clip-rule:evenodd;stroke-linejoin:round;stroke-miterlimit:2;"><path d="M0,91.43c0,5.526 2.195,10.825 6.102,14.732c0.099,0.098 0.197,0.197 0.296,0.296c3.907,3.907 9.206,6.102 14.731,6.102c13.623,-0 39.6,-0 49.704,-0c1.105,-0 2.165,-0.439 2.947,-1.221c0.781,-0.781 1.22,-1.841 1.22,-2.946c-0,-9.417 -0,-32.25 -0,-41.667c-0,-1.105 -0.439,-2.164 -1.22,-2.946c-0.782,-0.781 -1.842,-1.22 -2.947,-1.22c-7.215,-0 -21.952,-0 -29.166,-0c-2.302,-0 -4.167,1.865 -4.167,4.166c-0,1.341 -0,2.826 -0,4.167c-0,2.301 1.865,4.167 4.167,4.167c1.34,-0 2.826,-0 4.166,-0c2.301,-0 4.167,1.865 4.167,4.166c-0,4.625 -0,12.043 -0,16.667c-0,1.105 -0.439,2.165 -1.22,2.946c-0.782,0.782 -1.842,1.221 -2.947,1.221c-4.624,-0 -12.042,-0 -16.666,-0c-1.105,-0 -2.165,-0.439 -2.947,-1.221c-0.781,-0.781 -1.22,-1.841 -1.22,-2.946c-0,-14.753 -0,-64.413 -0,-79.167c-0,-1.105 0.439,-2.165 1.22,-2.946c0.782,-0.781 1.842,-1.22 2.947,-1.22c4.624,-0 12.042,-0 16.666,-0c1.105,-0 2.165,0.439 2.947,1.22c0.781,0.782 1.22,1.841 1.22,2.946c-0,4.584 -0,11.914 -0,16.545c-0,1.126 0.456,2.204 1.263,2.989c0.808,0.784 1.898,1.209 3.024,1.176c4.672,-0.134 12.091,-0.348 16.666,-0.48c2.254,-0.065 4.047,-1.911 4.047,-4.165c-0,-3.163 -0,-7.672 -0,-11.631c-0,-5.508 -2.181,-10.792 -6.067,-14.696c-0.105,-0.106 -0.21,-0.211 -0.315,-0.317c-3.916,-3.934 -9.24,-6.143 -14.791,-6.137c-9.174,0.011 -23.559,0.029 -32.711,0.039c-5.517,0.007 -10.807,2.202 -14.708,6.104c-0.102,0.102 -0.204,0.203 -0.305,0.305c-3.906,3.907 -6.101,9.205 -6.101,14.73c-0,16.749 -0.001,53.491 -0.002,70.242Z" style="fill:#fff;"/></svg>