<?xml version="1.0" encoding="UTF-8" standalone="no"?><!DOCTYPE svg PUBLIC "-//W3C//DTD SVG 1.1//EN" "http://www.w3.org/Graphics/SVG/1.1/DTD/svg11.dtd"><svg width="100%" height="100%" viewBox="0 0 50 113" version="1.1" xmlns="http://www.w3.org/2000/svg" xmlns:xlink="http://www.w3.org/1999/xlink" xml:space="preserve" xmlns:serif="http://www.serif.com/" style="fill-rule:evenodd;clip-rule:evenodd;stroke-linejoin:round;stroke-miterlimit:2;"><path d="M0,108.333c0,2.302 1.866,4.167 4.167,4.167c9.416,0 32.25,0 41.666,0c2.301,0 4.167,-1.865 4.167,-4.167c0,-1.34 0,-2.826 0,-4.166c-0,-2.302 -1.865,-4.167 -4.167,-4.167c-1.34,0 -2.826,0 -4.166,0c-2.302,-0 -4.167,-1.865 -4.167,-4.167c-0,-14.753 0,-64.413 0,-79.166c0,-2.302 1.865,-4.167 4.167,-4.167c1.34,0 2.826,0 4.166,0c2.302,-0 4.167,-1.865 4.167,-4.167c0,-1.34 0,-2.826 0,-4.166c-0,-2.302 -1.866,-4.167 -4.167,-4.167c-9.416,0 -32.25,0 -41.666,0c-2.301,-0 -4.167,1.865 -4.167,4.167c0,1.34 0,2.826 0,4.166c0,2.302 1.865,4.167 4.167,4.167c1.34,0 2.826,0 4.166,0c2.302,0 4.167,1.865 4.167,4.167c0,14.753 0,64.413 0,79.166c-0,2.302 -1.865,4.167 -4.167,4.167c-1.34,0 -2.826,0 -4.166,0c-2.302,0 -4.167,1.865 -4.167,4.167l0,4.166Z" style="fill:#fff;"/></svg>