<?xml version="1.0" encoding="UTF-8" standalone="no"?><!DOCTYPE svg PUBLIC "-//W3C//DTD SVG 1.1//EN" "http://www.w3.org/Graphics/SVG/1.1/DTD/svg11.dtd"><svg width="100%" height="100%" viewBox="0 0 75 113" version="1.1" xmlns="http://www.w3.org/2000/svg" xmlns:xlink="http://www.w3.org/1999/xlink" xml:space="preserve" xmlns:serif="http://www.serif.com/" style="fill-rule:evenodd;clip-rule:evenodd;stroke-linejoin:round;stroke-miterlimit:2;"><path d="M50,4.167c-0,-1.105 0.439,-2.165 1.22,-2.947c0.782,-0.781 1.842,-1.22 2.947,-1.22c4.624,0 12.042,0 16.666,0c1.105,-0 2.165,0.439 2.947,1.22c0.781,0.782 1.22,1.842 1.22,2.947c0,15.019 0,66.577 0,87.204c0,5.525 -2.195,10.824 -6.102,14.731c-0.099,0.099 -0.197,0.197 -0.296,0.296c-3.907,3.907 -9.206,6.102 -14.731,6.102c-9.167,-0 -23.575,-0 -32.742,-0c-5.525,-0 -10.824,-2.195 -14.731,-6.102c-0.099,-0.099 -0.197,-0.197 -0.296,-0.296c-3.907,-3.907 -6.102,-9.206 -6.102,-14.731c0,-4.131 0,-8.887 0,-12.204c-0,-1.105 0.439,-2.165 1.22,-2.947c0.782,-0.781 1.842,-1.22 2.947,-1.22c4.624,0 12.042,0 16.666,0c1.105,-0 2.165,0.439 2.947,1.22c0.781,0.782 1.22,1.842 1.22,2.947c0,4.624 0,12.042 0,16.666c-0,1.105 0.439,2.165 1.22,2.947c0.782,0.781 1.842,1.22 2.947,1.22c4.624,0 12.042,0 16.666,0c1.105,0 2.165,-0.439 2.947,-1.22c0.781,-0.782 1.22,-1.842 1.22,-2.947c0,-16.267 0,-75.399 0,-91.666Z" style="fill:#fff;"/></svg>