<?xml version="1.0" encoding="UTF-8" standalone="no"?><!DOCTYPE svg PUBLIC "-//W3C//DTD SVG 1.1//EN" "http://www.w3.org/Graphics/SVG/1.1/DTD/svg11.dtd"><svg width="100%" height="100%" viewBox="0 0 75 113" version="1.1" xmlns="http://www.w3.org/2000/svg" xmlns:xlink="http://www.w3.org/1999/xlink" xml:space="preserve" xmlns:serif="http://www.serif.com/" style="fill-rule:evenodd;clip-rule:evenodd;stroke-linejoin:round;stroke-miterlimit:2;"><path d="M4.147,0.097c-2.293,0.011 -4.147,1.873 -4.147,4.167c0,17.652 0,86.439 0,104.167c-0,1.108 0.442,2.171 1.227,2.953c0.786,0.782 1.851,1.218 2.959,1.213c4.632,-0.021 12.05,-0.056 16.667,-0.078c2.293,-0.01 4.147,-1.873 4.147,-4.166c0,-8.293 0,-27.046 0,-37.825c0,-0.88 0.605,-1.645 1.462,-1.848c0.857,-0.203 1.741,0.21 2.135,0.997c5.743,11.46 16.699,33.32 20.256,40.419c0.704,1.403 2.136,2.292 3.706,2.299c3.732,0.018 10.789,0.051 15.997,0.075c1.414,0.007 2.734,-0.704 3.508,-1.888c0.773,-1.184 0.893,-2.679 0.319,-3.971c-5.578,-12.551 -18.393,-41.383 -21.63,-48.666c-0.479,-1.079 -0.478,-2.311 0.002,-3.389c3.242,-7.271 16.066,-36.032 21.638,-48.528c0.574,-1.287 0.458,-2.778 -0.308,-3.961c-0.765,-1.183 -2.077,-1.899 -3.487,-1.903c-5.202,-0.013 -12.271,-0.031 -16.018,-0.041c-1.581,-0.004 -3.028,0.887 -3.736,2.3c-3.567,7.118 -14.509,28.95 -20.247,40.4c-0.394,0.787 -1.278,1.2 -2.135,0.997c-0.857,-0.203 -1.462,-0.968 -1.462,-1.848c-0,-10.762 0,-29.474 0,-37.786c-0,-1.108 -0.442,-2.171 -1.227,-2.953c-0.786,-0.782 -1.851,-1.219 -2.959,-1.213c-4.632,0.021 -12.05,0.056 -16.667,0.077Z" style="fill:#fff;"/></svg>