<?xml version="1.0" encoding="UTF-8" standalone="no"?><!DOCTYPE svg PUBLIC "-//W3C//DTD SVG 1.1//EN" "http://www.w3.org/Graphics/SVG/1.1/DTD/svg11.dtd"><svg width="100%" height="100%" viewBox="0 0 75 113" version="1.1" xmlns="http://www.w3.org/2000/svg" xmlns:xlink="http://www.w3.org/1999/xlink" xml:space="preserve" xmlns:serif="http://www.serif.com/" style="fill-rule:evenodd;clip-rule:evenodd;stroke-linejoin:round;stroke-miterlimit:2;"><path d="M0,4.208c-0,-1.105 0.439,-2.166 1.221,-2.947c0.783,-0.782 1.843,-1.22 2.949,-1.219c4.625,0.003 12.044,0.009 16.667,0.012c2.299,0.002 4.163,1.867 4.163,4.167c0,16.272 0,75.472 0,91.76c-0,1.107 0.44,2.167 1.223,2.949c0.782,0.782 1.844,1.22 2.95,1.218c4.627,-0.007 12.045,-0.018 16.667,-0.025c2.298,-0.004 4.16,-1.868 4.16,-4.167c0,-16.271 0,-75.499 0,-91.786c-0,-1.106 0.439,-2.166 1.221,-2.948c0.783,-0.781 1.843,-1.22 2.949,-1.219c4.625,0.004 12.044,0.009 16.667,0.013c2.299,0.002 4.163,1.867 4.163,4.166c0,15.029 0,66.674 0,87.264c-0,5.492 -2.169,10.762 -6.034,14.663c-0.117,0.119 -0.235,0.237 -0.353,0.356c-3.912,3.949 -9.24,6.17 -14.799,6.17c-9.173,0 -23.547,0 -32.694,0c-5.52,0 -10.814,-2.19 -14.72,-6.09c-0.095,-0.096 -0.191,-0.191 -0.287,-0.286c-3.914,-3.908 -6.113,-9.212 -6.113,-14.743c0,-20.651 0,-72.273 0,-87.308Z" style="fill:#fff;"/></svg>