<?xml version="1.0" encoding="UTF-8" standalone="no"?><!DOCTYPE svg PUBLIC "-//W3C//DTD SVG 1.1//EN" "http://www.w3.org/Graphics/SVG/1.1/DTD/svg11.dtd"><svg width="100%" height="100%" viewBox="0 0 76 113" version="1.1" xmlns="http://www.w3.org/2000/svg" xmlns:xlink="http://www.w3.org/1999/xlink" xml:space="preserve" xmlns:serif="http://www.serif.com/" style="fill-rule:evenodd;clip-rule:evenodd;stroke-linejoin:round;stroke-miterlimit:2;"><path d="M37.507,112.52c-2.702,-0.001 -5.331,-0.877 -7.492,-2.498c-5.016,-3.762 -14.666,-10.999 -21.671,-16.252c-5.245,-3.934 -8.333,-10.108 -8.334,-16.665c-0.002,-19.3 -0.008,-59.848 -0.009,-72.935c-0.001,-1.105 0.438,-2.165 1.22,-2.946c0.781,-0.782 1.841,-1.221 2.946,-1.221c4.625,0 12.043,0 16.667,0c2.301,0 4.166,1.865 4.167,4.166c0.001,14.755 0.008,64.431 0.01,79.185c0,2.301 1.866,4.167 4.167,4.167c4.623,-0 12.042,-0 16.666,-0c1.105,-0 2.165,-0.439 2.947,-1.221c0.781,-0.782 1.22,-1.841 1.22,-2.947c-0.002,-14.756 -0.009,-64.428 -0.01,-79.183c-0.001,-1.105 0.438,-2.165 1.22,-2.947c0.781,-0.781 1.841,-1.22 2.946,-1.22c4.624,-0.001 12.042,-0.002 16.666,-0.002c2.302,-0.001 4.167,1.864 4.168,4.166c0.001,13.085 0.007,53.633 0.009,72.935c0.001,6.559 -3.086,12.735 -8.333,16.67c-7.003,5.252 -16.648,12.486 -21.664,16.248c-2.165,1.623 -4.797,2.5 -7.503,2.5c-0.001,-0 -0.002,-0 -0.003,-0Z" style="fill:#fff;"/></svg>