<?xml version="1.0" encoding="UTF-8" standalone="no"?><!DOCTYPE svg PUBLIC "-//W3C//DTD SVG 1.1//EN" "http://www.w3.org/Graphics/SVG/1.1/DTD/svg11.dtd"><svg width="100%" height="100%" viewBox="0 0 88 113" version="1.1" xmlns="http://www.w3.org/2000/svg" xmlns:xlink="http://www.w3.org/1999/xlink" xml:space="preserve" xmlns:serif="http://www.serif.com/" style="fill-rule:evenodd;clip-rule:evenodd;stroke-linejoin:round;stroke-miterlimit:2;"><path d="M0.043,4.164c0.001,-2.3 1.866,-4.164 4.167,-4.164c4.623,0 12.041,0 16.666,0c1.106,0 2.166,0.439 2.948,1.221c0.781,0.782 1.22,1.843 1.219,2.948c-0.008,13.13 -0.032,53.529 -0.04,66.658c-0.001,1.106 0.438,2.166 1.219,2.948c0.782,0.782 1.842,1.222 2.947,1.222c1.34,-0 2.824,-0 4.164,-0c2.302,-0 4.167,-1.866 4.167,-4.167c0,-7.215 0,-21.952 0,-29.167c-0,-2.301 1.865,-4.166 4.167,-4.166c1.34,-0 2.826,-0 4.166,-0c2.302,-0 4.167,1.865 4.167,4.166c0,7.215 0,21.952 0,29.167c-0,2.301 1.865,4.167 4.167,4.167c1.341,-0 2.827,-0 4.169,-0c2.3,-0 4.165,-1.864 4.167,-4.165c0.008,-13.126 0.032,-53.542 0.04,-66.668c0.001,-2.3 1.866,-4.164 4.167,-4.164c4.623,0 12.041,0 16.666,0c1.106,0 2.166,0.439 2.948,1.221c0.781,0.782 1.22,1.843 1.219,2.948c-0.008,13.407 -0.034,55.243 -0.041,67.451c-0.001,2.237 -0.363,4.458 -1.07,6.579c-2.41,7.224 -8.235,24.69 -10.528,31.564c-0.567,1.701 -2.159,2.848 -3.952,2.849c-2.098,-0 -4.872,0 -6.871,0c-1.581,0.001 -3.026,-0.894 -3.731,-2.31c-2.38,-4.781 -7.821,-15.714 -10.2,-20.495c-0.705,-1.416 -2.149,-2.31 -3.73,-2.31c-2.15,-0 -5.197,-0 -7.345,-0c-1.578,-0 -3.021,0.891 -3.727,2.303c-2.384,4.767 -7.835,15.667 -10.209,20.413c-0.699,1.399 -2.123,2.288 -3.686,2.303c-2.003,0.019 -4.798,0.046 -6.917,0.066c-1.809,0.017 -3.423,-1.135 -3.994,-2.852c-2.291,-6.897 -8.08,-24.315 -10.477,-31.528c-0.705,-2.123 -1.064,-4.346 -1.063,-6.583c0.007,-12.212 0.033,-54.055 0.041,-67.455Z" style="fill:#fff;"/></svg>