<?xml version="1.0" encoding="UTF-8" standalone="no"?><!DOCTYPE svg PUBLIC "-//W3C//DTD SVG 1.1//EN" "http://www.w3.org/Graphics/SVG/1.1/DTD/svg11.dtd"><svg width="100%" height="100%" viewBox="0 0 76 114" version="1.1" xmlns="http://www.w3.org/2000/svg" xmlns:xlink="http://www.w3.org/1999/xlink" xml:space="preserve" xmlns:serif="http://www.serif.com/" style="fill-rule:evenodd;clip-rule:evenodd;stroke-linejoin:round;stroke-miterlimit:2;"><path d="M4.167,0c-1.105,-0 -2.165,0.439 -2.947,1.22c-0.781,0.782 -1.22,1.842 -1.22,2.947c-0,3.643 -0,9.02 -0,13.399c0,4.806 1.669,9.464 4.721,13.176c5.47,6.652 14.238,17.316 18.213,22.15c1.22,1.483 1.267,3.609 0.115,5.146c-4.055,5.406 -13.429,17.905 -18.888,25.183c-2.693,3.591 -4.149,7.959 -4.149,12.448c0,4.466 0,10.13 0,13.918c0,1.105 0.439,2.165 1.221,2.946c0.781,0.782 1.841,1.221 2.946,1.221c4.624,-0 12.042,-0 16.667,-0c1.105,-0 2.164,-0.439 2.946,-1.221c0.781,-0.781 1.22,-1.841 1.22,-2.946c0,-7.229 0,-21.925 0,-28.248c0,-1.793 1.148,-3.385 2.849,-3.952c0.922,-0.308 1.986,-0.662 3.063,-1.021c4.277,-1.426 8.9,-1.426 13.176,-0c1.078,0.359 2.141,0.713 3.063,1.021c1.702,0.567 2.849,2.159 2.849,3.952c0,6.323 0,21.019 0,28.248c0,1.105 0.439,2.165 1.221,2.946c0.781,0.782 1.841,1.221 2.946,1.221c4.624,-0 12.042,-0 16.667,-0c1.105,-0 2.164,-0.439 2.946,-1.221c0.781,-0.781 1.22,-1.841 1.22,-2.946c0,-3.788 0,-9.452 0,-13.918c0,-4.489 -1.456,-8.857 -4.149,-12.448c-5.459,-7.278 -14.834,-19.779 -18.888,-25.184c-1.152,-1.537 -1.105,-3.661 0.114,-5.145c3.971,-4.834 12.732,-15.5 18.196,-22.152c3.049,-3.711 4.715,-8.365 4.715,-13.168c-0,-4.38 -0,-9.761 -0,-13.405c0,-1.105 -0.439,-2.165 -1.22,-2.947c-0.782,-0.781 -1.842,-1.22 -2.947,-1.22l-16.666,-0c-1.105,-0 -2.165,0.439 -2.947,1.22c-0.781,0.782 -1.22,1.842 -1.22,2.947c-0,7.416 -0,22.727 -0,29.108c0,1.739 -1.08,3.295 -2.708,3.903c-0.756,0.282 -1.614,0.603 -2.501,0.934c-4.702,1.757 -9.88,1.757 -14.582,0c-0.887,-0.331 -1.745,-0.652 -2.501,-0.934c-1.628,-0.608 -2.708,-2.164 -2.708,-3.903c-0,-6.381 -0,-21.692 -0,-29.108c0,-1.105 -0.439,-2.165 -1.22,-2.947c-0.782,-0.781 -1.842,-1.22 -2.947,-1.22c-4.624,-0 -12.042,-0 -16.666,-0Z" style="fill:#fff;"/></svg>