<?xml version="1.0" encoding="UTF-8" standalone="no"?><!DOCTYPE svg PUBLIC "-//W3C//DTD SVG 1.1//EN" "http://www.w3.org/Graphics/SVG/1.1/DTD/svg11.dtd"><svg width="100%" height="100%" viewBox="0 0 75 113" version="1.1" xmlns="http://www.w3.org/2000/svg" xmlns:xlink="http://www.w3.org/1999/xlink" xml:space="preserve" xmlns:serif="http://www.serif.com/" style="fill-rule:evenodd;clip-rule:evenodd;stroke-linejoin:round;stroke-miterlimit:2;"><path d="M0,101.726c0,-1.105 0.439,-2.165 1.22,-2.946c6.873,-6.873 40.687,-40.687 47.56,-47.56c0.781,-0.781 1.22,-1.841 1.22,-2.946c0,-5.609 0,-23.435 -0,-31.607c0,-1.105 -0.439,-2.165 -1.22,-2.947c-0.782,-0.781 -1.842,-1.22 -2.947,-1.22c-4.624,-0 -12.042,-0 -16.666,-0c-1.105,-0 -2.165,0.439 -2.947,1.22c-0.781,0.782 -1.22,1.842 -1.22,2.947c0,4.624 0,12.042 -0,16.666c0,1.105 -0.439,2.165 -1.22,2.947c-0.782,0.781 -1.842,1.22 -2.947,1.22c-4.624,0 -12.042,0 -16.666,0c-1.105,0 -2.165,-0.439 -2.947,-1.22c-0.781,-0.782 -1.22,-1.842 -1.22,-2.947c-0,-3.317 -0,-8.073 -0,-12.204c0,-5.525 2.195,-10.824 6.102,-14.731c0.099,-0.099 0.197,-0.197 0.296,-0.296c3.907,-3.907 9.206,-6.102 14.731,-6.102c9.167,0 23.575,0 32.742,0c5.525,0 10.824,2.195 14.731,6.102c0.099,0.099 0.197,0.197 0.296,0.296c3.907,3.907 6.102,9.206 6.102,14.732c0,8.99 0,22.413 0,27.144c-0,1.105 -0.439,2.165 -1.22,2.946c-5.655,5.655 -29.548,29.548 -41.667,41.667c-1.192,1.192 -1.548,2.984 -0.903,4.541c0.645,1.557 2.164,2.572 3.849,2.572c10.961,0 27.972,0 35.774,0c2.301,-0 4.167,1.865 4.167,4.167c0,1.34 0,2.825 0,4.165c-0,1.105 -0.439,2.165 -1.221,2.947c-0.781,0.781 -1.842,1.22 -2.947,1.22c-13.13,-0.004 -53.54,-0.014 -66.666,-0.018c-2.301,-0 -4.166,-1.866 -4.166,-4.167c0,-2.245 0,-4.894 0,-6.588Z" style="fill:#fff;"/></svg>