<?xml version="1.0" encoding="UTF-8" standalone="no"?><!DOCTYPE svg PUBLIC "-//W3C//DTD SVG 1.1//EN" "http://www.w3.org/Graphics/SVG/1.1/DTD/svg11.dtd"><svg width="100%" height="100%" viewBox="0 0 88 113" version="1.1" xmlns="http://www.w3.org/2000/svg" xmlns:xlink="http://www.w3.org/1999/xlink" xml:space="preserve" xmlns:serif="http://www.serif.com/" style="fill-rule:evenodd;clip-rule:evenodd;stroke-linejoin:round;stroke-miterlimit:2;"><path d="M83.333,75c2.302,0 4.167,1.865 4.167,4.167c-0,1.34 -0,2.826 -0,4.166c-0,2.302 -1.865,4.167 -4.167,4.167c-1.34,0 -2.826,0 -4.166,0c-2.302,0 -4.167,1.865 -4.167,4.167c-0,4.62 -0,12.03 -0,16.65c0,2.3 -1.863,4.165 -4.163,4.166c-4.623,0.004 -12.042,0.01 -16.667,0.014c-1.106,0.001 -2.166,-0.438 -2.948,-1.22c-0.783,-0.781 -1.222,-1.841 -1.222,-2.947l-0,-16.663c0,-1.105 -0.439,-2.165 -1.22,-2.947c-0.782,-0.781 -1.842,-1.22 -2.947,-1.22c-9.21,0 -31.256,0 -41.029,0c-1.208,0 -2.356,-0.524 -3.148,-1.437c-0.791,-0.912 -1.147,-2.123 -0.977,-3.319c2.237,-15.657 9.34,-65.376 11.31,-79.167c0.293,-2.052 2.051,-3.577 4.125,-3.577c4.335,0 11.622,0 16.467,0c1.225,0 2.388,0.539 3.18,1.473c0.791,0.935 1.132,2.17 0.93,3.379c-2.259,13.558 -8.623,51.738 -10.882,65.296c-0.202,1.209 0.139,2.444 0.93,3.379c0.792,0.934 1.955,1.473 3.18,1.473c4.644,0 11.533,0 15.914,0c1.105,0 2.165,-0.439 2.947,-1.22c0.781,-0.782 1.22,-1.842 1.22,-2.947c-0,-9.416 -0,-32.25 -0,-41.666c-0,-1.105 0.439,-2.165 1.22,-2.947c0.782,-0.781 1.842,-1.22 2.947,-1.22c4.624,-0 12.042,-0 16.666,-0c1.105,-0 2.165,0.439 2.947,1.22c0.781,0.782 1.22,1.842 1.22,2.947c-0,9.416 -0,32.25 -0,41.666c-0,2.301 1.865,4.167 4.167,4.167c1.34,0 2.826,0 4.166,0Z" style="fill:#fff;"/></svg>