<?xml version="1.0" encoding="UTF-8" standalone="no"?><!DOCTYPE svg PUBLIC "-//W3C//DTD SVG 1.1//EN" "http://www.w3.org/Graphics/SVG/1.1/DTD/svg11.dtd"><svg width="100%" height="100%" viewBox="0 0 75 113" version="1.1" xmlns="http://www.w3.org/2000/svg" xmlns:xlink="http://www.w3.org/1999/xlink" xml:space="preserve" xmlns:serif="http://www.serif.com/" style="fill-rule:evenodd;clip-rule:evenodd;stroke-linejoin:round;stroke-miterlimit:2;"><path d="M70.833,12.5c2.301,0 4.167,-1.865 4.167,-4.167c0,-1.34 0,-2.826 0,-4.166c-0,-2.302 -1.866,-4.167 -4.167,-4.167c-13.056,0 -53.074,0 -66.071,0c-2.285,0 -4.143,1.84 -4.167,4.124c-0.115,11.314 -0.436,42.753 -0.552,54.167c-0.011,1.112 0.423,2.183 1.205,2.974c0.783,0.79 1.849,1.235 2.961,1.235c9.443,0 32.222,0 41.624,0c1.105,-0 2.165,0.439 2.947,1.22c0.781,0.782 1.22,1.842 1.22,2.947c-0,3.317 -0,8.073 -0,12.204c-0,5.525 -2.195,10.824 -6.102,14.731c-0.099,0.099 -0.197,0.197 -0.296,0.296c-3.907,3.907 -9.206,6.102 -14.731,6.102c-7.662,0 -18.51,0 -24.274,0c-2.219,-0 -4.048,1.739 -4.161,3.954c-0.068,1.325 -0.144,2.809 -0.213,4.164c-0.058,1.14 0.355,2.255 1.141,3.082c0.787,0.828 1.878,1.297 3.02,1.297c8.252,0.001 26.228,0.002 36.986,0.002c5.526,0.001 10.825,-2.194 14.733,-6.102c3.888,-3.888 8.907,-8.907 12.795,-12.795c3.907,-3.907 6.102,-9.206 6.102,-14.731c-0,-2.504 -0,-5.238 -0,-7.742c-0,-5.525 -2.195,-10.824 -6.102,-14.731c-0.099,-0.099 -0.197,-0.197 -0.296,-0.296c-3.907,-3.907 -9.206,-6.102 -14.732,-6.102c-7.741,0 -18.768,0 -24.703,0c-1.105,0 -2.165,-0.439 -2.947,-1.22c-0.781,-0.782 -1.22,-1.842 -1.22,-2.947l-0,-29.166c-0,-1.105 0.439,-2.165 1.22,-2.947c0.782,-0.781 1.842,-1.22 2.947,-1.22c9.416,0 32.25,0 41.666,0Z" style="fill:#fff;"/></svg>