<?xml version="1.0" encoding="UTF-8" standalone="no"?><!DOCTYPE svg PUBLIC "-//W3C//DTD SVG 1.1//EN" "http://www.w3.org/Graphics/SVG/1.1/DTD/svg11.dtd"><svg width="100%" height="100%" viewBox="0 0 75 113" version="1.1" xmlns="http://www.w3.org/2000/svg" xmlns:xlink="http://www.w3.org/1999/xlink" xml:space="preserve" xmlns:serif="http://www.serif.com/" style="fill-rule:evenodd;clip-rule:evenodd;stroke-linejoin:round;stroke-miterlimit:2;"><path d="M62.5,4.167c-0,-2.302 -1.866,-4.167 -4.167,-4.167c-3.317,0 -8.073,0 -12.204,0c-5.525,0 -10.824,2.195 -14.731,6.102c-6.581,6.581 -17.056,17.056 -24.076,24.076c-4.688,4.688 -7.322,11.047 -7.322,17.677c0,12.171 0,32.144 0,43.514c-0,5.526 2.196,10.826 6.104,14.733c0.098,0.099 0.197,0.197 0.295,0.295c3.906,3.906 9.204,6.1 14.728,6.1c9.167,0.001 23.575,0.002 32.743,0.002c5.526,0.001 10.825,-2.194 14.733,-6.102c0.098,-0.098 0.197,-0.197 0.295,-0.295c3.907,-3.907 6.102,-9.206 6.102,-14.731c0,-9.167 0,-23.575 0,-32.742c-0,-5.525 -2.195,-10.824 -6.102,-14.731c-0.099,-0.099 -0.197,-0.197 -0.296,-0.296c-3.907,-3.907 -9.206,-6.102 -14.731,-6.102c-4.193,0 -9.031,0 -12.354,0c-1.066,-0 -2.087,-0.423 -2.841,-1.176c-0.753,-0.754 -1.176,-1.775 -1.176,-2.841c0,-0 0,-0.001 0,-0.002c-0,-5.43 2.157,-10.638 5.997,-14.478c0.169,-0.169 0.337,-0.337 0.506,-0.506c3.84,-3.84 9.048,-5.997 14.478,-5.997l4.019,0l0,-8.333Zm-25,45.833c-6.904,-0 -12.5,5.596 -12.5,12.5c0,7.635 0,17.365 0,25c0,6.904 5.596,12.5 12.5,12.5c0.003,0 0.006,0 0.008,0c3.313,0 6.491,-1.316 8.833,-3.659c2.343,-2.342 3.659,-5.52 3.659,-8.833c0,-7.639 0,-17.377 0,-25.016c0,-3.313 -1.316,-6.491 -3.659,-8.833c-2.342,-2.343 -5.52,-3.659 -8.833,-3.659c-0.002,0 -0.005,0 -0.008,0Z" style="fill:#fff;"/></svg>