<?xml version="1.0" encoding="UTF-8" standalone="no"?><!DOCTYPE svg PUBLIC "-//W3C//DTD SVG 1.1//EN" "http://www.w3.org/Graphics/SVG/1.1/DTD/svg11.dtd"><svg width="100%" height="100%" viewBox="0 0 75 113" version="1.1" xmlns="http://www.w3.org/2000/svg" xmlns:xlink="http://www.w3.org/1999/xlink" xml:space="preserve" xmlns:serif="http://www.serif.com/" style="fill-rule:evenodd;clip-rule:evenodd;stroke-linejoin:round;stroke-miterlimit:2;"><path d="M16.667,100c-2.301,-0 -4.167,1.865 -4.167,4.167c-0,1.34 -0,2.826 -0,4.166c0,2.302 1.866,4.167 4.167,4.167c5.935,0 16.962,0 24.703,0c5.526,0 10.825,-2.195 14.732,-6.102c2.567,-2.567 5.44,-5.44 7.541,-7.541c1.995,-1.995 3.564,-4.374 4.612,-6.994c1.513,-3.784 3.775,-9.437 5.255,-13.138c0.984,-2.461 1.49,-5.087 1.49,-7.737l0,-49.859c-0,-5.525 -2.195,-10.824 -6.102,-14.731c-0.099,-0.099 -0.197,-0.197 -0.296,-0.296c-3.907,-3.907 -9.206,-6.102 -14.731,-6.102c-9.167,0 -23.575,0 -32.742,0c-5.525,0 -10.824,2.195 -14.731,6.102c-0.099,0.099 -0.197,0.197 -0.296,0.296c-3.907,3.907 -6.102,9.206 -6.102,14.731c0,9.167 0,23.575 0,32.742c0,5.525 2.195,10.824 6.102,14.731c0.099,0.099 0.197,0.197 0.296,0.296c3.907,3.907 9.206,6.102 14.731,6.102c8.465,0 21.257,0 29.419,0c1.537,0 2.948,0.846 3.673,2.201c0.726,1.354 0.646,2.998 -0.206,4.277c-1.878,2.817 -4.114,6.171 -6.164,9.245c-3.863,5.796 -10.368,9.277 -17.334,9.277c-4.852,0 -10.241,0 -13.85,0Zm12.5,-37.5c-1.105,0 -2.165,-0.439 -2.947,-1.22c-0.781,-0.782 -1.22,-1.842 -1.22,-2.947c0,-9.416 -0,-32.25 -0,-41.666c-0,-1.105 0.439,-2.165 1.22,-2.947c0.782,-0.781 1.842,-1.22 2.947,-1.22c4.624,0 12.042,0 16.666,0c1.105,-0 2.165,0.439 2.947,1.22c0.781,0.782 1.22,1.842 1.22,2.947c0,9.416 0,32.25 0,41.666c0,1.105 -0.439,2.165 -1.22,2.947c-0.782,0.781 -1.842,1.22 -2.947,1.22c-4.624,0 -12.042,0 -16.666,0Z" style="fill:#fff;"/></svg>