<?xml version="1.0" encoding="UTF-8" standalone="no"?><!DOCTYPE svg PUBLIC "-//W3C//DTD SVG 1.1//EN" "http://www.w3.org/Graphics/SVG/1.1/DTD/svg11.dtd"><svg width="100%" height="100%" viewBox="0 0 76 88" version="1.1" xmlns="http://www.w3.org/2000/svg" xmlns:xlink="http://www.w3.org/1999/xlink" xml:space="preserve" xmlns:serif="http://www.serif.com/" style="fill-rule:evenodd;clip-rule:evenodd;stroke-linejoin:round;stroke-miterlimit:2;"><path d="M6.389,43.502c3.905,-3.893 9.194,-6.08 14.709,-6.08c7.721,0 18.719,0 24.645,0c2.301,0 4.166,-1.865 4.166,-4.166c0,-4.601 0,-11.964 0,-16.564c0,-2.301 -1.865,-4.167 -4.166,-4.167c-7.2,0 -21.889,0 -29.09,0c-1.105,0 -2.164,-0.439 -2.946,-1.22c-0.781,-0.782 -1.22,-1.842 -1.22,-2.947c-0,-1.348 -0,-2.843 -0,-4.191c-0,-1.105 0.439,-2.165 1.22,-2.947c0.782,-0.781 1.841,-1.22 2.947,-1.22c8.141,-0 26.309,-0 37.151,-0c5.525,-0 10.824,2.195 14.731,6.102c0.133,0.132 0.265,0.265 0.398,0.397c3.907,3.907 6.102,9.207 6.102,14.732l-0,62.125c-0,1.105 -0.439,2.165 -1.221,2.946c-0.781,0.782 -1.841,1.221 -2.946,1.221c-10.112,-0 -36.12,-0 -49.753,-0c-5.525,-0 -10.824,-2.195 -14.731,-6.102c-0.094,-0.095 -0.189,-0.189 -0.283,-0.283c-3.907,-3.907 -6.102,-9.206 -6.102,-14.732c0,-2.548 0,-5.337 0,-7.887c0,-5.536 2.204,-10.845 6.125,-14.754c0.088,-0.087 0.176,-0.175 0.264,-0.263Zm39.354,6.369c1.105,0 2.164,0.439 2.946,1.22c0.781,0.782 1.22,1.842 1.22,2.947c0,4.662 0,12.169 0,16.831c0,1.105 -0.439,2.165 -1.22,2.946c-0.782,0.782 -1.841,1.221 -2.946,1.221c-4.583,-0 -11.905,-0 -16.488,-0c-1.105,-0 -2.165,-0.439 -2.946,-1.221c-0.782,-0.781 -1.221,-1.841 -1.221,-2.946c0,-4.662 0,-12.169 0,-16.831c0,-1.105 0.439,-2.165 1.221,-2.947c0.781,-0.781 1.841,-1.22 2.946,-1.22c4.583,0 11.905,0 16.488,0Z" style="fill:#fff;"/></svg>