<?xml version="1.0" encoding="UTF-8" standalone="no"?><!DOCTYPE svg PUBLIC "-//W3C//DTD SVG 1.1//EN" "http://www.w3.org/Graphics/SVG/1.1/DTD/svg11.dtd"><svg width="100%" height="100%" viewBox="0 0 75 113" version="1.1" xmlns="http://www.w3.org/2000/svg" xmlns:xlink="http://www.w3.org/1999/xlink" xml:space="preserve" xmlns:serif="http://www.serif.com/" style="fill-rule:evenodd;clip-rule:evenodd;stroke-linejoin:round;stroke-miterlimit:2;"><path d="M4.167,-0c-2.302,0 -4.167,1.866 -4.167,4.167c0,17.696 0,86.524 0,104.22c-0,1.105 0.439,2.165 1.22,2.946c0.782,0.782 1.842,1.221 2.947,1.221l49.924,-0c5.526,-0 10.825,-2.195 14.732,-6.102c0.005,-0.006 0.01,-0.011 0.015,-0.016c3.907,-3.907 6.102,-9.206 6.102,-14.731c0,-11.991 0,-33.567 0,-45.558c0,-5.525 -2.195,-10.824 -6.102,-14.731c-0.053,-0.053 -0.106,-0.106 -0.158,-0.159c-3.907,-3.907 -9.207,-6.102 -14.732,-6.102c-7.733,0 -18.744,0 -24.674,0c-1.105,0 -2.165,-0.439 -2.946,-1.22c-0.782,-0.782 -1.221,-1.842 -1.221,-2.947c0,-4.659 0,-12.162 0,-16.821c0,-1.105 -0.439,-2.165 -1.22,-2.947c-0.781,-0.781 -1.841,-1.22 -2.946,-1.22c-4.649,-0 -12.126,-0 -16.774,-0Zm20.654,41.684c0,-2.301 1.865,-4.166 4.167,-4.166c4.67,-0 12.199,-0 16.869,-0c2.301,-0 4.167,1.865 4.167,4.166c-0,11.341 -0,42.666 -0,54.006c-0,2.301 -1.866,4.167 -4.167,4.167c-4.67,-0 -12.199,-0 -16.869,-0c-2.302,-0 -4.167,-1.866 -4.167,-4.167c-0,-11.34 -0,-42.665 -0,-54.006Z" style="fill:#fff;"/></svg>