<?xml version="1.0" encoding="UTF-8" standalone="no"?><!DOCTYPE svg PUBLIC "-//W3C//DTD SVG 1.1//EN" "http://www.w3.org/Graphics/SVG/1.1/DTD/svg11.dtd"><svg width="100%" height="100%" viewBox="0 0 75 113" version="1.1" xmlns="http://www.w3.org/2000/svg" xmlns:xlink="http://www.w3.org/1999/xlink" xml:space="preserve" xmlns:serif="http://www.serif.com/" style="fill-rule:evenodd;clip-rule:evenodd;stroke-linejoin:round;stroke-miterlimit:2;"><path d="M49.976,4.167c0,-2.302 1.866,-4.167 4.167,-4.167c4.605,-0 11.978,-0 16.583,-0c2.301,0 4.167,1.865 4.167,4.167c-0,17.696 -0,86.524 -0,104.22c-0,2.301 -1.866,4.167 -4.167,4.167c-10.081,-0 -35.954,-0 -49.543,-0c-5.525,-0 -10.824,-2.195 -14.731,-6.102c-0.117,-0.117 -0.233,-0.234 -0.35,-0.35c-3.907,-3.907 -6.102,-9.206 -6.102,-14.731c0,-11.901 0,-33.227 0,-45.128c0,-5.526 2.195,-10.825 6.102,-14.732c0.109,-0.108 0.217,-0.217 0.326,-0.325c3.907,-3.908 9.206,-6.102 14.731,-6.102c7.727,-0 18.725,-0 24.651,-0c2.301,-0.001 4.166,-1.866 4.166,-4.167c0,-4.643 0,-12.107 0,-16.75Zm0,37.613c0,-2.301 -1.865,-4.167 -4.167,-4.167c-4.596,0 -11.949,0 -16.546,0c-2.301,0 -4.166,1.866 -4.167,4.167c0,11.326 0,42.583 0,53.909c0.001,2.301 1.866,4.167 4.167,4.167c4.597,-0 11.95,-0 16.546,-0c2.302,-0 4.167,-1.866 4.167,-4.167c0,-11.326 0,-42.583 0,-53.909Z" style="fill:#fff;"/></svg>