<?xml version="1.0" encoding="UTF-8" standalone="no"?><!DOCTYPE svg PUBLIC "-//W3C//DTD SVG 1.1//EN" "http://www.w3.org/Graphics/SVG/1.1/DTD/svg11.dtd"><svg width="100%" height="100%" viewBox="0 0 75 88" version="1.1" xmlns="http://www.w3.org/2000/svg" xmlns:xlink="http://www.w3.org/1999/xlink" xml:space="preserve" xmlns:serif="http://www.serif.com/" style="fill-rule:evenodd;clip-rule:evenodd;stroke-linejoin:round;stroke-miterlimit:2;"><path d="M6.09,6.274c3.92,-4.012 9.292,-6.274 14.901,-6.274c9.134,-0 23.351,0 32.432,-0c5.525,0 10.824,2.195 14.731,6.102c0.101,0.101 0.202,0.201 0.302,0.302c3.907,3.907 6.102,9.206 6.102,14.731c0,7.721 0,18.706 0,24.627c0,1.105 -0.439,2.165 -1.22,2.946c-0.781,0.781 -1.841,1.22 -2.946,1.22c-9.421,0 -32.27,0 -41.691,0c-1.105,0 -2.165,0.439 -2.946,1.221c-0.781,0.781 -1.22,1.841 -1.22,2.946c-0,4.649 -0,12.125 -0,16.774c-0,2.301 1.865,4.167 4.166,4.167c7.218,-0 21.967,-0 29.185,-0c2.301,-0 4.166,1.865 4.166,4.166c0,1.401 0,2.963 0,4.364c0,2.301 -1.865,4.167 -4.166,4.167c-8.122,-0 -26.222,-0 -37.037,-0c-5.525,-0 -10.824,-2.195 -14.731,-6.102c-0.006,-0.006 -0.011,-0.011 -0.016,-0.016c-3.907,-3.907 -6.102,-9.206 -6.102,-14.731c-0,-12.078 -0,-33.888 -0,-45.89c-0,-5.441 2.129,-10.667 5.932,-14.559c0.053,-0.054 0.105,-0.108 0.158,-0.161Zm18.731,10.59c-0,-1.105 0.439,-2.165 1.22,-2.947c0.782,-0.781 1.842,-1.22 2.947,-1.22c4.561,-0 11.831,-0 16.392,-0c1.105,-0 2.165,0.439 2.946,1.22c0.782,0.782 1.221,1.842 1.22,2.947c0,4.626 0,12.051 0,16.678c0.001,1.105 -0.438,2.165 -1.22,2.946c-0.781,0.782 -1.841,1.221 -2.946,1.221c-4.561,-0 -11.831,-0 -16.392,-0c-1.105,-0 -2.165,-0.439 -2.947,-1.221c-0.781,-0.781 -1.22,-1.841 -1.22,-2.946c-0,-4.627 -0,-12.052 -0,-16.678Z" style="fill:#fff;"/></svg>