<?xml version="1.0" encoding="UTF-8" standalone="no"?><!DOCTYPE svg PUBLIC "-//W3C//DTD SVG 1.1//EN" "http://www.w3.org/Graphics/SVG/1.1/DTD/svg11.dtd"><svg width="100%" height="100%" viewBox="0 0 76 126" version="1.1" xmlns="http://www.w3.org/2000/svg" xmlns:xlink="http://www.w3.org/1999/xlink" xml:space="preserve" xmlns:serif="http://www.serif.com/" style="fill-rule:evenodd;clip-rule:evenodd;stroke-linejoin:round;stroke-miterlimit:2;"><path d="M6.493,6.149c3.91,-3.936 9.229,-6.149 14.777,-6.149c13.634,0 39.574,0 49.67,0c2.301,0 4.166,1.865 4.166,4.167c0,16.477 0,77.293 0,100.005c0,5.525 -2.195,10.824 -6.102,14.731c-0.069,0.069 -0.137,0.138 -0.206,0.207c-3.907,3.907 -9.206,6.102 -14.732,6.102c-13.628,-0 -39.624,-0 -49.733,-0c-2.301,-0 -4.167,-1.865 -4.167,-4.167c0,-1.313 0,-2.764 0,-4.077c0,-2.301 1.866,-4.166 4.167,-4.167c9.397,0 32.15,0 41.547,0c2.301,0 4.167,-1.865 4.167,-4.166c-0,-4.638 -0,-12.089 -0,-16.726c-0,-2.302 -1.866,-4.167 -4.167,-4.167c-5.925,-0 -16.922,-0 -24.648,-0c-5.525,-0 -10.825,-2.195 -14.732,-6.102c-0.132,-0.133 -0.265,-0.266 -0.398,-0.399c-3.907,-3.907 -6.102,-9.206 -6.102,-14.731c-0,-11.929 0,-33.329 0,-45.237c-0,-5.502 2.177,-10.781 6.056,-14.685c0.145,-0.146 0.291,-0.293 0.437,-0.439Zm18.494,10.7c-0,-1.105 0.439,-2.165 1.22,-2.946c0.782,-0.782 1.842,-1.221 2.947,-1.221c4.637,0 12.088,0 16.726,0c1.105,0 2.165,0.439 2.946,1.221c0.782,0.781 1.221,1.841 1.221,2.946c-0,11.333 -0,42.625 -0,53.958c-0,1.105 -0.439,2.165 -1.221,2.946c-0.781,0.781 -1.841,1.22 -2.946,1.22c-4.638,0 -12.089,0 -16.726,0c-1.105,0 -2.165,-0.439 -2.947,-1.22c-0.781,-0.781 -1.22,-1.841 -1.22,-2.946c0,-11.333 0,-42.625 0,-53.958Z" style="fill:#fff;"/></svg>