<?xml version="1.0" encoding="UTF-8" standalone="no"?><!DOCTYPE svg PUBLIC "-//W3C//DTD SVG 1.1//EN" "http://www.w3.org/Graphics/SVG/1.1/DTD/svg11.dtd"><svg width="100%" height="100%" viewBox="0 0 75 113" version="1.1" xmlns="http://www.w3.org/2000/svg" xmlns:xlink="http://www.w3.org/1999/xlink" xml:space="preserve" xmlns:serif="http://www.serif.com/" style="fill-rule:evenodd;clip-rule:evenodd;stroke-linejoin:round;stroke-miterlimit:2;"><path d="M4.167,0c-2.302,0 -4.167,1.866 -4.167,4.167c0,17.675 0,86.354 0,104.029c-0,2.301 1.865,4.166 4.167,4.167c4.605,-0 11.978,-0 16.583,-0c2.301,-0.001 4.166,-1.866 4.166,-4.167c0,-13.12 0,-53.487 0,-66.607c0,-1.105 0.439,-2.165 1.221,-2.946c0.781,-0.782 1.841,-1.221 2.946,-1.221c4.627,0 12.052,0 16.679,0c1.105,0 2.164,0.439 2.946,1.221c0.781,0.781 1.22,1.841 1.22,2.946c0,13.12 0,53.487 0,66.607c0,1.105 0.439,2.165 1.221,2.946c0.781,0.782 1.841,1.221 2.946,1.221c4.627,-0 12.052,-0 16.678,-0c1.106,-0 2.165,-0.439 2.947,-1.221c0.781,-0.781 1.22,-1.841 1.22,-2.946c0,-11.866 0,-46.017 0,-62.144c0,-5.526 -2.195,-10.825 -6.102,-14.732c-0.116,-0.116 -0.233,-0.233 -0.35,-0.349c-3.907,-3.907 -9.206,-6.102 -14.731,-6.102c-7.733,-0 -18.744,-0 -24.674,-0c-1.105,-0 -2.165,-0.439 -2.946,-1.221c-0.782,-0.781 -1.221,-1.841 -1.221,-2.946c0,-4.594 0,-11.941 0,-16.535c0,-2.301 -1.865,-4.167 -4.166,-4.167c-4.605,0 -11.978,0 -16.583,0Z" style="fill:#fff;"/></svg>