<?xml version="1.0" encoding="UTF-8" standalone="no"?><!DOCTYPE svg PUBLIC "-//W3C//DTD SVG 1.1//EN" "http://www.w3.org/Graphics/SVG/1.1/DTD/svg11.dtd"><svg width="100%" height="100%" viewBox="0 0 75 126" version="1.1" xmlns="http://www.w3.org/2000/svg" xmlns:xlink="http://www.w3.org/1999/xlink" xml:space="preserve" xmlns:serif="http://www.serif.com/" style="fill-rule:evenodd;clip-rule:evenodd;stroke-linejoin:round;stroke-miterlimit:2;"><path d="M0.046,21.149c0.005,-5.503 2.187,-10.781 6.071,-14.681c0.094,-0.095 0.189,-0.19 0.283,-0.286c3.905,-3.921 9.21,-6.128 14.745,-6.133c13.624,-0.013 39.581,-0.036 49.685,-0.045c1.105,-0.001 2.166,0.437 2.948,1.219c0.783,0.781 1.222,1.842 1.222,2.947c0,19.05 0,97.678 0,116.72c0,1.105 -0.439,2.165 -1.22,2.946c-0.782,0.782 -1.842,1.221 -2.947,1.221c-4.624,-0 -12.042,-0 -16.666,-0c-1.105,-0 -2.165,-0.439 -2.947,-1.221c-0.781,-0.781 -1.22,-1.841 -1.22,-2.946c0,-7.215 0,-21.952 0,-29.167c0,-2.301 -1.865,-4.166 -4.166,-4.167c-5.937,-0 -16.966,-0.001 -24.707,-0.002c-5.524,-0 -10.821,-2.195 -14.728,-6.1c-0.096,-0.096 -0.192,-0.192 -0.288,-0.288c-3.912,-3.911 -6.108,-9.218 -6.104,-14.751c0.011,-11.939 0.029,-33.352 0.039,-45.266Zm24.954,49.741c-0,1.105 0.439,2.165 1.22,2.946c0.782,0.782 1.842,1.221 2.947,1.221c4.624,-0 12.042,-0 16.666,-0c1.105,-0 2.165,-0.439 2.947,-1.221c0.781,-0.781 1.22,-1.841 1.22,-2.946c0,-11.364 0,-42.803 0,-54.167c0,-1.105 -0.439,-2.165 -1.22,-2.946c-0.782,-0.781 -1.842,-1.22 -2.947,-1.22c-4.624,-0 -12.042,-0 -16.666,-0c-1.105,-0 -2.165,0.439 -2.947,1.22c-0.781,0.781 -1.22,1.841 -1.22,2.946c0,11.364 0,42.803 0,54.167Z" style="fill:#fff;"/></svg>