<?xml version="1.0" encoding="UTF-8" standalone="no"?><!DOCTYPE svg PUBLIC "-//W3C//DTD SVG 1.1//EN" "http://www.w3.org/Graphics/SVG/1.1/DTD/svg11.dtd"><svg width="100%" height="100%" viewBox="0 0 75 88" version="1.1" xmlns="http://www.w3.org/2000/svg" xmlns:xlink="http://www.w3.org/1999/xlink" xml:space="preserve" xmlns:serif="http://www.serif.com/" style="fill-rule:evenodd;clip-rule:evenodd;stroke-linejoin:round;stroke-miterlimit:2;"><path d="M70.828,0.005c1.106,-0.001 2.167,0.437 2.95,1.218c0.782,0.782 1.222,1.843 1.222,2.948c0,1.356 0,2.86 0,4.215c0,1.105 -0.439,2.165 -1.22,2.946c-0.782,0.782 -1.842,1.221 -2.947,1.221c-7.243,-0 -22.425,-0 -33.333,-0c-6.904,-0 -12.5,5.596 -12.5,12.5c0,3.315 1.317,6.495 3.661,8.839c2.344,2.344 5.524,3.661 8.839,3.661c5.296,-0 11.343,-0 16.164,-0c5.657,-0 11.084,2.248 15.084,6.248c0.001,0.001 0.003,0.002 0.004,0.003c4,4.001 6.248,9.427 6.248,15.085c0,2.36 0,4.91 0,7.273c0,5.692 -2.264,11.151 -6.292,15.173c-0.001,0.001 -0.002,0.002 -0.003,0.003c-3.973,3.967 -9.359,6.195 -14.973,6.195c-13.658,0 -39.491,0 -49.563,0c-1.105,0 -2.166,-0.439 -2.947,-1.221c-0.781,-0.782 -1.22,-1.842 -1.22,-2.948c0.001,-1.335 0.002,-2.812 0.003,-4.147c0.001,-2.3 1.866,-4.164 4.167,-4.164c7.241,-0 22.421,-0 33.328,-0c3.315,-0 6.495,-1.317 8.839,-3.661c2.344,-2.344 3.661,-5.524 3.661,-8.839c-0,-3.315 -1.317,-6.495 -3.661,-8.839c-2.344,-2.344 -5.524,-3.661 -8.839,-3.661c-5.301,-0 -11.355,-0 -16.177,-0c-5.649,-0 -11.067,-2.244 -15.062,-6.239c-0.001,-0.001 -0.002,-0.002 -0.003,-0.003c-4.007,-4.007 -6.257,-9.442 -6.255,-15.109c0,-2.314 0.001,-4.811 0.002,-7.134c0.001,-5.772 2.296,-11.307 6.38,-15.387c0.001,-0 0.001,-0.001 0.002,-0.002c3.915,-3.911 9.22,-6.111 14.754,-6.117c13.623,-0.016 39.582,-0.046 49.687,-0.057Z" style="fill:#fff;"/></svg>