<?xml version="1.0" encoding="UTF-8" standalone="no"?><!DOCTYPE svg PUBLIC "-//W3C//DTD SVG 1.1//EN" "http://www.w3.org/Graphics/SVG/1.1/DTD/svg11.dtd"><svg width="100%" height="100%" viewBox="0 0 88 88" version="1.1" xmlns="http://www.w3.org/2000/svg" xmlns:xlink="http://www.w3.org/1999/xlink" xml:space="preserve" xmlns:serif="http://www.serif.com/" style="fill-rule:evenodd;clip-rule:evenodd;stroke-linejoin:round;stroke-miterlimit:2;"><path d="M0,4.167c-0,-1.105 0.439,-2.165 1.22,-2.947c0.782,-0.781 1.842,-1.22 2.947,-1.22c4.624,0 12.042,0 16.666,0c1.105,-0 2.165,0.439 2.947,1.22c0.781,0.782 1.22,1.842 1.22,2.947c0,11.364 0,42.802 0,54.166c-0,2.301 1.865,4.167 4.167,4.167c1.34,-0 2.826,-0 4.166,-0c2.302,-0 4.167,-1.866 4.167,-4.167c0,-9.416 0,-32.25 0,-41.666c-0,-2.301 1.865,-4.167 4.167,-4.167c1.34,-0 2.826,-0 4.166,-0c2.302,0 4.167,1.866 4.167,4.167c0,9.416 0,32.25 0,41.666c-0,2.301 1.865,4.167 4.167,4.167c1.34,-0 2.826,-0 4.166,-0c2.302,-0 4.167,-1.866 4.167,-4.167c0,-11.364 0,-42.802 0,-54.166c-0,-1.105 0.439,-2.165 1.22,-2.947c0.782,-0.781 1.842,-1.22 2.947,-1.22c4.624,-0 12.042,-0 16.666,-0c1.105,-0 2.165,0.439 2.947,1.22c0.781,0.782 1.22,1.842 1.22,2.947c0,11.117 0,41.448 0,53.399c-0,3.244 -0.758,6.444 -2.213,9.344c-2.682,5.343 -7.098,14.143 -9.179,18.291c-0.707,1.408 -2.148,2.297 -3.724,2.297c-2.443,0 -6.049,0 -8.163,0c-1.102,0 -2.159,-0.436 -2.94,-1.214c-2.392,-2.383 -7.67,-7.642 -10.062,-10.024c-0.781,-0.778 -1.838,-1.214 -2.94,-1.214c-2.386,-0 -6.672,-0 -9.058,-0c-1.102,-0 -2.16,0.436 -2.94,1.215c-2.391,2.382 -7.67,7.641 -10.061,10.024c-0.781,0.778 -1.839,1.215 -2.942,1.215c-2.122,-0 -5.749,-0.001 -8.203,-0.001c-1.578,-0 -3.021,-0.892 -3.727,-2.304c-2.076,-4.152 -6.478,-12.956 -9.148,-18.296c-1.447,-2.893 -2.2,-6.083 -2.2,-9.317c0,-11.94 0,-42.293 0,-53.415Z" style="fill:#fff;"/></svg>