<?xml version="1.0" encoding="UTF-8" standalone="no"?><!DOCTYPE svg PUBLIC "-//W3C//DTD SVG 1.1//EN" "http://www.w3.org/Graphics/SVG/1.1/DTD/svg11.dtd"><svg width="100%" height="100%" viewBox="0 0 88 125" version="1.1" xmlns="http://www.w3.org/2000/svg" xmlns:xlink="http://www.w3.org/1999/xlink" xml:space="preserve" xmlns:serif="http://www.serif.com/" style="fill-rule:evenodd;clip-rule:evenodd;stroke-linejoin:round;stroke-miterlimit:2;"><path d="M0,120.833c0,2.302 1.866,4.167 4.167,4.167c10.212,0 36.204,0 43.75,0c1.311,0 2.546,-0.617 3.333,-1.667c4.996,-6.661 23.663,-31.55 32.083,-42.777c2.705,-3.607 4.167,-7.993 4.167,-12.501c0,-15.31 0,-51.583 0,-63.888c0,-1.105 -0.439,-2.165 -1.22,-2.947c-0.782,-0.781 -1.842,-1.22 -2.947,-1.22c-4.624,0 -12.042,0 -16.666,0c-1.105,-0 -2.165,0.439 -2.947,1.22c-0.781,0.782 -1.22,1.842 -1.22,2.947c0,13.128 0,53.538 0,66.666c0,1.105 -0.439,2.165 -1.22,2.947c-0.782,0.781 -1.842,1.22 -2.947,1.22c-4.624,0 -12.042,0 -16.666,0c-1.105,0 -2.165,-0.439 -2.947,-1.22c-0.781,-0.782 -1.22,-1.842 -1.22,-2.947c0,-13.128 0,-53.538 0,-66.666c0,-1.105 -0.439,-2.165 -1.22,-2.947c-0.782,-0.781 -1.842,-1.22 -2.947,-1.22c-4.624,-0 -12.042,-0 -16.666,-0c-1.105,-0 -2.165,0.439 -2.947,1.22c-0.781,0.782 -1.22,1.842 -1.22,2.947c0,11.874 0,46.065 0,62.204c0,5.525 2.195,10.824 6.102,14.731c0.099,0.099 0.197,0.197 0.296,0.296c3.907,3.907 9.206,6.102 14.731,6.102c4.043,-0 8.822,-0 12.752,-0c1.537,-0 2.949,0.846 3.674,2.201c0.725,1.354 0.645,2.998 -0.207,4.277c-1.878,2.817 -4.114,6.171 -6.163,9.245c-3.864,5.796 -10.369,9.277 -17.335,9.277l-22.183,-0c-2.301,-0 -4.167,1.865 -4.167,4.167c-0,1.34 -0,2.826 -0,4.166Z" style="fill:#fff;"/></svg>