<?xml version="1.0" encoding="UTF-8" standalone="no"?><!DOCTYPE svg PUBLIC "-//W3C//DTD SVG 1.1//EN" "http://www.w3.org/Graphics/SVG/1.1/DTD/svg11.dtd"><svg width="100%" height="100%" viewBox="0 0 75 88" version="1.1" xmlns="http://www.w3.org/2000/svg" xmlns:xlink="http://www.w3.org/1999/xlink" xml:space="preserve" xmlns:serif="http://www.serif.com/" style="fill-rule:evenodd;clip-rule:evenodd;stroke-linejoin:round;stroke-miterlimit:2;"><path d="M1.003,69.663c-0.647,0.755 -1.003,1.717 -1.003,2.712c0,2.469 0,7.397 0,10.958c0,1.105 0.439,2.165 1.22,2.947c0.782,0.781 1.842,1.22 2.947,1.22c13.128,0 53.538,0 66.666,-0c1.105,0 2.165,-0.439 2.947,-1.22c0.781,-0.782 1.22,-1.842 1.22,-2.947l0,-4.166c-0,-2.302 -1.866,-4.167 -4.167,-4.167c-9.297,0 -31.675,0 -41.303,0c-0.814,0 -1.553,-0.474 -1.893,-1.213c-0.34,-0.739 -0.219,-1.608 0.311,-2.226c9.667,-11.278 40.127,-46.815 46.049,-53.724c0.647,-0.755 1.003,-1.717 1.003,-2.712c0,-2.464 0,-7.374 0,-10.933c-0,-1.11 -0.442,-2.173 -1.229,-2.955c-0.787,-0.783 -1.853,-1.219 -2.963,-1.212c-13.162,0.079 -53.573,0.32 -66.666,0.398c-2.292,0.014 -4.142,1.876 -4.142,4.167c0,1.21 0,2.532 0,3.743c0,1.105 0.439,2.165 1.22,2.947c0.782,0.781 1.842,1.22 2.947,1.22c9.297,-0 31.675,-0 41.303,-0c0.814,-0 1.553,0.474 1.893,1.213c0.34,0.739 0.219,1.608 -0.311,2.226c-9.667,11.278 -40.127,46.815 -46.049,53.724Z" style="fill:#fff;"/></svg>