<?xml version="1.0" encoding="UTF-8" standalone="no"?><!DOCTYPE svg PUBLIC "-//W3C//DTD SVG 1.1//EN" "http://www.w3.org/Graphics/SVG/1.1/DTD/svg11.dtd"><svg width="100%" height="100%" viewBox="0 0 100 138" version="1.1" xmlns="http://www.w3.org/2000/svg" xmlns:xlink="http://www.w3.org/1999/xlink" xml:space="preserve" xmlns:serif="http://www.serif.com/" style="fill-rule:evenodd;clip-rule:evenodd;stroke-linejoin:round;stroke-miterlimit:2;"><g id="_-" serif:id="%"><path d="M37.5,116.371c0,5.525 2.195,10.824 6.102,14.731c0.099,0.099 0.197,0.197 0.296,0.296c3.907,3.907 9.206,6.102 14.732,6.102c6.072,0 14.168,0 20.24,0c5.526,0 10.825,-2.195 14.732,-6.102c0.099,-0.099 0.197,-0.197 0.296,-0.296c3.907,-3.907 6.102,-9.206 6.102,-14.731c-0,-2.504 -0,-5.238 -0,-7.742c-0,-5.525 -2.195,-10.824 -6.102,-14.731c-0.099,-0.099 -0.197,-0.197 -0.296,-0.296c-3.907,-3.907 -9.206,-6.102 -14.732,-6.102c-6.072,-0 -14.168,-0 -20.24,-0c-5.526,-0 -10.825,2.195 -14.732,6.102c-0.099,0.099 -0.197,0.197 -0.296,0.296c-3.907,3.907 -6.102,9.206 -6.102,14.731c0,2.504 0,5.238 0,7.742Zm29.167,8.629c-2.302,-0 -4.167,-1.866 -4.167,-4.167c0,-4.624 0,-12.042 0,-16.666c-0,-2.301 1.865,-4.167 4.167,-4.167c1.34,-0 2.826,-0 4.166,-0c2.302,0 4.167,1.866 4.167,4.167c0,4.624 0,12.042 0,16.666c0,2.301 -1.865,4.167 -4.167,4.167c-1.34,0 -2.826,0 -4.166,0Z" style="fill:#fff;"/><path d="M80.389,23.941c0.774,-0.816 1.844,-1.286 2.969,-1.301c1.124,-0.015 2.207,0.425 3.002,1.22c2.009,2.009 4.63,4.63 6.606,6.606c1.596,1.596 1.631,4.173 0.078,5.812c-11.757,12.409 -57.219,60.397 -69.267,73.114c-0.773,0.817 -1.844,1.286 -2.968,1.301c-1.125,0.015 -2.207,-0.425 -3.003,-1.22c-2.009,-2.009 -4.629,-4.63 -6.605,-6.605c-1.596,-1.596 -1.631,-4.173 -0.078,-5.812c11.756,-12.41 57.218,-60.398 69.266,-73.115Z" style="fill:#fff;"/><path d="M41.37,50c5.526,0 10.825,-2.195 14.732,-6.102c0.099,-0.099 0.197,-0.197 0.296,-0.296c3.907,-3.907 6.102,-9.206 6.102,-14.731c0,-2.504 0,-5.238 0,-7.742c-0,-5.525 -2.195,-10.824 -6.102,-14.731c-0.099,-0.099 -0.197,-0.197 -0.296,-0.296c-3.907,-3.907 -9.206,-6.102 -14.732,-6.102c-6.072,0 -14.168,0 -20.24,-0c-5.526,-0 -10.825,2.195 -14.732,6.102c-0.099,0.099 -0.197,0.197 -0.296,0.296c-3.907,3.907 -6.102,9.206 -6.102,14.731c0,2.504 0,5.238 0,7.742c0,5.525 2.195,10.824 6.102,14.731c0.099,0.099 0.197,0.197 0.296,0.296c3.907,3.907 9.206,6.102 14.732,6.102c6.072,0 14.168,0 20.24,0Zm-12.203,-12.5c-2.302,-0 -4.167,-1.866 -4.167,-4.167c0,-4.624 -0,-12.042 0,-16.666c-0,-2.301 1.865,-4.167 4.167,-4.167c1.34,-0 2.826,-0 4.166,-0c2.302,0 4.167,1.866 4.167,4.167c0,4.624 -0,12.042 0,16.666c0,2.301 -1.865,4.167 -4.167,4.167c-1.34,-0 -2.826,-0 -4.166,-0Z" style="fill:#fff;"/></g></svg>