<?xml version="1.0" encoding="UTF-8" standalone="no"?><!DOCTYPE svg PUBLIC "-//W3C//DTD SVG 1.1//EN" "http://www.w3.org/Graphics/SVG/1.1/DTD/svg11.dtd"><svg width="100%" height="100%" viewBox="0 0 38 50" version="1.1" xmlns="http://www.w3.org/2000/svg" xmlns:xlink="http://www.w3.org/1999/xlink" xml:space="preserve" xmlns:serif="http://www.serif.com/" style="fill-rule:evenodd;clip-rule:evenodd;stroke-linejoin:round;stroke-miterlimit:2;"><path d="M0,4.167c-0,-1.105 0.439,-2.165 1.22,-2.947c0.782,-0.781 1.842,-1.22 2.947,-1.22c7.214,0 21.952,0 29.166,-0c1.105,-0 2.165,0.439 2.947,1.22c0.781,0.782 1.22,1.842 1.22,2.947l0,24.703c0,5.526 -2.195,10.825 -6.102,14.732c-0.099,0.099 -0.197,0.197 -0.296,0.296c-3.907,3.907 -9.206,6.102 -14.731,6.102c-5.627,0 -12.416,0 -15.146,0c-0.325,-0 -0.637,-0.129 -0.866,-0.359c-0.23,-0.23 -0.359,-0.541 -0.359,-0.866c-0,-1.196 -0,-3.11 -0,-5.025c0,-3.452 2.798,-6.25 6.25,-6.25c3.452,-0 6.25,-2.798 6.25,-6.25c-0,-3.452 -2.798,-6.25 -6.25,-6.25c-3.452,-0 -6.25,-2.798 -6.25,-6.25c-0,-4.556 -0,-10.604 -0,-14.583Z" style="fill:#fff;"/></svg>