<?xml version="1.0" encoding="UTF-8" standalone="no"?><!DOCTYPE svg PUBLIC "-//W3C//DTD SVG 1.1//EN" "http://www.w3.org/Graphics/SVG/1.1/DTD/svg11.dtd"><svg width="100%" height="100%" viewBox="0 0 75 38" version="1.1" xmlns="http://www.w3.org/2000/svg" xmlns:xlink="http://www.w3.org/1999/xlink" xml:space="preserve" xmlns:serif="http://www.serif.com/" style="fill-rule:evenodd;clip-rule:evenodd;stroke-linejoin:round;stroke-miterlimit:2;"><path id="_-" serif:id="^" d="M4.167,37.5c-2.302,-0 -4.167,-1.865 -4.167,-4.167c0,-2.168 0,-4.715 0,-6.417c-0,-1.216 0.531,-2.372 1.455,-3.163c5.075,-4.35 21.937,-18.803 26.541,-22.75c0.756,-0.647 1.717,-1.003 2.712,-1.003c3.174,-0 10.41,0 13.584,0c0.995,0 1.956,0.356 2.712,1.003c4.604,3.947 21.466,18.4 26.541,22.75c0.924,0.791 1.455,1.947 1.455,3.163c0,1.702 0,4.249 0,6.417c-0,2.302 -1.865,4.167 -4.167,4.167c-2.349,0 -5.142,0 -6.824,0c-0.975,0 -1.919,-0.342 -2.668,-0.966c-3.774,-3.145 -15.781,-13.151 -21.174,-17.644c-1.545,-1.288 -3.789,-1.288 -5.334,-0c-5.393,4.493 -17.4,14.499 -21.174,17.644c-0.749,0.624 -1.693,0.966 -2.668,0.966c-1.682,0 -4.475,0 -6.824,0Z" style="fill:#fff;"/></svg>