<?xml version="1.0" encoding="UTF-8" standalone="no"?><!DOCTYPE svg PUBLIC "-//W3C//DTD SVG 1.1//EN" "http://www.w3.org/Graphics/SVG/1.1/DTD/svg11.dtd"><svg width="100%" height="100%" viewBox="0 0 75 88" version="1.1" xmlns="http://www.w3.org/2000/svg" xmlns:xlink="http://www.w3.org/1999/xlink" xml:space="preserve" xmlns:serif="http://www.serif.com/" style="fill-rule:evenodd;clip-rule:evenodd;stroke-linejoin:round;stroke-miterlimit:2;"><path d="M6.137,6.279c3.92,-4.015 9.294,-6.279 14.906,-6.279c9.16,-0 23.436,-0 32.542,-0c5.526,-0 10.825,2.195 14.732,6.102c0.119,0.12 0.239,0.24 0.359,0.359c3.907,3.907 6.102,9.206 6.102,14.732c0,0.584 0,1.134 0,1.621c-0,1.151 -0.933,2.083 -2.083,2.083c-4.077,0 -13.175,0 -18.533,0c-2.301,0 -4.167,-1.865 -4.167,-4.166c0,-1.29 0,-2.711 0,-4.001c0,-2.301 -1.865,-4.167 -4.166,-4.167c-4.654,0 -12.141,0 -16.794,0c-1.105,0 -2.164,0.439 -2.946,1.221c-0.781,0.781 -1.22,1.841 -1.22,2.946c-0,11.354 -0,42.747 -0,54.101c-0,1.105 0.439,2.165 1.22,2.946c0.782,0.782 1.841,1.221 2.946,1.221c4.653,-0 12.14,-0 16.794,-0c1.105,-0 2.164,-0.439 2.946,-1.221c0.781,-0.781 1.22,-1.841 1.22,-2.946c0,-1.325 0,-2.79 0,-4.115c0,-1.105 0.439,-2.165 1.221,-2.947c0.781,-0.781 1.841,-1.22 2.946,-1.22c5.358,-0 14.456,-0 18.533,-0c1.15,-0 2.083,0.933 2.083,2.083c0,0.519 0,1.108 0,1.736c0,5.525 -2.195,10.824 -6.102,14.731c-0.088,0.088 -0.176,0.176 -0.264,0.264c-3.907,3.907 -9.206,6.102 -14.731,6.102c-9.177,0 -23.607,0 -32.784,0c-5.526,0 -10.825,-2.195 -14.732,-6.102c-0.021,-0.021 -0.042,-0.042 -0.063,-0.063c-3.907,-3.907 -6.102,-9.206 -6.102,-14.731c-0,-12.002 -0,-33.598 -0,-45.521c-0,-5.44 2.127,-10.663 5.927,-14.555c0.07,-0.072 0.14,-0.143 0.21,-0.214Z" style="fill:#fff;"/></svg>