<?xml version="1.0" encoding="UTF-8" standalone="no"?><!DOCTYPE svg PUBLIC "-//W3C//DTD SVG 1.1//EN" "http://www.w3.org/Graphics/SVG/1.1/DTD/svg11.dtd"><svg width="100%" height="100%" viewBox="0 0 75 113" version="1.1" xmlns="http://www.w3.org/2000/svg" xmlns:xlink="http://www.w3.org/1999/xlink" xml:space="preserve" xmlns:serif="http://www.serif.com/" style="fill-rule:evenodd;clip-rule:evenodd;stroke-linejoin:round;stroke-miterlimit:2;"><path d="M8.244,62.625c2.301,0 4.166,1.866 4.166,4.167c0,9.405 0,32.19 0,41.595c0,1.105 0.439,2.165 1.221,2.946c0.781,0.782 1.841,1.221 2.946,1.221c4.583,-0 11.905,-0 16.488,-0c1.105,-0 2.165,-0.439 2.946,-1.221c0.781,-0.781 1.22,-1.841 1.22,-2.946c0,-9.405 0,-32.19 0,-41.595c0,-1.105 0.439,-2.165 1.221,-2.946c0.781,-0.782 1.841,-1.221 2.946,-1.221c7.218,0 21.966,0 29.185,0c1.105,0 2.164,-0.439 2.946,-1.22c0.781,-0.782 1.22,-1.841 1.22,-2.946c0,-1.343 0,-2.831 0,-4.173c0,-1.105 -0.439,-2.165 -1.22,-2.946c-0.782,-0.782 -1.841,-1.221 -2.946,-1.221c-7.219,0 -21.967,0 -29.185,0c-1.105,0 -2.165,-0.439 -2.946,-1.22c-0.782,-0.782 -1.221,-1.841 -1.221,-2.946c0,-7.219 0,-21.967 0,-29.185c0,-1.105 0.439,-2.165 1.221,-2.946c0.781,-0.782 1.841,-1.221 2.946,-1.221c7.218,0 21.966,0 29.185,0c2.301,0 4.166,-1.865 4.166,-4.166c0,-1.372 0,-2.897 0,-4.268c0,-2.302 -1.865,-4.167 -4.166,-4.167c-8.123,-0 -26.223,0 -37.037,-0c-5.525,0 -10.825,2.195 -14.731,6.102c-0.101,0.101 -0.202,0.201 -0.303,0.302c-3.907,3.907 -6.102,9.206 -6.102,14.731c0,7.772 0,18.86 0,24.818c0,2.301 -1.865,4.166 -4.166,4.166c-1.314,0 -2.764,0 -4.077,0c-2.302,0 -4.167,1.866 -4.167,4.167c0,1.342 0,2.83 0,4.173c0,2.301 1.865,4.166 4.167,4.166c1.313,0 2.763,0 4.077,0Z" style="fill:#fff;"/></svg>