<?xml version="1.0" encoding="UTF-8" standalone="no"?><!DOCTYPE svg PUBLIC "-//W3C//DTD SVG 1.1//EN" "http://www.w3.org/Graphics/SVG/1.1/DTD/svg11.dtd"><svg width="100%" height="100%" viewBox="0 0 76 125" version="1.1" xmlns="http://www.w3.org/2000/svg" xmlns:xlink="http://www.w3.org/1999/xlink" xml:space="preserve" xmlns:serif="http://www.serif.com/" style="fill-rule:evenodd;clip-rule:evenodd;stroke-linejoin:round;stroke-miterlimit:2;"><path d="M0,120.637c-0,2.301 1.865,4.167 4.167,4.167c13.136,-0 53.59,-0 66.726,-0c2.301,-0 4.166,-1.866 4.166,-4.167c0,-1.24 0,-2.598 0,-3.839c0,-1.105 -0.439,-2.164 -1.22,-2.946c-0.781,-0.781 -1.841,-1.22 -2.946,-1.22c-4.638,-0 -12.089,-0 -16.726,-0c-2.302,-0 -4.167,-1.866 -4.167,-4.167c-0,-13.158 -0,-53.73 -0,-66.888c-0,-2.301 -1.866,-4.167 -4.167,-4.167c-9.416,0 -32.25,0 -41.666,0c-2.301,0 -4.167,1.865 -4.167,4.167c0,1.371 0,2.896 0,4.268c0,2.301 1.865,4.166 4.167,4.166c4.59,0 11.93,0 16.521,0c2.301,0.001 4.166,1.866 4.166,4.167c0,11.382 0,42.905 0,54.287c0,2.301 -1.865,4.167 -4.166,4.167c-4.591,-0 -11.931,-0 -16.521,-0c-2.302,-0 -4.167,1.865 -4.167,4.166c0,1.241 0,2.599 0,3.839Z" style="fill:#fff;"/><path d="M24.854,20.859c0,1.105 0.439,2.165 1.221,2.946c0.781,0.782 1.841,1.221 2.946,1.221c4.657,-0 12.155,-0 16.812,-0c1.105,-0 2.165,-0.439 2.946,-1.221c0.782,-0.781 1.221,-1.841 1.221,-2.946c-0,-4.63 -0,-12.062 -0,-16.692c-0,-1.105 -0.439,-2.165 -1.221,-2.947c-0.781,-0.781 -1.841,-1.22 -2.946,-1.22c-4.657,-0 -12.155,-0 -16.812,-0c-1.105,-0 -2.165,0.439 -2.946,1.22c-0.782,0.782 -1.221,1.842 -1.221,2.947c0,4.63 0,12.062 0,16.692Z" style="fill:#fff;"/></svg>