<?xml version="1.0" encoding="UTF-8" standalone="no"?><!DOCTYPE svg PUBLIC "-//W3C//DTD SVG 1.1//EN" "http://www.w3.org/Graphics/SVG/1.1/DTD/svg11.dtd"><svg width="100%" height="100%" viewBox="0 0 63 163" version="1.1" xmlns="http://www.w3.org/2000/svg" xmlns:xlink="http://www.w3.org/1999/xlink" xml:space="preserve" xmlns:serif="http://www.serif.com/" style="fill-rule:evenodd;clip-rule:evenodd;stroke-linejoin:round;stroke-miterlimit:2;"><path d="M-0,158.333c0,2.302 1.866,4.167 4.167,4.167c8.15,0 26.35,0 37.204,0c5.525,-0 10.824,-2.195 14.731,-6.102c0.101,-0.101 0.202,-0.202 0.304,-0.304c3.907,-3.907 6.102,-9.206 6.102,-14.731c-0,-22.673 -0,-83.31 -0,-99.76c-0,-2.302 -1.866,-4.167 -4.167,-4.167c-9.418,-0 -32.256,-0 -41.674,-0c-2.302,-0 -4.167,1.865 -4.167,4.167c0,1.36 0,2.87 0,4.23c0,2.302 1.866,4.167 4.167,4.167c4.624,0 12.042,0 16.666,0c1.105,-0 2.165,0.439 2.947,1.22c0.781,0.782 1.22,1.842 1.22,2.947c0,16.266 0,75.392 -0,91.659c0,1.105 -0.439,2.165 -1.22,2.946c-0.782,0.781 -1.842,1.22 -2.947,1.22c-7.214,0 -21.952,0 -29.166,0c-2.301,0 -4.167,1.866 -4.167,4.167c-0,1.343 -0,2.831 -0,4.174Z" style="fill:#fff;"/><path d="M37.5,20.833c-0,1.105 0.439,2.165 1.22,2.947c0.782,0.781 1.842,1.22 2.947,1.22c4.624,0 12.044,0 16.668,-0c2.3,0 4.166,-1.865 4.166,-4.165c0.002,-4.624 0.004,-12.042 0.005,-16.667c0.001,-1.105 -0.438,-2.165 -1.22,-2.947c-0.781,-0.782 -1.841,-1.221 -2.946,-1.221c-4.626,0 -12.048,-0 -16.673,0c-1.105,-0 -2.165,0.439 -2.947,1.22c-0.781,0.782 -1.22,1.842 -1.22,2.947c-0,4.624 -0,12.042 -0,16.666Z" style="fill:#fff;"/></svg>