<?xml version="1.0" encoding="UTF-8" standalone="no"?><!DOCTYPE svg PUBLIC "-//W3C//DTD SVG 1.1//EN" "http://www.w3.org/Graphics/SVG/1.1/DTD/svg11.dtd"><svg width="100%" height="100%" viewBox="0 0 75 113" version="1.1" xmlns="http://www.w3.org/2000/svg" xmlns:xlink="http://www.w3.org/1999/xlink" xml:space="preserve" xmlns:serif="http://www.serif.com/" style="fill-rule:evenodd;clip-rule:evenodd;stroke-linejoin:round;stroke-miterlimit:2;"><path d="M4.147,0.097c-2.293,0.011 -4.147,1.873 -4.147,4.167c0,17.652 0,86.439 0,104.167c-0,1.108 0.442,2.171 1.227,2.953c0.786,0.782 1.851,1.218 2.959,1.213c4.632,-0.021 12.05,-0.056 16.667,-0.078c2.293,-0.01 4.147,-1.873 4.147,-4.166c0,-4.695 0,-12.592 0,-19.51c-0,-1.835 1.2,-3.454 2.956,-3.987c1.756,-0.533 3.654,0.145 4.674,1.67c5.794,8.664 13.241,19.8 16.139,24.134c0.77,1.151 2.06,1.844 3.445,1.85c3.455,0.016 10.283,0.048 15.567,0.073c1.489,0.007 2.869,-0.781 3.619,-2.067c0.75,-1.286 0.757,-2.874 0.019,-4.167c-5.721,-10.01 -16.641,-29.12 -20.238,-35.415c-0.732,-1.281 -0.732,-2.854 0,-4.135c3.603,-6.305 14.555,-25.471 20.267,-35.467c0.736,-1.288 0.732,-2.87 -0.011,-4.154c-0.743,-1.284 -2.112,-2.076 -3.596,-2.08c-5.28,-0.013 -12.125,-0.031 -15.602,-0.04c-1.398,-0.003 -2.705,0.695 -3.479,1.859c-2.905,4.364 -10.339,15.533 -16.125,24.227c-1.017,1.529 -2.916,2.212 -4.674,1.68c-1.758,-0.532 -2.961,-2.152 -2.961,-3.988c0,-14.261 0,-35.679 0,-44.65c0,-1.108 -0.442,-2.171 -1.227,-2.953c-0.786,-0.782 -1.851,-1.219 -2.959,-1.213c-4.632,0.021 -12.05,0.056 -16.667,0.077Z" style="fill:#fff;"/></svg>