<?xml version="1.0" encoding="UTF-8" standalone="no"?><!DOCTYPE svg PUBLIC "-//W3C//DTD SVG 1.1//EN" "http://www.w3.org/Graphics/SVG/1.1/DTD/svg11.dtd"><svg width="100%" height="100%" viewBox="0 0 75 113" version="1.1" xmlns="http://www.w3.org/2000/svg" xmlns:xlink="http://www.w3.org/1999/xlink" xml:space="preserve" xmlns:serif="http://www.serif.com/" style="fill-rule:evenodd;clip-rule:evenodd;stroke-linejoin:round;stroke-miterlimit:2;"><path d="M4.175,0.008c-1.107,-0.002 -2.169,0.436 -2.952,1.218c-0.783,0.781 -1.223,1.842 -1.223,2.949c0,1.368 0,2.888 0,4.256c-0,1.105 0.439,2.164 1.22,2.946c0.782,0.781 1.842,1.22 2.947,1.22c4.624,0 12.042,0 16.666,0c1.105,0 2.165,0.439 2.947,1.221c0.781,0.781 1.22,1.841 1.22,2.946c0,14.753 0,64.413 0,79.167c-0,1.105 -0.439,2.164 -1.22,2.946c-0.782,0.781 -1.842,1.22 -2.947,1.22c-4.624,0 -12.042,0 -16.666,0c-1.105,0 -2.165,0.439 -2.947,1.221c-0.781,0.781 -1.22,1.841 -1.22,2.946c0,1.335 0,2.812 0,4.147c-0,1.105 0.439,2.165 1.22,2.946c0.782,0.782 1.842,1.221 2.947,1.221c13.128,-0 53.538,-0 66.666,-0c1.105,-0 2.165,-0.439 2.947,-1.221c0.781,-0.781 1.22,-1.841 1.22,-2.946c0,-1.335 0,-2.812 0,-4.147c0,-1.105 -0.439,-2.165 -1.22,-2.946c-0.782,-0.782 -1.842,-1.221 -2.947,-1.221c-4.624,0 -12.042,0 -16.666,0c-1.105,0 -2.165,-0.439 -2.947,-1.22c-0.781,-0.782 -1.22,-1.841 -1.22,-2.946c0,-16.27 0,-75.42 0,-91.675c0,-2.298 -1.861,-4.162 -4.159,-4.167c-9.408,-0.018 -32.242,-0.063 -41.666,-0.081Z" style="fill:#fff;"/></svg>