<?xml version="1.0" encoding="UTF-8" standalone="no"?><!DOCTYPE svg PUBLIC "-//W3C//DTD SVG 1.1//EN" "http://www.w3.org/Graphics/SVG/1.1/DTD/svg11.dtd"><svg width="100%" height="100%" viewBox="0 0 88 88" version="1.1" xmlns="http://www.w3.org/2000/svg" xmlns:xlink="http://www.w3.org/1999/xlink" xml:space="preserve" xmlns:serif="http://www.serif.com/" style="fill-rule:evenodd;clip-rule:evenodd;stroke-linejoin:round;stroke-miterlimit:2;"><path d="M4.163,87.548c-2.3,-0.002 -4.163,-1.867 -4.163,-4.167c0,-14.748 0,-64.406 -0,-79.154c-0,-2.3 1.863,-4.165 4.163,-4.166c11.861,-0.011 46.009,-0.04 62.166,-0.054c5.55,-0.004 10.872,2.206 14.787,6.14c0.106,0.107 0.213,0.215 0.32,0.322c3.884,3.904 6.064,9.186 6.064,14.693c0,16.122 0,50.337 0,62.216c0,1.105 -0.439,2.165 -1.22,2.946c-0.782,0.782 -1.842,1.221 -2.947,1.221c-4.624,-0 -12.042,-0 -16.666,-0c-1.105,-0 -2.165,-0.439 -2.947,-1.221c-0.781,-0.781 -1.22,-1.841 -1.22,-2.946c0,-13.126 0,-53.521 0,-66.647c0,-1.105 -0.439,-2.165 -1.22,-2.946c-0.782,-0.782 -1.842,-1.221 -2.947,-1.221c-1.34,0 -2.826,0 -4.166,0c-2.302,0 -4.167,1.866 -4.167,4.167c0,11.364 0,42.803 -0,54.166c0,2.302 -1.865,4.167 -4.167,4.167c-1.34,0 -2.826,0 -4.166,0c-2.302,0 -4.167,-1.865 -4.167,-4.167c0,-11.363 -0,-42.802 0,-54.166c0,-2.301 -1.865,-4.167 -4.167,-4.167c-1.34,0 -2.826,0 -4.166,0c-2.302,0 -4.167,1.866 -4.167,4.167c0,13.127 0,53.531 0,66.663c0,1.106 -0.439,2.166 -1.222,2.948c-0.782,0.781 -1.842,1.22 -2.948,1.219c-4.625,-0.004 -12.044,-0.01 -16.667,-0.013Z" style="fill:#fff;"/></svg>