<?xml version="1.0" encoding="UTF-8" standalone="no"?><!DOCTYPE svg PUBLIC "-//W3C//DTD SVG 1.1//EN" "http://www.w3.org/Graphics/SVG/1.1/DTD/svg11.dtd"><svg width="100%" height="100%" viewBox="0 0 75 88" version="1.1" xmlns="http://www.w3.org/2000/svg" xmlns:xlink="http://www.w3.org/1999/xlink" xml:space="preserve" xmlns:serif="http://www.serif.com/" style="fill-rule:evenodd;clip-rule:evenodd;stroke-linejoin:round;stroke-miterlimit:2;"><path d="M4.163,87.484c-2.3,-0.002 -4.163,-1.867 -4.163,-4.167c-0,-14.747 0,-64.398 0,-79.15c-0,-1.105 0.439,-2.165 1.22,-2.947c0.782,-0.781 1.842,-1.22 2.947,-1.22c10.104,-0 36.081,-0 49.704,-0c5.525,0 10.824,2.195 14.731,6.102c0.099,0.099 0.197,0.197 0.296,0.296c3.907,3.907 6.102,9.206 6.102,14.731c-0,16.139 0,50.33 -0,62.204c0,1.105 -0.439,2.165 -1.22,2.947c-0.782,0.781 -1.842,1.22 -2.947,1.22c-4.624,0 -12.042,0 -16.666,0c-1.105,0 -2.165,-0.439 -2.947,-1.22c-0.781,-0.782 -1.22,-1.842 -1.22,-2.947c-0,-13.128 0,-53.538 -0,-66.666c0,-1.105 -0.439,-2.165 -1.22,-2.947c-0.782,-0.781 -1.842,-1.22 -2.947,-1.22c-4.624,-0 -12.042,-0 -16.666,-0c-1.105,-0 -2.165,0.439 -2.947,1.22c-0.781,0.782 -1.22,1.842 -1.22,2.947c-0,13.127 -0,53.531 -0,66.663c0,1.106 -0.439,2.166 -1.222,2.948c-0.782,0.781 -1.842,1.22 -2.948,1.219c-4.625,-0.004 -12.044,-0.01 -16.667,-0.013Z" style="fill:#fff;"/></svg>