<?xml version="1.0" encoding="UTF-8" standalone="no"?><!DOCTYPE svg PUBLIC "-//W3C//DTD SVG 1.1//EN" "http://www.w3.org/Graphics/SVG/1.1/DTD/svg11.dtd"><svg width="100%" height="100%" viewBox="0 0 75 88" version="1.1" xmlns="http://www.w3.org/2000/svg" xmlns:xlink="http://www.w3.org/1999/xlink" xml:space="preserve" xmlns:serif="http://www.serif.com/" style="fill-rule:evenodd;clip-rule:evenodd;stroke-linejoin:round;stroke-miterlimit:2;"><path d="M0,21.159c-0,-5.509 2.182,-10.794 6.069,-14.699c0.104,-0.105 0.209,-0.21 0.314,-0.315c3.915,-3.933 9.238,-6.141 14.788,-6.135c9.109,0.01 23.36,0.026 32.521,0.037c5.631,0.006 11.019,2.292 14.938,6.335c0.054,0.057 0.108,0.113 0.163,0.169c3.735,3.854 5.838,9.001 5.871,14.368c0.074,11.845 0.207,33.403 0.282,45.433c0.035,5.57 -2.163,10.922 -6.102,14.86c-0.079,0.08 -0.159,0.16 -0.239,0.239c-3.909,3.909 -9.211,6.104 -14.739,6.102c-9.172,-0.003 -23.586,-0.009 -32.751,-0.012c-5.517,-0.003 -10.808,-2.193 -14.712,-6.091c-0.096,-0.096 -0.193,-0.193 -0.29,-0.289c-3.914,-3.908 -6.113,-9.212 -6.113,-14.743c0,-11.936 0,-33.343 0,-45.259Zm25,-4.436c-0,-1.105 0.439,-2.165 1.22,-2.946c0.782,-0.781 1.842,-1.22 2.947,-1.22c4.624,-0 12.042,-0 16.666,-0c1.105,-0 2.165,0.439 2.947,1.22c0.781,0.781 1.22,1.841 1.22,2.946c0,11.364 0,42.803 0,54.167c0,1.105 -0.439,2.165 -1.22,2.946c-0.782,0.782 -1.842,1.221 -2.947,1.221c-4.624,-0 -12.042,-0 -16.666,-0c-1.105,-0 -2.165,-0.439 -2.947,-1.221c-0.781,-0.781 -1.22,-1.841 -1.22,-2.946c0,-11.364 0,-42.803 0,-54.167Z" style="fill:#fff;"/></svg>