<?xml version="1.0" encoding="UTF-8" standalone="no"?><!DOCTYPE svg PUBLIC "-//W3C//DTD SVG 1.1//EN" "http://www.w3.org/Graphics/SVG/1.1/DTD/svg11.dtd"><svg width="100%" height="100%" viewBox="0 0 75 88" version="1.1" xmlns="http://www.w3.org/2000/svg" xmlns:xlink="http://www.w3.org/1999/xlink" xml:space="preserve" xmlns:serif="http://www.serif.com/" style="fill-rule:evenodd;clip-rule:evenodd;stroke-linejoin:round;stroke-miterlimit:2;"><path d="M-0,83.364c0,2.3 1.863,4.165 4.163,4.167c4.616,0.003 12.02,0.009 16.647,0.013c1.109,0 2.173,-0.441 2.955,-1.227c0.783,-0.786 1.22,-1.851 1.215,-2.96c-0.04,-8.117 -0.128,-26.14 -0.182,-37.003c-0.027,-5.63 2.226,-11.032 6.245,-14.974c0.127,-0.125 0.254,-0.249 0.38,-0.373c3.895,-3.82 9.133,-5.96 14.589,-5.96c7.746,-0 18.855,-0 24.821,-0c1.105,-0 2.165,-0.439 2.947,-1.221c0.781,-0.781 1.22,-1.841 1.22,-2.946c-0,-4.566 0,-11.846 0,-16.386c0,-2.276 -1.826,-4.131 -4.101,-4.167c-3.264,-0.051 -7.949,-0.124 -12.056,-0.188c-5.651,-0.089 -11.096,2.122 -15.085,6.126c-3.007,3.019 -6.017,6.039 -6.244,6.268c-0.009,0.009 -0.019,0.018 -0.028,0.028c-0.297,0.297 -5.344,5.344 -8.93,8.929c-0.595,0.596 -1.491,0.774 -2.27,0.452c-0.778,-0.322 -1.286,-1.082 -1.286,-1.925c-0,-4.58 -0,-11.259 -0,-15.523c0,-2.276 -1.826,-4.131 -4.101,-4.167c-4.598,-0.072 -12.017,-0.188 -16.667,-0.261c-1.116,-0.017 -2.193,0.414 -2.988,1.197c-0.796,0.783 -1.244,1.853 -1.244,2.969c0,14.84 -0,64.401 -0,79.132Z" style="fill:#fff;"/></svg>