<?xml version="1.0" encoding="UTF-8" standalone="no"?><!DOCTYPE svg PUBLIC "-//W3C//DTD SVG 1.1//EN" "http://www.w3.org/Graphics/SVG/1.1/DTD/svg11.dtd"><svg width="100%" height="100%" viewBox="0 0 75 113" version="1.1" xmlns="http://www.w3.org/2000/svg" xmlns:xlink="http://www.w3.org/1999/xlink" xml:space="preserve" xmlns:serif="http://www.serif.com/" style="fill-rule:evenodd;clip-rule:evenodd;stroke-linejoin:round;stroke-miterlimit:2;"><path d="M12.5,4.167c0,-1.105 0.439,-2.165 1.22,-2.947c0.782,-0.781 1.842,-1.22 2.947,-1.22c4.624,0 12.042,0 16.666,0c1.105,-0 2.165,0.439 2.947,1.22c0.781,0.782 1.22,1.842 1.22,2.947c0,4.612 0,12.001 0,16.613c-0,1.106 0.439,2.165 1.22,2.947c0.782,0.781 1.842,1.22 2.947,1.22c7.214,0 21.952,0 29.166,0c1.105,0 2.165,0.439 2.947,1.221c0.781,0.781 1.22,1.841 1.22,2.946c0,1.357 0,2.862 0,4.219c0,1.105 -0.439,2.165 -1.22,2.947c-0.782,0.781 -1.842,1.22 -2.947,1.22c-7.214,0 -21.952,0 -29.166,-0c-1.105,-0 -2.165,0.439 -2.947,1.22c-0.781,0.782 -1.22,1.842 -1.22,2.947c0,11.364 0,42.802 0,54.166c-0,1.105 0.439,2.165 1.22,2.947c0.782,0.781 1.842,1.22 2.947,1.22c7.214,0 21.952,0 29.166,0c2.301,-0 4.167,1.865 4.167,4.167c0,1.34 0,2.824 0,4.165c-0,1.105 -0.439,2.165 -1.221,2.947c-0.782,0.781 -1.842,1.22 -2.947,1.219c-8.155,-0.003 -26.366,-0.01 -37.217,-0.014c-5.517,-0.002 -10.808,-2.193 -14.712,-6.091c-0.096,-0.096 -0.193,-0.193 -0.29,-0.289c-3.914,-3.908 -6.113,-9.212 -6.113,-14.743c0,-13.625 0,-39.592 0,-49.694c0,-2.301 -1.865,-4.167 -4.167,-4.167c-1.34,-0 -2.826,0 -4.166,-0c-1.105,-0 -2.165,-0.439 -2.947,-1.22c-0.781,-0.782 -1.22,-1.842 -1.22,-2.947c0,-1.349 0,-2.845 0,-4.195c-0,-1.109 0.442,-2.173 1.229,-2.955c0.786,-0.782 1.852,-1.218 2.962,-1.212c1.326,0.008 2.792,0.016 4.118,0.024c1.11,0.006 2.176,-0.43 2.962,-1.212c0.787,-0.782 1.229,-1.845 1.229,-2.955c0,-4.63 0,-12.041 0,-16.661Z" style="fill:#fff;"/></svg>