<?xml version="1.0" encoding="UTF-8" standalone="no"?><!DOCTYPE svg PUBLIC "-//W3C//DTD SVG 1.1//EN" "http://www.w3.org/Graphics/SVG/1.1/DTD/svg11.dtd"><svg width="100%" height="100%" viewBox="0 0 75 88" version="1.1" xmlns="http://www.w3.org/2000/svg" xmlns:xlink="http://www.w3.org/1999/xlink" xml:space="preserve" xmlns:serif="http://www.serif.com/" style="fill-rule:evenodd;clip-rule:evenodd;stroke-linejoin:round;stroke-miterlimit:2;"><path d="M0,4.17c-0,-1.106 0.439,-2.166 1.221,-2.948c0.783,-0.781 1.843,-1.22 2.949,-1.219c4.625,0.004 12.044,0.009 16.667,0.013c2.299,0.002 4.163,1.867 4.163,4.167c0,13.122 0,53.524 0,66.65c0,2.302 1.866,4.167 4.167,4.167c4.624,0 12.042,0 16.666,0c1.105,0 2.165,-0.439 2.947,-1.22c0.781,-0.782 1.22,-1.842 1.22,-2.947c0,-13.127 0,-53.532 0,-66.663c-0,-1.106 0.439,-2.166 1.221,-2.948c0.783,-0.781 1.843,-1.22 2.949,-1.219c4.625,0.004 12.044,0.009 16.667,0.013c2.299,0.002 4.163,1.866 4.163,4.166c0,14.747 0,64.396 0,79.15c0,1.105 -0.439,2.165 -1.221,2.947c-0.782,0.781 -1.842,1.22 -2.947,1.22c-10.109,-0.003 -36.098,-0.012 -49.716,-0.016c-5.517,-0.002 -10.809,-2.192 -14.713,-6.09c-0.097,-0.097 -0.193,-0.193 -0.29,-0.289c-3.914,-3.908 -6.113,-9.212 -6.113,-14.743c0,-16.141 0,-50.317 0,-62.191Z" style="fill:#fff;"/></svg>