<?xml version="1.0" encoding="UTF-8" standalone="no"?><!DOCTYPE svg PUBLIC "-//W3C//DTD SVG 1.1//EN" "http://www.w3.org/Graphics/SVG/1.1/DTD/svg11.dtd"><svg width="100%" height="100%" viewBox="0 0 75 88" version="1.1" xmlns="http://www.w3.org/2000/svg" xmlns:xlink="http://www.w3.org/1999/xlink" xml:space="preserve" xmlns:serif="http://www.serif.com/" style="fill-rule:evenodd;clip-rule:evenodd;stroke-linejoin:round;stroke-miterlimit:2;"><path d="M37.496,87.499c-2.702,-0 -5.331,-0.877 -7.493,-2.498c-5.015,-3.761 -14.664,-10.998 -21.669,-16.251c-5.246,-3.934 -8.334,-10.109 -8.334,-16.667c0,-13.997 0,-38.235 0,-47.913c0,-1.105 0.439,-2.165 1.22,-2.946c0.782,-0.782 1.842,-1.221 2.947,-1.221c4.624,0 12.042,0 16.666,0c1.105,0 2.165,0.439 2.947,1.221c0.781,0.781 1.22,1.841 1.22,2.946c0,11.363 0,42.8 0,54.163c0,1.105 0.439,2.165 1.22,2.947c0.782,0.781 1.842,1.22 2.947,1.22c4.624,0 12.042,0 16.666,-0c1.105,0 2.165,-0.439 2.947,-1.22c0.781,-0.782 1.22,-1.842 1.22,-2.947c0,-11.363 0,-42.801 0,-54.164c0,-2.301 1.865,-4.166 4.166,-4.166c4.624,-0.001 12.042,-0.002 16.667,-0.002c1.105,-0.001 2.165,0.438 2.946,1.22c0.782,0.781 1.221,1.841 1.221,2.946c0,9.679 0,33.919 0,47.916c-0,6.558 -3.087,12.733 -8.333,16.667c-7.003,5.252 -16.649,12.487 -21.666,16.249c-2.164,1.623 -4.797,2.501 -7.502,2.5c-0.001,0 -0.002,0 -0.003,0Z" style="fill:#fff;"/></svg>