<?xml version="1.0" encoding="UTF-8" standalone="no"?><!DOCTYPE svg PUBLIC "-//W3C//DTD SVG 1.1//EN" "http://www.w3.org/Graphics/SVG/1.1/DTD/svg11.dtd"><svg width="100%" height="100%" viewBox="0 0 75 88" version="1.1" xmlns="http://www.w3.org/2000/svg" xmlns:xlink="http://www.w3.org/1999/xlink" xml:space="preserve" xmlns:serif="http://www.serif.com/" style="fill-rule:evenodd;clip-rule:evenodd;stroke-linejoin:round;stroke-miterlimit:2;"><path d="M4.167,0c-1.105,-0 -2.165,0.439 -2.947,1.22c-0.781,0.782 -1.22,1.842 -1.22,2.947c0,2.859 0,6.786 0,10.46c-0,6.53 3.074,12.679 8.298,16.597c4.093,3.069 8.865,6.648 12.258,9.193c1.049,0.787 1.666,2.022 1.666,3.333c0,1.311 -0.617,2.546 -1.666,3.333c-3.393,2.545 -8.165,6.124 -12.258,9.193c-5.224,3.918 -8.298,10.067 -8.298,16.597c0,3.674 0,7.601 0,10.46c-0,1.105 0.439,2.165 1.22,2.947c0.782,0.781 1.842,1.22 2.947,1.22c4.624,0 12.042,0 16.666,0c1.105,0 2.165,-0.439 2.947,-1.22c0.781,-0.782 1.22,-1.842 1.22,-2.947c-0,-5.035 0,-13.384 0,-17.83c-0,-1.793 1.148,-3.386 2.849,-3.953c0.922,-0.307 1.986,-0.662 3.063,-1.021c4.276,-1.425 8.9,-1.425 13.176,0c1.077,0.359 2.141,0.714 3.063,1.021c1.701,0.567 2.849,2.16 2.849,3.953c-0,4.446 0,12.795 0,17.83c-0,1.105 0.439,2.165 1.22,2.947c0.782,0.781 1.842,1.22 2.947,1.22c4.624,0 12.042,0 16.666,0c1.105,0 2.165,-0.439 2.947,-1.22c0.781,-0.782 1.22,-1.842 1.22,-2.947c0,-2.859 0,-6.786 0,-10.46c0,-6.53 -3.074,-12.679 -8.298,-16.597c-4.093,-3.069 -8.865,-6.648 -12.258,-9.193c-1.049,-0.787 -1.666,-2.022 -1.666,-3.333c-0,-1.311 0.617,-2.546 1.666,-3.333c3.393,-2.545 8.165,-6.124 12.258,-9.193c5.224,-3.918 8.298,-10.067 8.298,-16.597c0,-3.674 0,-7.601 0,-10.46c0,-1.105 -0.439,-2.165 -1.22,-2.947c-0.782,-0.781 -1.842,-1.22 -2.947,-1.22c-4.624,0 -12.042,0 -16.666,0c-2.301,-0 -4.167,1.865 -4.167,4.167c-0,5.248 0,14.131 0,18.691c-0,1.739 -1.08,3.295 -2.708,3.904c-0.756,0.282 -1.614,0.602 -2.501,0.934c-4.702,1.756 -9.88,1.756 -14.582,-0c-0.887,-0.332 -1.745,-0.652 -2.501,-0.934c-1.628,-0.609 -2.708,-2.165 -2.708,-3.904c-0,-4.56 0,-13.443 0,-18.691c-0,-2.302 -1.866,-4.167 -4.167,-4.167c-4.624,0 -12.042,0 -16.666,0Z" style="fill:#fff;"/></svg>