<?xml version="1.0" encoding="UTF-8" standalone="no"?><!DOCTYPE svg PUBLIC "-//W3C//DTD SVG 1.1//EN" "http://www.w3.org/Graphics/SVG/1.1/DTD/svg11.dtd"><svg width="100%" height="100%" viewBox="0 0 67 113" version="1.1" xmlns="http://www.w3.org/2000/svg" xmlns:xlink="http://www.w3.org/1999/xlink" xml:space="preserve" xmlns:serif="http://www.serif.com/" style="fill-rule:evenodd;clip-rule:evenodd;stroke-linejoin:round;stroke-miterlimit:2;"><path d="M3.512,32.678c-0.871,-0.871 -1.312,-2.082 -1.205,-3.309c0.108,-1.227 0.753,-2.344 1.762,-3.05c9.236,-6.466 31.386,-21.971 36.522,-25.566c0.7,-0.49 1.534,-0.753 2.389,-0.753c3.6,0 13.742,0 19.52,0c2.301,-0 4.167,1.865 4.167,4.167c-0,17.687 -0,86.459 -0,104.146c-0,2.302 -1.866,4.167 -4.167,4.167c-4.624,0 -12.043,0 -16.667,0c-1.105,0 -2.165,-0.439 -2.946,-1.22c-0.781,-0.782 -1.22,-1.842 -1.22,-2.947c-0,-14.148 -0,-60.514 -0,-79.383c-0,-1.561 -0.873,-2.991 -2.26,-3.705c-1.388,-0.714 -3.059,-0.593 -4.329,0.314c-6.189,4.422 -15.16,10.829 -19.706,14.076c-1.657,1.184 -3.928,0.996 -5.368,-0.444c-1.86,-1.86 -4.425,-4.426 -6.492,-6.493Z" style="fill:#fff;"/></svg>