<?xml version="1.0" encoding="UTF-8" standalone="no"?><!DOCTYPE svg PUBLIC "-//W3C//DTD SVG 1.1//EN" "http://www.w3.org/Graphics/SVG/1.1/DTD/svg11.dtd"><svg width="100%" height="100%" viewBox="0 0 75 113" version="1.1" xmlns="http://www.w3.org/2000/svg" xmlns:xlink="http://www.w3.org/1999/xlink" xml:space="preserve" xmlns:serif="http://www.serif.com/" style="fill-rule:evenodd;clip-rule:evenodd;stroke-linejoin:round;stroke-miterlimit:2;"><path d="M4.167,-0c-2.301,-0 -4.167,1.865 -4.167,4.167c0,1.34 0,2.826 0,4.166c0,2.302 1.866,4.167 4.167,4.167c8.78,0 29.227,0 39.583,0c1.393,0 2.694,0.696 3.467,1.855c0.773,1.16 0.915,2.628 0.379,3.914c-7.355,17.654 -29.503,70.808 -36.859,88.462c-0.536,1.286 -0.393,2.754 0.379,3.914c0.773,1.159 2.074,1.855 3.467,1.855c5.072,0 11.993,0 15.85,0c1.743,-0 3.302,-1.085 3.908,-2.719c5.41,-14.608 31.056,-83.854 38.58,-104.167c0.473,-1.279 0.291,-2.708 -0.488,-3.828c-0.779,-1.119 -2.056,-1.786 -3.419,-1.786c-14.698,0 -52.278,0 -64.847,-0Z" style="fill:#fff;"/></svg>