<?xml version="1.0" encoding="UTF-8" standalone="no"?><!DOCTYPE svg PUBLIC "-//W3C//DTD SVG 1.1//EN" "http://www.w3.org/Graphics/SVG/1.1/DTD/svg11.dtd"><svg width="100%" height="100%" viewBox="0 0 75 113" version="1.1" xmlns="http://www.w3.org/2000/svg" xmlns:xlink="http://www.w3.org/1999/xlink" xml:space="preserve" xmlns:serif="http://www.serif.com/" style="fill-rule:evenodd;clip-rule:evenodd;stroke-linejoin:round;stroke-miterlimit:2;"><path d="M6.398,6.102c3.907,-3.907 9.206,-6.102 14.731,-6.102c9.167,0 23.575,0 32.742,0c5.525,0 10.824,2.195 14.731,6.102c0.099,0.099 0.197,0.197 0.296,0.296c3.907,3.907 6.102,9.206 6.102,14.732c0,5.035 0,11.461 0,16.971c0,7.106 -4.547,13.415 -11.288,15.662c-0.729,0.269 -1.213,0.963 -1.213,1.74c0.001,0.477 0.001,1.014 0.001,1.491c0,0.8 0.512,1.51 1.271,1.763c6.711,2.265 11.229,8.559 11.229,15.642c0,5.51 -0,11.936 0,16.971c0,5.526 -2.195,10.825 -6.102,14.732c-0.099,0.099 -0.197,0.197 -0.296,0.296c-3.907,3.907 -9.206,6.102 -14.731,6.102c-9.167,-0 -23.575,0 -32.742,-0c-5.525,-0 -10.824,-2.195 -14.731,-6.102c-0.099,-0.099 -0.197,-0.197 -0.296,-0.296c-3.907,-3.907 -6.102,-9.206 -6.102,-14.732c0,-5.035 0,-11.461 0,-16.971c-0,-7.106 4.547,-13.415 11.288,-15.662c0.748,-0.249 1.212,-0.404 1.212,-0.404l0,-4.166c0,-0 -0.464,-0.155 -1.212,-0.404c-6.741,-2.247 -11.288,-8.556 -11.288,-15.662c0,-5.51 0,-11.936 0,-16.971c-0,-5.526 2.195,-10.825 6.102,-14.732c0.099,-0.099 0.197,-0.197 0.296,-0.296Zm18.602,60.415c0,-1.066 0.423,-2.087 1.176,-2.841c0.754,-0.753 1.775,-1.176 2.841,-1.176c0,0 0.001,0 0.002,0c5.43,-0 10.638,2.157 14.478,5.997c0.134,0.134 0.267,0.267 0.401,0.401c3.907,3.907 6.102,9.206 6.102,14.731c0,4.131 0,8.887 0,12.204c0,1.105 -0.439,2.165 -1.22,2.947c-0.782,0.781 -1.842,1.22 -2.947,1.22c-4.624,0 -12.042,0 -16.666,-0c-1.105,0 -2.165,-0.439 -2.947,-1.22c-0.781,-0.782 -1.22,-1.842 -1.22,-2.947c-0,-7.265 0,-22.158 0,-29.316Zm4.167,-54.017c-1.105,-0 -2.165,0.439 -2.947,1.22c-0.781,0.782 -1.22,1.842 -1.22,2.947c0,3.317 0,8.073 0,12.204c0,5.525 2.195,10.824 6.102,14.731c0.134,0.134 0.267,0.267 0.401,0.401c3.84,3.84 9.048,5.997 14.478,5.997l4.019,0l-0,-33.333c0,-1.105 -0.439,-2.165 -1.22,-2.947c-0.782,-0.781 -1.842,-1.22 -2.947,-1.22c-4.624,0 -12.042,0 -16.666,0Z" style="fill:#fff;"/></svg>