<?xml version="1.0" encoding="UTF-8" standalone="no"?><!DOCTYPE svg PUBLIC "-//W3C//DTD SVG 1.1//EN" "http://www.w3.org/Graphics/SVG/1.1/DTD/svg11.dtd"><svg width="100%" height="100%" viewBox="0 0 75 113" version="1.1" xmlns="http://www.w3.org/2000/svg" xmlns:xlink="http://www.w3.org/1999/xlink" xml:space="preserve" xmlns:serif="http://www.serif.com/" style="fill-rule:evenodd;clip-rule:evenodd;stroke-linejoin:round;stroke-miterlimit:2;"><path d="M71.982,18.969c0.646,1.291 0.578,2.826 -0.181,4.054c-0.76,1.229 -2.101,1.977 -3.545,1.977c-3.737,-0 -8.351,-0 -12.006,-0c-3.452,-0 -6.25,-2.798 -6.25,-6.25c-0,-3.452 -2.798,-6.25 -6.25,-6.25c-4.556,-0 -10.604,-0 -14.583,-0c-1.105,-0 -2.165,0.439 -2.947,1.22c-0.781,0.782 -1.22,1.842 -1.22,2.947c-0,1.995 -0,4.476 -0,6.909c0,6.182 2.746,12.046 7.496,16.004c9.441,7.868 25.567,21.306 35.008,29.173c4.75,3.958 7.496,9.822 7.496,16.005c0,5.052 0,10.732 0,13.516c-0,1.105 -0.439,2.165 -1.221,2.947c-1.227,1.226 -3.212,3.211 -5.178,5.176c-3.907,3.905 -9.204,6.098 -14.727,6.099c-7.849,0.001 -19.542,0.002 -28.497,0.003c-7.892,0 -15.106,-4.458 -18.636,-11.517c-1.287,-2.575 -2.603,-5.206 -3.726,-7.452c-0.646,-1.292 -0.577,-2.825 0.182,-4.054c0.76,-1.228 2.101,-1.976 3.545,-1.976c3.737,-0 8.353,-0 12.008,-0c3.452,0 6.25,2.798 6.25,6.25c0,3.452 2.798,6.25 6.25,6.25c4.556,-0 10.604,-0 14.583,-0c1.105,0 2.165,-0.439 2.947,-1.22c0.781,-0.782 1.22,-1.842 1.22,-2.947c0,-1.995 0,-4.476 0,-6.909c-0,-6.182 -2.746,-12.046 -7.496,-16.004c-9.441,-7.868 -25.567,-21.306 -35.008,-29.173c-4.75,-3.958 -7.496,-9.822 -7.496,-16.005c0,-5.052 0,-10.732 0,-13.516c-0,-1.105 0.439,-2.165 1.22,-2.946c1.226,-1.226 3.21,-3.21 5.175,-5.175c3.909,-3.909 9.211,-6.104 14.739,-6.102c7.852,0.003 19.547,0.008 28.5,0.011c7.886,0.004 15.094,4.459 18.623,11.511c1.287,2.572 2.602,5.2 3.725,7.444Z" style="fill:#fff;"/><path d="M3.018,18.969c-0.646,1.291 -0.578,2.826 0.181,4.054c0.76,1.229 2.101,1.977 3.545,1.977c3.737,-0 8.351,-0 12.006,-0c3.452,-0 6.25,-2.798 6.25,-6.25c0,-3.452 2.798,-6.25 6.25,-6.25c4.556,-0 10.604,-0 14.583,-0c1.105,-0 2.165,0.439 2.947,1.22c0.781,0.782 1.22,1.842 1.22,2.947c0,1.995 0,4.476 0,6.909c-0,6.182 -2.746,12.046 -7.496,16.004c-9.441,7.868 -25.567,21.306 -35.008,29.173c-4.75,3.958 -7.496,9.822 -7.496,16.005c0,5.052 0,10.732 0,13.516c0,1.105 0.439,2.165 1.221,2.947c1.227,1.226 3.212,3.211 5.178,5.176c3.907,3.905 9.204,6.098 14.727,6.099c7.849,0.001 19.542,0.002 28.497,0.003c7.892,0 15.106,-4.458 18.636,-11.517c1.287,-2.575 2.603,-5.206 3.726,-7.452c0.646,-1.292 0.577,-2.825 -0.182,-4.054c-0.76,-1.228 -2.101,-1.976 -3.545,-1.976c-3.737,-0 -8.353,-0 -12.008,-0c-3.452,0 -6.25,2.798 -6.25,6.25c-0,3.452 -2.798,6.25 -6.25,6.25c-4.556,-0 -10.604,-0 -14.583,-0c-1.105,0 -2.165,-0.439 -2.947,-1.22c-0.781,-0.782 -1.22,-1.842 -1.22,-2.947c0,-1.995 0,-4.476 0,-6.909c0,-6.182 2.746,-12.046 7.496,-16.004c9.441,-7.868 25.567,-21.306 35.008,-29.173c4.75,-3.958 7.496,-9.822 7.496,-16.005c0,-5.052 0,-10.732 0,-13.516c0,-1.105 -0.439,-2.165 -1.22,-2.946c-1.226,-1.226 -3.21,-3.21 -5.175,-5.175c-3.909,-3.909 -9.211,-6.104 -14.739,-6.102c-7.852,0.003 -19.547,0.008 -28.5,0.011c-7.886,0.004 -15.094,4.459 -18.623,11.511c-1.287,2.572 -2.602,5.2 -3.725,7.444Z" style="fill:#fff;"/></svg>